<?xml version="1.0" encoding="UTF-8" standalone="no"?>
<!-- Created with Inkscape (http://www.inkscape.org/) -->

<svg
   version="1.1"
   id="svg1"
   width="512"
   height="512"
   viewBox="0 0 512 512"
   sodipodi:docname="carne.svg"
   inkscape:version="1.4 (e7c3feb1, 2024-10-09)"
   xmlns:inkscape="http://www.inkscape.org/namespaces/inkscape"
   xmlns:sodipodi="http://sodipodi.sourceforge.net/DTD/sodipodi-0.dtd"
   xmlns="http://www.w3.org/2000/svg"
   xmlns:svg="http://www.w3.org/2000/svg">
  <defs
     id="defs1" />
  <sodipodi:namedview
     id="namedview1"
     pagecolor="#ffffff"
     bordercolor="#000000"
     borderopacity="0.25"
     inkscape:showpageshadow="2"
     inkscape:pageopacity="0.0"
     inkscape:pagecheckerboard="0"
     inkscape:deskcolor="#d1d1d1"
     inkscape:zoom="0.47522483"
     inkscape:cx="246.19925"
     inkscape:cy="259.87699"
     inkscape:window-width="1104"
     inkscape:window-height="636"
     inkscape:window-x="0"
     inkscape:window-y="25"
     inkscape:window-maximized="0"
     inkscape:current-layer="g1" />
  <g
     inkscape:groupmode="layer"
     inkscape:label="Image"
     id="g1">
    <g
       id="g2"
       transform="translate(-6.3128018,-2.1042661)">
      <path
         style="fill:#f2e7d1"
         d="m 238,496.60427 c 1.29175,-1.375 2.57363,-2.5 2.84863,-2.5 0.275,0 -0.55688,1.125 -1.84863,2.5 -1.29175,1.375 -2.57363,2.5 -2.84863,2.5 -0.275,0 0.55688,-1.125 1.84863,-2.5 z m -193.805051,-186 c 0.02038,-1.65 0.244498,-2.20394 0.498042,-1.23097 0.253543,0.97297 0.236869,2.32297 -0.03705,3 -0.273923,0.67703 -0.481368,-0.11903 -0.460988,-1.76903 z M 439,287.60427 c 1.29175,-1.375 2.57363,-2.5 2.84863,-2.5 0.275,0 -0.55688,1.125 -1.84863,2.5 -1.29175,1.375 -2.57363,2.5 -2.84863,2.5 -0.275,0 0.55688,-1.125 1.84863,-2.5 z m -394.767997,-51.5 c 0,-1.925 0.205795,-2.7125 0.457322,-1.75 0.251528,0.9625 0.251528,2.5375 0,3.5 -0.251527,0.9625 -0.457322,0.175 -0.457322,-1.75 z m 0.846944,-15.58334 c 0.04798,-1.16494 0.284941,-1.4019 0.604167,-0.60416 0.288871,0.72187 0.253344,1.58437 -0.07895,1.91666 -0.332292,0.33229 -0.568641,-0.25833 -0.52522,-1.3125 z M 250.72515,156.53849 c -8.62101,-2.08872 -16.15904,-6.02601 -21.21314,-11.08011 C 227.0304,142.97677 225,140.52184 225,140.00298 c 0,-0.51887 1.79906,-2.89515 3.99791,-5.28061 10.72832,-11.63886 32.24887,-16.54225 51.2612,-11.67971 11.58433,2.96277 18.95112,7.335 23.77632,14.11136 l 2.05936,2.8921 -4.0453,4.38863 c -4.95596,5.37658 -13.61381,10.11936 -22.14256,12.12973 -7.8797,1.85738 -21.45827,1.84529 -29.18178,-0.026 z m 216.4698,-9.93422 c 0.0204,-1.65 0.2445,-2.20394 0.49804,-1.23097 0.25354,0.97297 0.23687,2.32297 -0.0371,3 -0.27393,0.67703 -0.48137,-0.11903 -0.46099,-1.76903 z m -37.742,-86.750003 -3.95295,-4.25 4.25,3.952947 c 2.3375,2.174122 4.25,4.086622 4.25,4.25 0,0.756578 -0.87085,-4.9e-4 -4.54705,-3.952947 z M 118,59.726711 c 0,-0.207655 0.7875,-0.995155 1.75,-1.75 1.58606,-1.24387 1.62143,-1.2085 0.37756,0.377556 C 118.82119,60.020015 118,60.549746 118,59.726711 Z M 254.8125,2.4211526 c 0.72187,-0.2888706 1.58437,-0.2533443 1.91667,0.078947 0.33229,0.3322916 -0.25834,0.5686403 -1.3125,0.5252193 -1.16495,-0.047984 -1.4019,-0.2849403 -0.60417,-0.6041663 z m 38,0 c 0.72187,-0.2888706 1.58437,-0.2533443 1.91667,0.078947 0.33229,0.3322916 -0.25834,0.5686403 -1.3125,0.5252193 -1.16495,-0.047984 -1.4019,-0.2849403 -0.60417,-0.6041663 z"
         id="path8" />
      <path
         style="fill:#e4d4bc"
         d="m 303,365.72671 c 0,-0.20765 0.7875,-0.99515 1.75,-1.75 1.58606,-1.24387 1.62143,-1.2085 0.37756,0.37756 C 303.82119,366.02001 303,366.54975 303,365.72671 Z M 44.232003,305.10427 c 0,-1.925 0.205795,-2.7125 0.457322,-1.75 0.251528,0.9625 0.251528,2.5375 0,3.5 -0.251527,0.9625 -0.457322,0.175 -0.457322,-1.75 z m -0.07411,-43 c 0,-1.375 0.226973,-1.9375 0.504386,-1.25 0.277412,0.6875 0.277412,1.8125 0,2.5 -0.277413,0.6875 -0.504386,0.125 -0.504386,-1.25 z m 0.128119,-18.5 c 0.0075,-2.75 0.201713,-3.75632 0.431567,-2.23625 0.229855,1.52006 0.223712,3.77006 -0.01365,5 -0.237362,1.22993 -0.425424,-0.0137 -0.417917,-2.76375 z M 256,176.03284 c -22.13478,-3.33045 -36.86437,-17.5774 -33.00211,-31.92073 l 1.12004,-4.15952 4.91088,4.98895 c 17.53499,17.81377 56.40491,17.51919 73.06394,-0.55372 2.24871,-2.43957 4.34829,-4.17585 4.66573,-3.85841 1.21902,1.21902 1.41509,11.51891 0.28449,14.94465 -2.9502,8.93922 -16.09084,17.55791 -30.75593,20.17224 -8.63429,1.53923 -12.17739,1.60674 -20.28704,0.38654 z m 211.34281,-19.42857 c 0.004,-4.4 0.17944,-6.07561 0.39069,-3.72357 0.21124,2.35204 0.20827,5.95204 -0.007,8 -0.21487,2.04796 -0.38771,0.12357 -0.38408,-4.27643 z M 229,133.60427 c 1.29175,-1.375 2.57363,-2.5 2.84863,-2.5 0.275,0 -0.55688,1.125 -1.84863,2.5 -1.29175,1.375 -2.57363,2.5 -2.84863,2.5 -0.275,0 0.55688,-1.125 1.84863,-2.5 z M 257.8125,2.4211526 c 0.72187,-0.2888706 1.58437,-0.2533443 1.91667,0.078947 0.33229,0.3322916 -0.25834,0.5686403 -1.3125,0.5252193 -1.16495,-0.047984 -1.4019,-0.2849403 -0.60417,-0.6041663 z m 32,0 c 0.72187,-0.2888706 1.58437,-0.2533443 1.91667,0.078947 0.33229,0.3322916 -0.25834,0.5686403 -1.3125,0.5252193 -1.16495,-0.047984 -1.4019,-0.2849403 -0.60417,-0.6041663 z"
         id="path7" />
      <path
         style="fill:#ea9699"
         d="m 107,478.60427 c -2.42903,-2.475 -4.19142,-4.5 -3.91642,-4.5 0.275,0 2.48739,2.025 4.91642,4.5 2.42903,2.475 4.19142,4.5 3.91642,4.5 -0.275,0 -2.48739,-2.025 -4.91642,-4.5 z m 55.7277,-21.22174 c 1.77523,-0.22091 4.92523,-0.22454 7,-0.008 2.07476,0.21647 0.6223,0.39722 -3.2277,0.40166 -3.85,0.004 -5.54754,-0.17268 -3.7723,-0.3936 z m -8.9152,-0.96138 c 0.72187,-0.28887 1.58437,-0.25334 1.91667,0.0789 0.33229,0.33229 -0.25834,0.56864 -1.3125,0.52522 -1.16495,-0.048 -1.4019,-0.28494 -0.60417,-0.60417 z m 25,0 c 0.72187,-0.28887 1.58437,-0.25334 1.91667,0.0789 0.33229,0.33229 -0.25834,0.56864 -1.3125,0.52522 -1.16495,-0.048 -1.4019,-0.28494 -0.60417,-0.60417 z m 5,-1 c 0.72187,-0.28887 1.58437,-0.25334 1.91667,0.0789 0.33229,0.33229 -0.25834,0.56864 -1.3125,0.52522 -1.16495,-0.048 -1.4019,-0.28494 -0.60417,-0.60417 z m -68.94006,-16.06688 c -1.24387,-1.58606 -1.2085,-1.62143 0.37756,-0.37756 0.9625,0.75485 1.75,1.54235 1.75,1.75 0,0.82304 -0.82119,0.2933 -2.12756,-1.37244 z m -6.92627,-6 -3.44617,-3.75 3.75,3.44616 c 3.49042,3.20762 4.20979,4.05384 3.44617,4.05384 -0.16711,0 -1.85461,-1.6875 -3.75,-3.75 z m -9.021856,-9 -2.424314,-2.75 2.75,2.42431 c 2.57029,2.26589 3.20859,3.07569 2.42431,3.07569 -0.17912,0 -1.41662,-1.2375 -2.749996,-2.75 z m -6.051869,-7 c -1.243871,-1.58606 -1.208501,-1.62143 0.377555,-0.37756 0.9625,0.75485 1.75,1.54235 1.75,1.75 0,0.82304 -0.821186,0.2933 -2.127555,-1.37244 z M 246.07895,385.52093 c 0.048,-1.16494 0.28494,-1.4019 0.60416,-0.60416 0.28887,0.72187 0.25335,1.58437 -0.0789,1.91666 -0.3323,0.33229 -0.56864,-0.25833 -0.52522,-1.3125 z m -200.000003,-53 c 0.04798,-1.16494 0.284941,-1.4019 0.604167,-0.60416 0.288871,0.72187 0.253344,1.58437 -0.07895,1.91666 -0.332292,0.33229 -0.568641,-0.25833 -0.52522,-1.3125 z M 268,332.72671 c 0,-0.20765 0.7875,-0.99515 1.75,-1.75 1.58606,-1.24387 1.62143,-1.2085 0.37756,0.37756 C 268.82119,333.02001 268,333.54975 268,332.72671 Z M 52.078947,324.52093 c 0.04798,-1.16494 0.284941,-1.4019 0.604167,-0.60416 0.288871,0.72187 0.253344,1.58437 -0.07895,1.91666 -0.332292,0.33229 -0.568641,-0.25833 -0.52522,-1.3125 z M 275.5,324.10427 c 0.99549,-1.1 2.03498,-2 2.30998,-2 0.275,0 -0.31449,0.9 -1.30998,2 -0.99549,1.1 -2.03498,2 -2.30998,2 -0.275,0 0.31449,-0.9 1.30998,-2 z m -230.305051,-2.5 c 0.02038,-1.65 0.244498,-2.20394 0.498042,-1.23097 0.253543,0.97297 0.236869,2.32297 -0.03705,3 -0.273923,0.67703 -0.481368,-0.11903 -0.460988,-1.76903 z M 282,318.72671 c 0,-0.20765 0.7875,-0.99515 1.75,-1.75 1.58606,-1.24387 1.62143,-1.2085 0.37756,0.37756 C 282.82119,319.02001 282,319.54975 282,318.72671 Z M 49.078947,309.52093 c 0.04798,-1.16494 0.284941,-1.4019 0.604167,-0.60416 0.288871,0.72187 0.253344,1.58437 -0.07895,1.91666 -0.332292,0.33229 -0.568641,-0.25833 -0.52522,-1.3125 z m -1,-6 c 0.04798,-1.16494 0.284941,-1.4019 0.604167,-0.60416 0.288871,0.72187 0.253344,1.58437 -0.07895,1.91666 -0.332292,0.33229 -0.568641,-0.25833 -0.52522,-1.3125 z m -3.779265,-20.41666 c -0.01607,-12.03984 0.235695,-17.20457 0.658095,-13.5 0.376271,3.3 0.387986,12.075 0.02603,19.5 -0.655035,13.43721 -0.658216,13.40931 -0.684129,-6 z M 308,301.71126 c 0,-0.21616 0.69837,-0.66101 1.55194,-0.98855 0.88992,-0.3415 1.29132,-0.17385 0.94098,0.39301 C 309.90566,302.06592 308,302.52117 308,301.71126 Z M 47.078947,296.52093 c 0.04798,-1.16494 0.284941,-1.4019 0.604167,-0.60416 0.288871,0.72187 0.253344,1.58437 -0.07895,1.91666 -0.332292,0.33229 -0.568641,-0.25833 -0.52522,-1.3125 z m -0.921052,-8.41666 c 0,-1.375 0.226973,-1.9375 0.504386,-1.25 0.277412,0.6875 0.277412,1.8125 0,2.5 -0.277413,0.6875 -0.504386,0.125 -0.504386,-1.25 z M 378,271.10427 c 0.825,-0.53316 1.95,-0.96938 2.5,-0.96938 0.55,0 0.325,0.43622 -0.5,0.96938 -0.825,0.53315 -1.95,0.96937 -2.5,0.96937 -0.55,0 -0.325,-0.43622 0.5,-0.96937 z m -333.679926,-17 c 0,-3.575 0.181495,-5.0375 0.403322,-3.25 0.221826,1.7875 0.221826,4.7125 0,6.5 -0.221827,1.7875 -0.403322,0.325 -0.403322,-3.25 z M 427,243.72671 c 0,-0.20765 0.7875,-0.99515 1.75,-1.75 1.58606,-1.24387 1.62143,-1.2085 0.37756,0.37756 C 427.82119,244.02001 427,244.54975 427,243.72671 Z m 10.5,-9.62244 c 2.70865,-2.75 5.14982,-5 5.42482,-5 0.275,0 -1.71617,2.25 -4.42482,5 -2.70865,2.75 -5.14982,5 -5.42482,5 -0.275,0 1.71617,-2.25 4.42482,-5 z m -392.342105,-8 c 0,-1.375 0.226973,-1.9375 0.504386,-1.25 0.277412,0.6875 0.277412,1.8125 0,2.5 -0.277413,0.6875 -0.504386,0.125 -0.504386,-1.25 z m 422.094285,-8.5 c 0.0111,-2.2 0.21589,-2.98226 0.45508,-1.73834 0.23919,1.24391 0.23011,3.04391 -0.0202,4 -0.25029,0.95608 -0.446,-0.0617 -0.4349,-2.26166 z M 46.078947,214.52093 c 0.04798,-1.16494 0.284941,-1.4019 0.604167,-0.60416 0.288871,0.72187 0.253344,1.58437 -0.07895,1.91666 -0.332292,0.33229 -0.568641,-0.25833 -0.52522,-1.3125 z M 258.8125,176.42115 c 0.72187,-0.28887 1.58437,-0.25334 1.91667,0.0789 0.33229,0.33229 -0.25834,0.56864 -1.3125,0.52522 -1.16495,-0.048 -1.4019,-0.28494 -0.60417,-0.60417 z m 207.77692,-6.47941 C 467.48299,162.94352 468,162.55385 468,168.87858 c 0,2.80921 -0.47072,5.39857 -1.04605,5.75415 -0.70918,0.43829 -0.82657,-1.07238 -0.36453,-4.69099 z M 308.07895,148.52093 c 0.048,-1.16494 0.28494,-1.4019 0.60416,-0.60416 0.28887,0.72187 0.25335,1.58437 -0.0789,1.91666 -0.3323,0.33229 -0.56864,-0.25833 -0.52522,-1.3125 z m -7.20651,-15.16666 c -1.24387,-1.58606 -1.2085,-1.62143 0.37756,-0.37756 0.9625,0.75485 1.75,1.54235 1.75,1.75 0,0.82304 -0.82119,0.2933 -2.12756,-1.37244 z M 264.8125,120.42115 c 0.72187,-0.28887 1.58437,-0.25334 1.91667,0.079 0.33229,0.33229 -0.25834,0.56864 -1.3125,0.52522 -1.16495,-0.048 -1.4019,-0.28494 -0.60417,-0.60417 z M 108.5,69.104267 c 3.8205,-3.85 7.17136,-7 7.44636,-7 0.275,0 -2.62586,3.15 -6.44636,7 -3.8205,3.85 -7.17136,7 -7.44636,7 -0.275,0 2.62586,-3.15 6.44636,-7 z m 326.90499,-2.25 -1.90499,-2.25 2.25,1.904987 c 2.11444,1.790218 2.70524,2.595013 1.90499,2.595013 -0.18976,0 -1.20226,-1.0125 -2.25,-2.25 z M 121,57.726711 c 0,-0.207655 0.7875,-0.995155 1.75,-1.75 1.58606,-1.24387 1.62143,-1.2085 0.37756,0.377556 C 121.82119,58.020015 121,58.549746 121,57.726711 Z m 301.40499,-3.872444 -1.90499,-2.25 2.25,1.904987 c 1.2375,1.047743 2.25,2.060243 2.25,2.25 0,0.800253 -0.80479,0.209457 -2.59501,-1.904987 z M 248.8125,3.4211526 c 0.72187,-0.2888706 1.58437,-0.2533443 1.91667,0.078947 0.33229,0.3322916 -0.25834,0.5686403 -1.3125,0.5252193 -1.16495,-0.047984 -1.4019,-0.2849403 -0.60417,-0.6041663 z m 50,0 c 0.72187,-0.2888706 1.58437,-0.2533443 1.91667,0.078947 0.33229,0.3322916 -0.25834,0.5686403 -1.3125,0.5252193 -1.16495,-0.047984 -1.4019,-0.2849403 -0.60417,-0.6041663 z M 261.76166,2.3970058 c 1.24391,-0.2391932 3.04391,-0.2301119 4,0.020181 C 266.71775,2.6674791 265.7,2.8631826 263.5,2.8520832 261.3,2.8409839 260.51775,2.636199 261.76166,2.3970058 Z m 22,0 c 1.24391,-0.2391932 3.04391,-0.2301119 4,0.020181 C 288.71775,2.6674791 287.7,2.8631826 285.5,2.8520832 283.3,2.8409839 282.51775,2.636199 283.76166,2.3970058 Z"
         id="path6" />
      <path
         style="fill:#fd7989"
         d="M 150.5,455.62507 C 98.795593,444.24839 59.843998,383.27852 47.309821,294.10427 c -2.502225,-17.80205 -2.503097,-68.18726 -0.0015,-86 C 58.335609,129.58435 89.398433,76.409524 145.69748,39.677017 166.25123,26.266655 194.96595,14.211593 219.60182,8.6503741 254.83896,0.69606084 293.99446,0.72494298 330,8.7318067 c 43.07055,9.5779713 83.9158,32.4811843 107.23908,60.1323193 22.4938,26.667727 30.86217,53.005114 29.46243,92.725674 -1.13385,32.17537 -10.62745,54.86765 -31.0371,74.18708 -16.57093,15.68577 -35.11348,25.9998 -84.16441,46.81528 -35.3173,14.98742 -50.60555,22.39148 -60.8309,29.46026 -18.36611,12.69648 -31.17126,29.61091 -38.14544,50.38663 -1.36632,4.07019 -4.47956,15.67244 -6.91832,25.78278 -6.51889,27.02534 -10.17669,35.7404 -19.22415,45.80336 -8.15501,9.07033 -24.41764,17.40474 -41.20512,21.11715 -10.15827,2.24642 -25.67856,2.46248 -34.67607,0.48273 z m 34.72844,-33.07851 c 9.18202,-2.37713 16.31392,-6.06983 19.80576,-10.25488 4.79276,-5.74421 9.5139,-16.45225 15.57715,-35.33055 15.40986,-47.97954 24.18032,-65.57511 41.36212,-82.98199 12.66718,-12.83311 24.72911,-19.71633 51.52653,-29.40394 64.63965,-23.36808 103.43308,-49.6115 119.01708,-80.514 6.54137,-12.9713 7.986,-19.68179 7.95604,-36.95693 -0.0261,-15.05142 -0.12151,-15.74939 -3.29649,-24.11711 C 421.57457,81.867629 368.22517,48.554625 303.5,39.515354 c -16.08963,-2.247017 -44.15702,-2.253325 -59.81726,-0.01345 -55.16231,7.889848 -102.43398,36.073741 -130.1592,77.602356 -18.362198,27.50408 -29.693798,60.2105 -35.685795,103 -2.052985,14.66058 -1.742433,61.30649 0.509311,76.5 6.886491,46.46619 20.604545,81.23804 41.081894,104.13236 10.73671,12.00399 25.64683,20.9753 38.745,23.3126 6.89679,1.2307 19.11848,0.55187 27.05449,-1.50267 z m 43.17655,-258.69229 -1.90499,-2.25 2.25,1.90498 c 2.11444,1.79022 2.70524,2.59502 1.90499,2.59502 -0.18976,0 -1.20226,-1.0125 -2.25,-2.25 z m 31.86404,-43.44299 c 0.97297,-0.25355 2.32297,-0.23687 3,0.037 0.67703,0.27392 -0.11903,0.48137 -1.76903,0.46099 -1.65,-0.0204 -2.20394,-0.2445 -1.23097,-0.49804 z m 7.48097,0.0307 c 0.6875,-0.27742 1.8125,-0.27742 2.5,0 0.6875,0.27741 0.125,0.50438 -1.25,0.50438 -1.375,0 -1.9375,-0.22697 -1.25,-0.50438 z"
         id="path5" />
      <path
         style="fill:#fd4654"
         d="m 158.17395,424.04923 c -13.09817,-2.3373 -28.00829,-11.30861 -38.745,-23.3126 -20.477349,-22.89432 -34.195403,-57.66617 -41.081894,-104.13236 -2.251744,-15.19351 -2.562296,-61.83942 -0.509311,-76.5 5.991997,-42.7895 17.323597,-75.49592 35.685795,-103 27.72522,-41.52862 74.99689,-69.712513 130.1592,-77.602361 15.66024,-2.23988 43.72763,-2.233572 59.81726,0.01345 64.72517,9.039271 118.07457,42.352275 133.67663,83.471811 3.17498,8.36772 3.27039,9.06569 3.29649,24.11711 0.03,17.27514 -1.41467,23.98563 -7.95604,36.95693 -15.584,30.9025 -54.37743,57.14592 -119.01708,80.514 -26.79742,9.68761 -38.85935,16.57083 -51.52653,29.40394 -17.1818,17.40688 -25.95226,35.00245 -41.36212,82.98199 -8.92142,27.7774 -14.1722,36.89929 -23.88257,41.48987 -10.99541,5.19808 -27.42685,7.58395 -38.55483,5.59822 z M 280.41456,175.12612 c 9.99072,-2.5552 16.73644,-6.28371 22.03903,-12.18146 7.15551,-7.95865 8.08061,-15.59048 2.96798,-24.485 -11.87967,-20.66724 -54.69056,-24.40536 -74.59109,-6.51307 -8.97371,8.06814 -10.9896,16.4322 -6.25189,25.93955 7.50323,15.05701 33.26751,23.01202 55.83597,17.23998 z"
         id="path4" />
      <path
         style="fill:#974c35"
         d="m 180.26903,513.41128 c 0.97297,-0.25355 2.32297,-0.23687 3,0.0371 0.67703,0.27392 -0.11903,0.48137 -1.76903,0.46099 -1.65,-0.0204 -2.20394,-0.2445 -1.23097,-0.49804 z m 15.98097,0.004 c 0.9625,-0.25153 2.5375,-0.25153 3.5,0 0.9625,0.25153 0.175,0.45732 -1.75,0.45732 -1.925,0 -2.7125,-0.20579 -1.75,-0.45732 z m -24.4375,-0.99379 c 0.72187,-0.28887 1.58437,-0.25334 1.91667,0.0789 0.33229,0.33229 -0.25834,0.56864 -1.3125,0.52522 -1.16495,-0.048 -1.4019,-0.28494 -0.60417,-0.60417 z m 66.14571,-16.56688 c 2.45201,-2.6125 4.58951,-4.75 4.75,-4.75 0.75088,0 -0.043,0.89782 -4.45821,5.04179 l -4.75,4.45821 z m -67.54066,-0.88974 c -17.6191,-1.24103 -35.86565,-7.69294 -52.15825,-18.44293 -10.56116,-6.96835 -28.620122,-24.74131 -36.202634,-35.62931 -2.953885,-4.24159 -5.819571,-7.43456 -6.368191,-7.09549 -0.603325,0.37287 -0.678487,0.10032 -0.190208,-0.68973 0.50831,-0.82246 0.124403,-1.80555 -1.036621,-2.65451 -1.014148,-0.74156 -1.420397,-1.35518 -0.902776,-1.36361 0.517622,-0.008 0.429865,-0.34592 -0.195015,-0.75 -1.559866,-1.00868 -9.362278,-20.29797 -13.816243,-34.1568 C 49.664929,363.43146 44.906963,331.43764 45.11066,297.10427 l 0.103826,-17.5 1.378619,11.5 c 9.604178,80.11501 45.31537,143.42296 90.884225,161.1174 11.9776,4.65092 24.98146,6.442 37.05008,5.10308 16.88166,-1.87289 35.93125,-9.02427 45.83188,-17.20567 13.23195,-10.93424 17.92623,-20.33667 25.65633,-51.38846 3.16643,-12.71949 6.95468,-26.27635 8.41834,-30.12635 9.70363,-25.52425 26.13784,-42.42649 55.3755,-56.95254 C 320.72218,296.23 326.76308,293.56717 361,279.08692 418.32323,254.8425 442.37191,237.09756 456.52102,208.60427 460.68847,200.21193 466,182.80233 466,177.53506 c 0,-1.27202 0.45,-2.59087 1,-2.93079 0.65671,-0.40587 0.92746,6.35377 0.78868,19.69098 l -0.21132,20.30902 -0.57736,-16 c -0.31755,-8.8 -0.67245,-14.56035 -0.78868,-12.80077 -0.45373,6.86907 -4.45226,24.82434 -7.37129,33.10055 -6.21439,17.61938 -13.94759,30.23184 -26.55535,43.31039 -16.58057,17.19971 -27.26665,23.99358 -76.356,48.54469 -38.04631,19.02814 -56.96036,30.3135 -64.47952,38.47268 -11.51311,12.49309 -19.93305,29.57998 -31.96734,64.87246 -12.93119,37.92278 -19.82908,52.2051 -30.84982,63.87562 -5.73283,6.07084 -14.77279,11.771 -22.55987,14.22514 -7.82013,2.46455 -23.07738,3.6454 -35.65458,2.7595 z m -54.54511,-8.61026 c -1.24387,-1.58606 -1.2085,-1.62143 0.37756,-0.37756 0.9625,0.75485 1.75,1.54235 1.75,1.75 0,0.82304 -0.82119,0.2933 -2.12756,-1.37244 z m -16.999995,-17 c -1.243871,-1.58606 -1.208501,-1.62143 0.377555,-0.37756 0.9625,0.75485 1.75,1.54235 1.75,1.75 0,0.82304 -0.82119,0.2933 -2.127555,-1.37244 z M 439,286.60427 c 2.98742,-3.025 5.65668,-5.5 5.93168,-5.5 0.275,0 -1.94426,2.475 -4.93168,5.5 -2.98742,3.025 -5.65668,5.5 -5.93168,5.5 -0.275,0 1.94426,-2.475 4.93168,-5.5 z m 26.07895,-51.08334 c 0.048,-1.16494 0.28494,-1.4019 0.60416,-0.60416 0.28887,0.72187 0.25335,1.58437 -0.0789,1.91666 -0.3323,0.33229 -0.56864,-0.25833 -0.52522,-1.3125 z m 1.07894,-7.41666 c 0,-1.375 0.22698,-1.9375 0.50439,-1.25 0.27741,0.6875 0.27741,1.8125 0,2.5 -0.27741,0.6875 -0.50439,0.125 -0.50439,-1.25 z"
         id="path3" />
      <path
         style="fill:#8b4433"
         d="m 177.28765,513.06045 c -40.98897,-5.08666 -75.5295,-31.33496 -99.293907,-75.45618 -5.047869,-9.37192 -4.361423,-8.94468 3.25613,2.02659 12.919017,18.60678 32.045337,35.5123 50.250127,44.41545 17.14179,8.38329 29.5927,11.16591 49.77813,11.1248 21.15214,-0.0431 33.06092,-3.97442 44.75931,-14.776 12.28177,-11.34025 19.764,-26.17094 33.44438,-66.29084 12.03429,-35.29248 20.45423,-52.37937 31.96734,-64.87246 7.51916,-8.15918 26.43321,-19.44454 64.47952,-38.47268 49.08935,-24.55111 59.77543,-31.34498 76.356,-48.54469 19.36709,-20.09028 28.94716,-41.61906 34.09069,-76.61017 0.24254,-1.65 0.30416,8.25 0.13693,22 -0.3313,27.23935 -1.20752,33.56267 -6.5821,47.5 -4.82687,12.51701 -9.7183,19.78218 -20.9302,31.08733 -16.03281,16.16617 -28.09801,23.38201 -78.45941,46.92432 -37.73301,17.63894 -50.58993,24.97088 -58.09535,33.13013 -8.61276,9.36307 -14.7352,21.96306 -25.92719,53.35822 -12.77812,35.84446 -20.40517,52.94116 -29.00858,65.02522 -9.86684,13.85865 -24.85905,24.62528 -38.00947,27.29645 -7.63923,1.5517 -24.16146,2.13362 -32.21235,1.13451 z"
         id="path2" />
    </g>
  </g>
</svg>
