<?xml version="1.0" encoding="UTF-8" standalone="no"?>
<!-- Created with Inkscape (http://www.inkscape.org/) -->

<svg
   version="1.1"
   id="svg1"
   width="512"
   height="512"
   viewBox="0 0 512 512"
   sodipodi:docname="fruta.svg"
   inkscape:version="1.4 (e7c3feb1, 2024-10-09)"
   xmlns:inkscape="http://www.inkscape.org/namespaces/inkscape"
   xmlns:sodipodi="http://sodipodi.sourceforge.net/DTD/sodipodi-0.dtd"
   xmlns="http://www.w3.org/2000/svg"
   xmlns:svg="http://www.w3.org/2000/svg">
  <defs
     id="defs1" />
  <sodipodi:namedview
     id="namedview1"
     pagecolor="#ffffff"
     bordercolor="#000000"
     borderopacity="0.25"
     inkscape:showpageshadow="2"
     inkscape:pageopacity="0.0"
     inkscape:pagecheckerboard="0"
     inkscape:deskcolor="#d1d1d1"
     inkscape:zoom="0.43034999"
     inkscape:cx="262.57698"
     inkscape:cy="207.97026"
     inkscape:window-width="1104"
     inkscape:window-height="772"
     inkscape:window-x="0"
     inkscape:window-y="25"
     inkscape:window-maximized="0"
     inkscape:current-layer="g1" />
  <g
     inkscape:groupmode="layer"
     inkscape:label="Image"
     id="g1">
    <g
       id="g2"
       transform="translate(2.436412e-8,-2.3236854)">
      <path
         style="fill:#fbb240"
         d="m 360.8125,474.31689 c 0.72187,-0.28887 1.58438,-0.25335 1.91667,0.0789 0.33229,0.33229 -0.25834,0.56864 -1.3125,0.52522 -1.16495,-0.048 -1.4019,-0.28494 -0.60417,-0.60416 z m 10,-2 c 0.72187,-0.28887 1.58438,-0.25335 1.91667,0.0789 0.33229,0.33229 -0.25834,0.56864 -1.3125,0.52522 -1.16495,-0.048 -1.4019,-0.28494 -0.60417,-0.60416 z M 288.5,461.00837 C 237.86529,443.68402 201.70576,402.43472 190.31237,349 c -2.5731,-12.06781 -2.5731,-43.93219 0,-56 6.34281,-29.74761 20.09147,-55.43532 40.67699,-76 12.6208,-12.60803 24.69937,-21.33891 39.51064,-28.55991 16.92547,-8.25176 34.687,-13.23319 53.09703,-14.8917 l 7.09703,-0.63935 0.62481,8.80233 c 3.38225,47.64946 33.33835,89.97628 77.218,109.10607 14.10708,6.15012 28.06752,9.38012 46.36202,10.72666 l 9.39889,0.69179 -0.59774,13.22396 c -1.34575,29.77262 -10.10818,56.4563 -26.79178,81.58735 -8.09473,12.19335 -28.07442,32.27525 -40.40826,40.61498 -25.24538,17.07007 -51.97756,25.90751 -81.5,26.94322 l -14.5,0.5087 z M 177.07895,96.416667 c 0.048,-1.164943 0.28494,-1.4019 0.60416,-0.604167 0.28887,0.721875 0.25335,1.584375 -0.0789,1.916667 -0.3323,0.332291 -0.56864,-0.258334 -0.52522,-1.3125 z"
         id="path8" />
      <path
         style="fill:#fba515"
         d="m 354,471.95607 -2.5,-3.07176 -16,-0.32434 c -8.8,-0.17839 -19.6,-0.9303 -24,-1.6709 l -8,-1.34654 12.5,-0.6876 c 29.19098,-1.60573 56.1037,-10.6968 80.5,-27.19275 12.33384,-8.33973 32.31353,-28.42163 40.40826,-40.61498 16.69922,-25.15457 25.25165,-51.20315 26.86804,-81.83336 L 464.5,301.5 l 8.40538,-0.76129 c 4.62295,-0.41871 8.67295,-0.49332 9,-0.16581 0.32704,0.32751 0.59462,9.67009 0.59462,20.76129 0,15.68396 -0.40132,22.0271 -1.80572,28.54056 -6.51183,30.20131 -19.28266,53.82139 -40.64297,75.17051 C 424.02339,441.0648 407.57762,451.75491 387,459.5298 c -8.62041,3.25706 -11.76447,5.65046 -12.19545,9.28371 -0.25353,2.13727 -1.08446,2.76535 -4.96007,3.74922 -2.56054,0.65001 -6.61054,1.47058 -9,1.82347 -3.99574,0.59012 -4.54516,0.39505 -6.84448,-2.43013 z"
         id="path7" />
      <path
         style="fill:#fa4753"
         d="M 117.81396,467.99242 C 90.29241,463.61439 68.203916,449.30357 50.869268,424.61993 36.969775,404.82777 24.507605,370.5131 19.033633,336.96031 14.920459,311.74855 14.071049,274.30249 17.107247,252.03599 24.202099,200.00462 53.412897,167.50146 99.5,160.35672 c 16.74935,-2.5966 29.7211,-1.10416 62.5,7.19082 12.3441,3.12378 16.20985,3.68023 26,3.74253 10.4516,0.0665 13.23215,-0.35277 30.5,-4.59916 33.16789,-8.15641 48.17463,-9.29074 66.81722,-5.05057 l 7.10745,1.61656 -8.96233,2.90394 c -12.32799,3.99447 -31.08636,13.5465 -42.43624,21.60915 -12.18506,8.65595 -29.67478,26.12204 -38.28173,38.23001 -7.72738,10.87062 -18.47612,31.7964 -22.29835,43.4107 -6.81386,20.70477 -9.54952,43.96217 -7.62673,64.8393 2.16047,23.45785 6.43124,38.61308 16.69678,59.25 14.28563,28.71858 35.53908,51.65134 63.01842,67.99773 l 10.60001,6.30554 -9.81725,0.74265 C 241.26693,469.45751 227.9765,468.02793 211,463.99408 c -14.4915,-3.44338 -27.2016,-3.90952 -38.5,-1.41199 -3.85,0.85105 -11.05,2.4291 -16,3.50678 -10.32265,2.24737 -30.33463,3.23206 -38.68604,1.90355 z"
         id="path6" />
      <path
         style="fill:#93d227"
         d="M 447,285.33179 C 419.5962,280.99276 400.06648,271.69366 382.05987,254.41047 371.52922,244.3029 364.46408,234.90348 358.56607,223.15443 351.18475,208.45058 346.46463,189.31653 347.18038,177 l 0.31962,-5.5 7.98029,-2.26885 c 24.38671,-6.93328 53.69927,-3.82662 78.01971,8.26886 13.22276,6.57618 21.56953,12.71046 31.64651,23.25792 18.98471,19.87107 28.9075,42.45513 31.35475,71.36277 l 0.64515,7.6207 -7.82321,2.10428 c -13.48466,3.6271 -31.86901,5.1414 -42.3232,3.48611 z m -5.01181,-14.81922 c 2.46724,-2.62626 2.72401,-5.28056 1.44047,-14.89045 -0.76655,-5.73914 -2.04902,-6.22055 13.51594,5.07355 12.21228,8.86137 15.06208,9.81005 18.85473,6.27665 3.04867,-2.84027 3.75419,-6.4786 1.82671,-9.42031 -0.87694,-1.33838 -6.77655,-6.13959 -13.11024,-10.66935 C 458.18211,242.3529 453,238.37884 453,238.05142 c 0,-0.32742 3.0375,-1.17084 6.75,-1.87426 8.26908,-1.56677 10.87035,-3.17213 11.76888,-7.26312 0.89122,-4.05772 -2.02662,-8.27379 -6.05462,-8.74849 -1.56088,-0.18395 -9.17755,0.9016 -16.92595,2.41234 l -14.08799,2.74679 -10.72516,-7.77796 C 417.82632,213.26884 413,209.62769 413,209.45528 c 0,-0.17242 2.5875,-0.81162 5.75,-1.42045 8.24637,-1.58755 12.08631,-3.53447 12.83215,-6.50613 0.94448,-3.7631 -0.28826,-7.29003 -3.21927,-9.2105 -2.49228,-1.63301 -3.27878,-1.57422 -18.12027,1.35449 l -15.51491,3.06159 -9.40705,-6.81346 c -10.68711,-7.74061 -12.05466,-8.35265 -15.62777,-6.99415 -3.26404,1.24098 -4.89848,4.27899 -4.50279,8.36954 0.26793,2.76984 1.67737,4.21966 10.40557,10.70379 l 10.09567,7.5 1.78131,14.5 c 0.97972,7.975 2.42271,15.53259 3.20663,16.79463 3.04975,4.9098 9.57752,4.79548 12.86729,-0.22534 1.42392,-2.17318 1.50856,-3.5871 0.61502,-10.27403 -0.56987,-4.26472 -0.95186,-7.8282 -0.84886,-7.91885 0.10301,-0.0906 4.23728,2.75527 9.18728,6.32427 4.95,3.56899 9.86749,7.10728 10.92776,7.86286 1.56507,1.11531 2.26317,3.96666 3.71046,15.15512 0.98049,7.57974 1.80049,14.36429 1.82224,15.07679 0.0217,0.7125 1.14409,2.4 2.49409,3.75 3.22315,3.22316 7.48726,3.20985 10.53364,-0.0329 z"
         id="path5" />
      <path
         style="fill:#c76c35"
         d="m 119.75,468.33772 c 0.6875,-0.27741 1.8125,-0.27741 2.5,0 0.6875,0.27741 0.125,0.50439 -1.25,0.50439 -1.375,0 -1.9375,-0.22698 -1.25,-0.50439 z m 22.0625,-0.0208 c 0.72187,-0.28887 1.58437,-0.25335 1.91667,0.0789 0.33229,0.33229 -0.25834,0.56864 -1.3125,0.52522 -1.16495,-0.048 -1.4019,-0.28494 -0.60417,-0.60416 z m 92,0 c 0.72187,-0.28887 1.58437,-0.25335 1.91667,0.0789 0.33229,0.33229 -0.25834,0.56864 -1.3125,0.52522 -1.16495,-0.048 -1.4019,-0.28494 -0.60417,-0.60416 z m 20.9375,0.0208 c 0.6875,-0.27741 1.8125,-0.27741 2.5,0 0.6875,0.27741 0.125,0.50439 -1.25,0.50439 -1.375,0 -1.9375,-0.22698 -1.25,-0.50439 z m 68,0 c 0.6875,-0.27741 1.8125,-0.27741 2.5,0 0.6875,0.27741 0.125,0.50439 -1.25,0.50439 -1.375,0 -1.9375,-0.22698 -1.25,-0.50439 z m 24.0625,-0.0208 c 0.72187,-0.28887 1.58438,-0.25335 1.91667,0.0789 0.33229,0.33229 -0.25834,0.56864 -1.3125,0.52522 -1.16495,-0.048 -1.4019,-0.28494 -0.60417,-0.60416 z m -197,-1 c 0.72187,-0.28887 1.58437,-0.25335 1.91667,0.0789 0.33229,0.33229 -0.25834,0.56864 -1.3125,0.52522 -1.16495,-0.048 -1.4019,-0.28494 -0.60417,-0.60416 z m 29,-6 c 0.72187,-0.28887 1.58437,-0.25335 1.91667,0.0789 0.33229,0.33229 -0.25834,0.56864 -1.3125,0.52522 -1.16495,-0.048 -1.4019,-0.28494 -0.60417,-0.60416 z m 17.9375,0.0208 c 0.6875,-0.27741 1.8125,-0.27741 2.5,0 0.6875,0.27741 0.125,0.50439 -1.25,0.50439 -1.375,0 -1.9375,-0.22698 -1.25,-0.50439 z M 71.872445,448.25 c -1.243871,-1.58606 -1.208501,-1.62143 0.377555,-0.37756 0.9625,0.75485 1.75,1.54235 1.75,1.75 0,0.82304 -0.821186,0.29331 -2.127555,-1.37244 z m 148.098665,-12 -6.47111,-6.75 6.75,6.47111 c 6.26969,6.01065 7.20713,7.02889 6.47111,7.02889 -0.15339,0 -3.19089,-3.0375 -6.75,-6.75 z m 18.90133,-3 c -1.24387,-1.58606 -1.2085,-1.62143 0.37756,-0.37756 0.9625,0.75485 1.75,1.54235 1.75,1.75 0,0.82304 -0.82119,0.29331 -2.12756,-1.37244 z M 439.5,426 c 0.99549,-1.1 2.03498,-2 2.30998,-2 0.275,0 -0.31449,0.9 -1.30998,2 -0.99549,1.1 -2.03498,2 -2.30998,2 -0.275,0 0.31449,-0.9 1.30998,-2 z m -216.62756,-8.75 c -1.24387,-1.58606 -1.2085,-1.62143 0.37756,-0.37756 0.9625,0.75485 1.75,1.54235 1.75,1.75 0,0.82304 -0.82119,0.29331 -2.12756,-1.37244 z m -49.79349,-76.83333 c 0.048,-1.16495 0.28494,-1.4019 0.60416,-0.60417 0.28887,0.72187 0.25335,1.58438 -0.0789,1.91667 -0.3323,0.33229 -0.56864,-0.25834 -0.52522,-1.3125 z m 15,-3 c 0.048,-1.16495 0.28494,-1.4019 0.60416,-0.60417 0.28887,0.72187 0.25335,1.58438 -0.0789,1.91667 -0.3323,0.33229 -0.56864,-0.25834 -0.52522,-1.3125 z M 172.28601,327.5 c 0.008,-2.75 0.20172,-3.75631 0.43157,-2.23625 0.22986,1.52006 0.22371,3.77006 -0.0136,5 -0.23736,1.22994 -0.42542,-0.0138 -0.41792,-2.76375 z m 325.79294,2.91667 c 0.048,-1.16495 0.28494,-1.4019 0.60416,-0.60417 0.28887,0.72187 0.25335,1.58438 -0.0789,1.91667 -0.33229,0.33229 -0.56864,-0.25834 -0.52522,-1.3125 z m -481.000003,-2 c 0.04798,-1.16495 0.284941,-1.4019 0.604167,-0.60417 0.288871,0.72187 0.253344,1.58438 -0.07895,1.91667 -0.332292,0.33229 -0.568641,-0.25834 -0.52522,-1.3125 z M 483.34941,321 c 0,-4.675 0.17226,-6.5875 0.3828,-4.25 0.21053,2.3375 0.21053,6.1625 0,8.5 -0.21054,2.3375 -0.3828,0.425 -0.3828,-4.25 z m -296.07705,0 c 0,-2.475 0.19502,-3.4875 0.43337,-2.25 0.23836,1.2375 0.23836,3.2625 0,4.5 -0.23835,1.2375 -0.43337,0.225 -0.43337,-2.25 z M 16.194949,319.5 c 0.02038,-1.65 0.244498,-2.20394 0.498042,-1.23097 0.253543,0.97297 0.236869,2.32297 -0.03705,3 C 16.382014,321.94606 16.174569,321.15 16.194949,319.5 Z m 156.091061,-5 c 0.008,-2.75 0.20172,-3.75631 0.43157,-2.23625 0.22986,1.52006 0.22371,3.77006 -0.0136,5 -0.23736,1.22994 -0.42542,-0.0138 -0.41792,-2.76375 z M 0.07894737,307.41667 c 0.04798392,-1.16495 0.2849403,-1.4019 0.60416667,-0.60417 0.28887061,0.72187 0.25334429,1.58438 -0.0789474,1.91667 -0.33229167,0.33229 -0.56864035,-0.25834 -0.52521927,-1.3125 z M 15.252183,304.5 c 0.0111,-2.2 0.215885,-2.98225 0.455078,-1.73834 0.239193,1.24391 0.230112,3.04391 -0.02018,4 C 15.436788,307.71775 15.241084,306.7 15.252183,304.5 Z m 172.826767,-0.0833 c 0.048,-1.16495 0.28494,-1.4019 0.60416,-0.60417 0.28887,0.72187 0.25335,1.58438 -0.0789,1.91667 -0.3323,0.33229 -0.56864,-0.25834 -0.52522,-1.3125 z m -15,-3 c 0.048,-1.16495 0.28494,-1.4019 0.60416,-0.60417 0.28887,0.72187 0.25335,1.58438 -0.0789,1.91667 -0.3323,0.33229 -0.56864,-0.25834 -0.52522,-1.3125 z M 457.25,301.28375 c 1.5125,-0.22913 3.9875,-0.22913 5.5,0 1.5125,0.22912 0.275,0.41659 -2.75,0.41659 -3.025,0 -4.2625,-0.18747 -2.75,-0.41659 z M 15.252183,268.5 c 0.0111,-2.2 0.215885,-2.98225 0.455078,-1.73834 0.239193,1.24391 0.230112,3.04391 -0.02018,4 C 15.436788,271.71775 15.241084,270.7 15.252183,268.5 Z m 352.620257,-5.25 c -1.24387,-1.58606 -1.2085,-1.62143 0.37756,-0.37756 1.66575,1.30637 2.19548,2.12756 1.37244,2.12756 -0.20765,0 -0.99515,-0.7875 -1.75,-1.75 z M 16.078947,255.41667 c 0.04798,-1.16495 0.284941,-1.4019 0.604167,-0.60417 0.288871,0.72187 0.253344,1.58438 -0.07895,1.91667 -0.332292,0.33229 -0.568641,-0.25834 -0.52522,-1.3125 z M 213,212.68709 c 0,-0.1721 1.4625,-1.6346 3.25,-3.25 l 3.25,-2.93709 -2.93709,3.25 C 213.82513,212.77946 213,213.45965 213,212.68709 Z m 25,-3.06465 c 0,-0.20765 0.7875,-0.99515 1.75,-1.75 1.58606,-1.24387 1.62143,-1.2085 0.37756,0.37756 C 238.82119,209.91575 238,210.44548 238,209.62244 Z m -17,-4.93535 c 0,-0.1721 1.4625,-1.6346 3.25,-3.25 l 3.25,-2.93709 -2.93709,3.25 C 221.82513,204.77946 221,205.45965 221,204.68709 Z M 331.15789,183 c 0,-1.375 0.22698,-1.9375 0.50439,-1.25 0.27741,0.6875 0.27741,1.8125 0,2.5 -0.27741,0.6875 -0.50439,0.125 -0.50439,-1.25 z M 51,181.62244 c 0,-0.20765 0.7875,-0.99515 1.75,-1.75 1.586056,-1.24387 1.621426,-1.2085 0.377555,0.37756 C 51.821186,181.91575 51,182.44548 51,181.62244 Z m 271.8125,-8.30555 c 0.72187,-0.28887 1.58438,-0.25335 1.91667,0.0789 0.33229,0.33229 -0.25834,0.56864 -1.3125,0.52522 -1.16495,-0.048 -1.4019,-0.28494 -0.60417,-0.60416 z m -137.04459,-2.04162 c 1.79735,-0.22256 4.49735,-0.21797 6,0.0102 1.50265,0.22818 0.0321,0.41027 -3.26791,0.40466 -3.3,-0.006 -4.52944,-0.1923 -2.73209,-0.41486 z M 95.8125,160.31689 c 0.721875,-0.28887 1.584375,-0.25335 1.916667,0.0789 0.332291,0.33229 -0.258334,0.56864 -1.3125,0.52522 -1.164943,-0.048 -1.4019,-0.28494 -0.604167,-0.60416 z m 149,0 c 0.72187,-0.28887 1.58437,-0.25335 1.91667,0.0789 0.33229,0.33229 -0.25834,0.56864 -1.3125,0.52522 -1.16495,-0.048 -1.4019,-0.28494 -0.60417,-0.60416 z M 102.75,159.33772 c 0.6875,-0.27741 1.8125,-0.27741 2.5,0 0.6875,0.27741 0.125,0.50439 -1.25,0.50439 -1.375,0 -1.9375,-0.22698 -1.25,-0.50439 z m 20,0 c 0.6875,-0.27741 1.8125,-0.27741 2.5,0 0.6875,0.27741 0.125,0.50439 -1.25,0.50439 -1.375,0 -1.9375,-0.22698 -1.25,-0.50439 z m 130.0625,-0.0208 c 0.72187,-0.28887 1.58437,-0.25335 1.91667,0.0789 0.33229,0.33229 -0.25834,0.56864 -1.3125,0.52522 -1.16495,-0.048 -1.4019,-0.28494 -0.60417,-0.60416 z m 18.9375,0.0208 c 0.6875,-0.27741 1.8125,-0.27741 2.5,0 0.6875,0.27741 0.125,0.50439 -1.25,0.50439 -1.375,0 -1.9375,-0.22698 -1.25,-0.50439 z M 178.47141,148.75 c 0.37091,-3.9875 1.32623,-12.875 2.12293,-19.75 2.91388,-25.14479 2.90106,-24.5046 0.53791,-26.86775 C 179.95951,100.95951 178.01399,100 176.80887,100 c -1.91844,0 -1.99694,-0.155566 -0.63075,-1.25 1.35902,-1.088701 4.66424,-15.823162 4.03773,-18 -0.11872,-0.4125 1.06441,-0.75 2.62916,-0.75 4.177,0 5.5503,-2.253805 9.13986,-15 3.98886,-14.164072 6.12975,-18.49079 10.18769,-20.589234 4.3594,-2.254333 10.25961,-1.328961 13.92657,2.184204 4.76777,4.567817 4.70984,7.724695 -0.43489,23.699403 -5.58339,17.336764 -7.83742,25.629784 -11.19963,41.205627 -2.13944,9.91119 -7.45276,41.06328 -7.46202,43.75 -0.001,0.4125 -4.32326,0.75 -9.60408,0.75 h -9.60149 z"
         id="path4" />
      <path
         style="fill:#6d9c1d"
         d="m 141.8125,483.31689 c 0.72187,-0.28887 1.58437,-0.25335 1.91667,0.0789 0.33229,0.33229 -0.25834,0.56864 -1.3125,0.52522 -1.16495,-0.048 -1.4019,-0.28494 -0.60417,-0.60416 z m 92,0 c 0.72187,-0.28887 1.58437,-0.25335 1.91667,0.0789 0.33229,0.33229 -0.25834,0.56864 -1.3125,0.52522 -1.16495,-0.048 -1.4019,-0.28494 -0.60417,-0.60416 z m 88,0 c 0.72187,-0.28887 1.58438,-0.25335 1.91667,0.0789 0.33229,0.33229 -0.25834,0.56864 -1.3125,0.52522 -1.16495,-0.048 -1.4019,-0.28494 -0.60417,-0.60416 z M 53.437091,451.75 50.5,448.5 l 3.25,2.93709 C 56.779455,454.17487 57.459652,455 56.687091,455 c -0.1721,0 -1.6346,-1.4625 -3.25,-3.25 z M 446,440.5 c 1.29175,-1.375 2.57363,-2.5 2.84863,-2.5 0.275,0 -0.55688,1.125 -1.84863,2.5 -1.29175,1.375 -2.57363,2.5 -2.84863,2.5 -0.275,0 0.55688,-1.125 1.84863,-2.5 z m 8,-8 c 1.29175,-1.375 2.57363,-2.5 2.84863,-2.5 0.275,0 -0.55688,1.125 -1.84863,2.5 -1.29175,1.375 -2.57363,2.5 -2.84863,2.5 -0.275,0 0.55688,-1.125 1.84863,-2.5 z m -19,-1.87756 c 0,-0.20765 0.7875,-0.99515 1.75,-1.75 1.58606,-1.24387 1.62143,-1.2085 0.37756,0.37756 C 435.82119,430.91575 435,431.44548 435,430.62244 Z M 230.40499,425.75 228.5,423.5 l 2.25,1.90499 c 2.11444,1.79022 2.70524,2.59501 1.90499,2.59501 -0.18976,0 -1.20226,-1.0125 -2.25,-2.25 z M 442,423.62244 c 0,-0.20765 0.7875,-0.99515 1.75,-1.75 1.58606,-1.24387 1.62143,-1.2085 0.37756,0.37756 C 442.82119,423.91575 442,424.44548 442,423.62244 Z m 41.07895,-93.20577 c 0.048,-1.16495 0.28494,-1.4019 0.60416,-0.60417 0.28887,0.72187 0.25335,1.58438 -0.0789,1.91667 -0.33229,0.33229 -0.56864,-0.25834 -0.52522,-1.3125 z M 187.19495,327.5 c 0.0204,-1.65 0.2445,-2.20394 0.49804,-1.23097 0.25354,0.97297 0.23687,2.32297 -0.0371,3 -0.27393,0.67703 -0.48137,-0.11903 -0.46099,-1.76903 z m 311.16001,-7 c -0.003,-4.95 0.16605,-7.10108 0.37577,-4.78017 0.20972,2.3209 0.21222,6.3709 0.006,9 C 498.5296,327.34892 498.358,325.45 498.35496,320.5 Z M 1.0789474,319.41667 c 0.047984,-1.16495 0.2849403,-1.4019 0.6041666,-0.60417 0.2888706,0.72187 0.2533443,1.58438 -0.078947,1.91667 -0.3322917,0.33229 -0.5686404,-0.25834 -0.5252196,-1.3125 z M 187.19495,314.5 c 0.0204,-1.65 0.2445,-2.20394 0.49804,-1.23097 0.25354,0.97297 0.23687,2.32297 -0.0371,3 -0.27393,0.67703 -0.48137,-0.11903 -0.46099,-1.76903 z m 295.884,-3.08333 c 0.048,-1.16495 0.28494,-1.4019 0.60416,-0.60417 0.28887,0.72187 0.25335,1.58438 -0.0789,1.91667 -0.33229,0.33229 -0.56864,-0.25834 -0.52522,-1.3125 z M 0.2320027,303 c 0,-1.925 0.20579527,-2.7125 0.45732281,-1.75 0.25152755,0.9625 0.25152755,2.5375 0,3.5 C 0.43779797,305.7125 0.2320027,304.925 0.2320027,303 Z M 506,291.62244 c 0,-0.20765 0.7875,-0.99515 1.75,-1.75 1.58606,-1.24387 1.62143,-1.2085 0.37756,0.37756 C 506.82119,291.91575 506,292.44548 506,291.62244 Z m -60.25,-6.28472 c 0.6875,-0.27741 1.8125,-0.27741 2.5,0 0.6875,0.27741 0.125,0.50439 -1.25,0.50439 -1.375,0 -1.9375,-0.22698 -1.25,-0.50439 z m 25,0 c 0.6875,-0.27741 1.8125,-0.27741 2.5,0 0.6875,0.27741 0.125,0.50439 -1.25,0.50439 -1.375,0 -1.9375,-0.22698 -1.25,-0.50439 z m -30.9375,-1.02083 c 0.72187,-0.28887 1.58438,-0.25335 1.91667,0.0789 0.33229,0.33229 -0.25834,0.56864 -1.3125,0.52522 -1.16495,-0.048 -1.4019,-0.28494 -0.60417,-0.60416 z m 39,0 c 0.72187,-0.28887 1.58438,-0.25335 1.91667,0.0789 0.33229,0.33229 -0.25834,0.56864 -1.3125,0.52522 -1.16495,-0.048 -1.4019,-0.28494 -0.60417,-0.60416 z M 0.2521834,269.5 c 0.0110994,-2.2 0.21588425,-2.98225 0.45507747,-1.73834 0.23919321,1.24391 0.2301119,3.04391 -0.0201807,4 C 0.43678756,272.71775 0.24108402,271.7 0.2521834,269.5 Z m 495.9999966,0 c 0.0111,-2.2 0.21589,-2.98225 0.45508,-1.73834 0.23919,1.24391 0.23011,3.04391 -0.0202,4 -0.25029,0.95609 -0.446,-0.0617 -0.4349,-2.26166 z m -65.37974,0.75 c -1.24387,-1.58606 -1.2085,-1.62143 0.37756,-0.37756 0.9625,0.75485 1.75,1.54235 1.75,1.75 0,0.82304 -0.82119,0.29331 -2.12756,-1.37244 z m 80.20651,-1.83333 c 0.048,-1.16495 0.28494,-1.4019 0.60416,-0.60417 0.28887,0.72187 0.25335,1.58438 -0.0789,1.91667 -0.33229,0.33229 -0.56864,-0.25834 -0.52522,-1.3125 z m -41.82895,-0.106 c 0.9625,-0.25152 2.5375,-0.25152 3.5,0 0.9625,0.25153 0.175,0.45733 -1.75,0.45733 -1.925,0 -2.7125,-0.2058 -1.75,-0.45733 z M 389.87244,262.25 c -1.24387,-1.58606 -1.2085,-1.62143 0.37756,-0.37756 1.66575,1.30637 2.19548,2.12756 1.37244,2.12756 -0.20765,0 -0.99515,-0.7875 -1.75,-1.75 z M 428.15789,261 c 0,-1.375 0.22698,-1.9375 0.50439,-1.25 0.27741,0.6875 0.27741,1.8125 0,2.5 -0.27741,0.6875 -0.50439,0.125 -0.50439,-1.25 z m 50,0 c 0,-1.375 0.22698,-1.9375 0.50439,-1.25 0.27741,0.6875 0.27741,1.8125 0,2.5 -0.27741,0.6875 -0.50439,0.125 -0.50439,-1.25 z m 16.92106,-0.58333 c 0.048,-1.16495 0.28494,-1.4019 0.60416,-0.60417 0.28887,0.72187 0.25335,1.58438 -0.0789,1.91667 -0.33229,0.33229 -0.56864,-0.25834 -0.52522,-1.3125 z M 379.47318,252.75 372.5,245.5 l 7.25,6.97318 c 6.7338,6.47669 7.70669,7.52682 6.97318,7.52682 -0.15225,0 -3.41475,-3.2625 -7.25,-7.25 z m 63.68471,5.25 c 0,-1.375 0.22698,-1.9375 0.50439,-1.25 0.27741,0.6875 0.27741,1.8125 0,2.5 -0.27741,0.6875 -0.50439,0.125 -0.50439,-1.25 z m -16,-5 c 0,-1.375 0.22698,-1.9375 0.50439,-1.25 0.27741,0.6875 0.27741,1.8125 0,2.5 -0.27741,0.6875 -0.50439,0.125 -0.50439,-1.25 z M 442,250.83333 C 442,250.375 442.42344,250 442.94098,250 c 0.51754,0 1.17275,0.375 1.45601,0.83333 0.28327,0.45834 -0.14017,0.83334 -0.94098,0.83334 -0.8008,0 -1.45601,-0.375 -1.45601,-0.83334 z M 426.15789,245 c 0,-1.375 0.22698,-1.9375 0.50439,-1.25 0.27741,0.6875 0.27741,1.8125 0,2.5 -0.27741,0.6875 -0.50439,0.125 -0.50439,-1.25 z m 26.30099,-6.06653 c -0.36253,-0.58659 -0.44468,-1.281 -0.18255,-1.54313 0.26212,-0.26213 0.74306,0.21781 1.06875,1.06653 0.67618,1.76211 0.0999,2.07206 -0.8862,0.4766 z m -63.37993,-1.5168 c 0.048,-1.16495 0.28494,-1.4019 0.60416,-0.60417 0.28887,0.72187 0.25335,1.58437 -0.0789,1.91667 -0.33229,0.33229 -0.56864,-0.25834 -0.52522,-1.3125 z M 404.232,236 c 0,-1.925 0.2058,-2.7125 0.45733,-1.75 0.25152,0.9625 0.25152,2.5375 0,3.5 -0.25153,0.9625 -0.45733,0.175 -0.45733,-1.75 z m 52.5805,0.31689 c 0.72187,-0.28887 1.58438,-0.25335 1.91667,0.0789 0.33229,0.33229 -0.25834,0.56864 -1.3125,0.52522 -1.16495,-0.048 -1.4019,-0.28494 -0.60417,-0.60416 z M 468,233.62244 c 0,-0.20765 0.7875,-0.99515 1.75,-1.75 1.58606,-1.24387 1.62143,-1.2085 0.37756,0.37756 C 468.82119,233.91575 468,234.44548 468,233.62244 Z m 17.62354,-3.1611 c -0.96498,-2.51469 -0.68031,-3.16355 0.49853,-1.13634 0.58369,1.00375 0.8506,2.03566 0.59313,2.29313 -0.25747,0.25747 -0.74872,-0.26309 -1.09166,-1.15679 z m -97.54459,-1.04467 c 0.048,-1.16495 0.28494,-1.4019 0.60416,-0.60417 0.28887,0.72187 0.25335,1.58437 -0.0789,1.91667 -0.33229,0.33229 -0.56864,-0.25834 -0.52522,-1.3125 z M 403.15789,227 c 0,-1.375 0.22698,-1.9375 0.50439,-1.25 0.27741,0.6875 0.27741,1.8125 0,2.5 -0.27741,0.6875 -0.50439,0.125 -0.50439,-1.25 z m 68,0 c 0,-1.375 0.22698,-1.9375 0.50439,-1.25 0.27741,0.6875 0.27741,1.8125 0,2.5 -0.27741,0.6875 -0.50439,0.125 -0.50439,-1.25 z m -84,-5 c 0,-1.375 0.22698,-1.9375 0.50439,-1.25 0.27741,0.6875 0.27741,1.8125 0,2.5 -0.27741,0.6875 -0.50439,0.125 -0.50439,-1.25 z M 231,215.5 c 1.86578,-1.925 3.61733,-3.5 3.89233,-3.5 0.275,0 -1.02655,1.575 -2.89233,3.5 -1.86578,1.925 -3.61733,3.5 -3.89233,3.5 -0.275,0 1.02655,-1.575 2.89233,-3.5 z M 386.15789,214 c 0,-1.375 0.22698,-1.9375 0.50439,-1.25 0.27741,0.6875 0.27741,1.8125 0,2.5 -0.27741,0.6875 -0.50439,0.125 -0.50439,-1.25 z m 85.71455,-5.75 c -1.24387,-1.58606 -1.2085,-1.62143 0.37756,-0.37756 1.66575,1.30637 2.19548,2.12756 1.37244,2.12756 -0.20765,0 -0.99515,-0.7875 -1.75,-1.75 z m -8.90133,-10 -6.47111,-6.75 6.75,6.47111 c 6.26969,6.01065 7.20713,7.02889 6.47111,7.02889 -0.15339,0 -3.19089,-3.0375 -6.75,-6.75 z m -66.15861,-1.93311 c 0.72187,-0.28887 1.58438,-0.25335 1.91667,0.0789 0.33229,0.33229 -0.25834,0.56864 -1.3125,0.52522 -1.16495,-0.048 -1.4019,-0.28494 -0.60417,-0.60416 z m 5,-1 c 0.72187,-0.28887 1.58438,-0.25335 1.91667,0.0789 0.33229,0.33229 -0.25834,0.56864 -1.3125,0.52522 -1.16495,-0.048 -1.4019,-0.28494 -0.60417,-0.60416 z m 5,-1 c 0.72187,-0.28887 1.58438,-0.25335 1.91667,0.0789 0.33229,0.33229 -0.25834,0.56864 -1.3125,0.52522 -1.16495,-0.048 -1.4019,-0.28494 -0.60417,-0.60416 z M 428.87244,193.25 c -1.24387,-1.58606 -1.2085,-1.62143 0.37756,-0.37756 1.66575,1.30637 2.19548,2.12756 1.37244,2.12756 -0.20765,0 -0.99515,-0.7875 -1.75,-1.75 z m -17.05994,0.0669 c 0.72187,-0.28887 1.58438,-0.25335 1.91667,0.0789 0.33229,0.33229 -0.25834,0.56864 -1.3125,0.52522 -1.16495,-0.048 -1.4019,-0.28494 -0.60417,-0.60416 z m 5,-1 c 0.72187,-0.28887 1.58438,-0.25335 1.91667,0.0789 0.33229,0.33229 -0.25834,0.56864 -1.3125,0.52522 -1.16495,-0.048 -1.4019,-0.28494 -0.60417,-0.60416 z m 5.4375,-1.00622 c 0.9625,-0.25152 2.5375,-0.25152 3.5,0 0.9625,0.25153 0.175,0.45733 -1.75,0.45733 -1.925,0 -2.7125,-0.2058 -1.75,-0.45733 z M 347.15789,189 c 0,-1.375 0.22698,-1.9375 0.50439,-1.25 0.27741,0.6875 0.27741,1.8125 0,2.5 -0.27741,0.6875 -0.50439,0.125 -0.50439,-1.25 z m 105.71455,0.25 c -1.24387,-1.58606 -1.2085,-1.62143 0.37756,-0.37756 1.66575,1.30637 2.19548,2.12756 1.37244,2.12756 -0.20765,0 -0.99515,-0.7875 -1.75,-1.75 z M 366,185.62244 c 0,-0.20765 0.7875,-0.99515 1.75,-1.75 1.58606,-1.24387 1.62143,-1.2085 0.37756,0.37756 C 366.82119,185.91575 366,186.44548 366,185.62244 Z M 467.87244,182.25 c -1.24387,-1.58606 -1.2085,-1.62143 0.37756,-0.37756 1.66575,1.30637 2.19548,2.12756 1.37244,2.12756 -0.20765,0 -0.99515,-0.7875 -1.75,-1.75 z m -96.05994,0.0669 c 0.72187,-0.28887 1.58438,-0.25335 1.91667,0.0789 0.33229,0.33229 -0.25834,0.56864 -1.3125,0.52522 -1.16495,-0.048 -1.4019,-0.28494 -0.60417,-0.60416 z m -25.6965,-5.00787 c -0.0638,-2.85504 0.22978,-5.40469 0.6524,-5.66589 0.42263,-0.26119 0.62382,1.39975 0.4471,3.69099 -0.51902,6.72937 -0.97495,7.5483 -1.0995,1.9749 z M 331.27236,177 c 0,-2.475 0.19502,-3.4875 0.43337,-2.25 0.23836,1.2375 0.23836,3.2625 0,4.5 -0.23835,1.2375 -0.43337,0.225 -0.43337,-2.25 z m 78.54014,-8.68311 c 0.72187,-0.28887 1.58438,-0.25335 1.91667,0.0789 0.33229,0.33229 -0.25834,0.56864 -1.3125,0.52522 -1.16495,-0.048 -1.4019,-0.28494 -0.60417,-0.60416 z m -44,-2 c 0.72187,-0.28887 1.58438,-0.25335 1.91667,0.0789 0.33229,0.33229 -0.25834,0.56864 -1.3125,0.52522 -1.16495,-0.048 -1.4019,-0.28494 -0.60417,-0.60416 z m 34,0 c 0.72187,-0.28887 1.58438,-0.25335 1.91667,0.0789 0.33229,0.33229 -0.25834,0.56864 -1.3125,0.52522 -1.16495,-0.048 -1.4019,-0.28494 -0.60417,-0.60416 z m -25.54875,-1.03447 c 1.52006,-0.22986 3.77006,-0.22371 5,0.0136 1.22994,0.23736 -0.0138,0.42542 -2.76375,0.41792 -2.75,-0.008 -3.75631,-0.20172 -2.23625,-0.43157 z m 14.48625,0.0119 c 1.2375,-0.23836 3.2625,-0.23836 4.5,0 1.2375,0.23835 0.225,0.43337 -2.25,0.43337 -2.475,0 -3.4875,-0.19502 -2.25,-0.43337 z m -66.9375,-6.97738 c 0.72187,-0.28887 1.58438,-0.25335 1.91667,0.0789 0.33229,0.33229 -0.25834,0.56864 -1.3125,0.52522 -1.16495,-0.048 -1.4019,-0.28494 -0.60417,-0.60416 z m -158.73355,-8.90022 c 0.048,-1.16495 0.28494,-1.4019 0.60416,-0.60417 0.28887,0.72187 0.25335,1.58437 -0.0789,1.91667 -0.3323,0.33229 -0.56864,-0.25834 -0.52522,-1.3125 z m 211.73355,0.90022 c 0.72187,-0.28887 1.58438,-0.25335 1.91667,0.0789 0.33229,0.33229 -0.25834,0.56864 -1.3125,0.52522 -1.16495,-0.048 -1.4019,-0.28494 -0.60417,-0.60416 z m 15.45653,-0.01 c 0.97297,-0.25354 2.32297,-0.23687 3,0.0371 0.67703,0.27393 -0.11903,0.48137 -1.76903,0.46099 -1.65,-0.0204 -2.20394,-0.2445 -1.23097,-0.49804 z M 102.8125,144.31689 c 0.72187,-0.28887 1.58437,-0.25335 1.91667,0.0789 0.33229,0.33229 -0.25834,0.56864 -1.3125,0.52522 -1.16495,-0.048 -1.4019,-0.28494 -0.60417,-0.60416 z m 170,0 c 0.72187,-0.28887 1.58438,-0.25335 1.91667,0.0789 0.33229,0.33229 -0.25834,0.56864 -1.3125,0.52522 -1.16495,-0.048 -1.4019,-0.28494 -0.60417,-0.60416 z m -108.73355,-5.90022 c 0.048,-1.16495 0.28494,-1.4019 0.60416,-0.60417 0.28887,0.72187 0.25335,1.58437 -0.0789,1.91667 -0.3323,0.33229 -0.56864,-0.25834 -0.52522,-1.3125 z m 1,-10 c 0.048,-1.16495 0.28494,-1.4019 0.60416,-0.60417 0.28887,0.72187 0.25335,1.58437 -0.0789,1.91667 -0.3323,0.33229 -0.56864,-0.25834 -0.52522,-1.3125 z M 215.87244,46.25 C 214.62857,44.663944 214.66394,44.628574 216.25,45.872445 217.91575,47.178814 218.44548,48 217.62244,48 c -0.20765,0 -0.99515,-0.7875 -1.75,-1.75 z"
         id="path3" />
      <path
         style="fill:#030302"
         d="m 120,483.47411 c -0.825,-0.16164 -4.875,-0.84129 -9,-1.51034 C 76.844437,476.42396 46.392626,451.7347 27.59751,414.34397 7.2735799,373.91183 -2.7174315,318.31461 0.89016784,265.725 3.6715118,225.18009 14.506154,197.4591 35.973712,175.96196 54.205754,157.7048 75.79462,147.7019 103.29302,144.77051 c 13.15216,-1.40205 27.18987,-0.10566 46.20198,4.26678 7.01059,1.61231 13.07965,2.72559 13.48679,2.47397 0.40713,-0.25163 1.04675,-4.6321 1.42136,-9.73438 0.37461,-5.10228 1.50926,-15.77741 2.52145,-23.72251 1.59027,-12.48264 2.14315,-14.69081 4.06866,-16.25 3.06611,-2.482778 7.47153,-2.287595 10.05812,0.44563 1.83884,1.94308 2.04342,3.00024 1.49979,7.75 -2.29884,20.085 -3.52558,31.49434 -4.11266,38.25 l -0.67349,7.75 h 9.57218 9.57217 l 0.53929,-3.25 c 0.2966,-1.7875 1.45036,-9.1 2.56389,-16.25 3.62085,-23.2494 9.70689,-48.581331 16.4444,-68.446484 C 218.40563,62.30795 220,56.323103 220,54.753856 c 0,-9.577927 -10.85568,-14.974816 -19.10212,-9.496595 -2.92526,1.943292 -3.84804,3.647179 -6.63431,12.25 -1.78003,5.496006 -3.71627,11.928975 -4.30275,14.295486 -0.58647,2.366512 -1.94258,5.179012 -3.01357,6.25 -2.57854,2.578546 -7.40084,2.493662 -10.07179,-0.177288 -1.76768,-1.767682 -2.02851,-2.901479 -1.55281,-6.75 0.82858,-6.70354 7.43103,-26.775 10.30528,-31.328107 4.65541,-7.374658 15.68883,-12.506811 24.62108,-11.45241 13.62332,1.608155 23.08647,11.291474 24.41216,24.980126 0.42004,4.337159 -0.30081,7.603292 -4.4527,20.174932 -2.72463,8.25 -6.5956,21.575088 -8.60216,29.61131 -4.32586,17.32499 -9.7023,48.24818 -8.47106,48.72229 0.47648,0.18348 5.70348,-0.7988 11.61554,-2.18283 18.15617,-4.25043 32.52183,-5.97675 43.99351,-5.28671 16.48236,0.99143 32.40735,5.12815 45.79112,11.8948 4.75901,2.40609 5.44077,2.48 16.46458,1.78481 7.26453,-0.45813 14.99887,-1.68639 21,-3.33494 51.34021,-14.10352 107.77843,7.58201 138.6945,53.29127 7.84929,11.60513 15.60338,30.71534 18.66481,46 2.25224,11.24464 3.04495,24.79981 1.73444,29.65865 -1.27009,4.70905 -6.36337,9.80252 -10.76947,10.76989 L 497.5,295.04862 v 24.22569 c 0,21.7665 -0.23798,25.289 -2.34437,34.70047 -8.03758,35.91238 -24.92993,64.8822 -52.15563,89.44519 -13.88421,12.52631 -36.88507,25.90606 -54.2168,31.53827 -5.84528,1.89951 -7.07326,2.01139 -9.46413,0.86224 -1.69171,-0.8131 -3.10142,-2.55716 -3.66884,-4.539 -1.44359,-5.04205 0.84295,-7.49021 10.01909,-10.72731 41.94322,-14.79644 76.34391,-50.04722 90.70859,-92.95011 5.25757,-15.70278 6.94009,-26.60986 7.03481,-45.60406 0.048,-9.625 -0.26031,-18.74354 -0.68514,-20.26342 -0.68141,-2.43782 -1.09381,-2.67348 -3.5,-2 -1.50017,0.41988 -10.82758,0.72359 -20.72758,0.67491 -16.79413,-0.0826 -18.79311,-0.29721 -29.83878,-3.20373 -13.65069,-3.59199 -30.80565,-11.44138 -42.39968,-19.4003 C 376.43844,271.06424 361.88905,256.68783 355.08338,247 341.10112,227.09635 332,200.56946 332,179.71927 v -7.01876 l -8.98451,0.63774 c -36.43656,2.58634 -73.50699,21.15316 -98.15611,49.16175 -33.02377,37.52463 -45.02354,86.92184 -32.84506,135.20717 13.48613,53.46994 56.25132,95.08329 110.97162,107.98271 8.47782,1.99851 14.17136,2.58506 29.39841,3.02867 16.65273,0.48514 19.10482,0.77062 20.75,2.4158 2.40674,2.40674 2.38459,7.00396 -0.0482,10.00487 -1.8797,2.31864 -2.21438,2.35924 -18.75,2.27447 -17.05128,-0.0874 -27.58469,-1.41318 -41.33614,-5.20266 -6.47537,-1.78441 -6.52653,-1.7823 -13.5,0.55617 -20.01682,6.71242 -40.68649,6.76738 -70.28932,0.18691 C 201.0548,477.14112 193.05461,476 188.5,476 c -4.55461,0 -12.5548,1.14112 -20.71068,2.95411 -7.30913,1.62476 -17.10251,3.42476 -21.76309,4 -7.71894,0.95272 -22.32782,1.24461 -26.02623,0.52 z m 43,-18.53336 c 18.10636,-4.4516 32.13347,-4.64119 48.5,-0.65552 6.05,1.47333 13.925,3.13348 17.5,3.68922 7.01746,1.09088 26.64324,1.18693 31.46215,0.15397 2.83462,-0.60761 2.56684,-0.8631 -6.21943,-5.93396 C 236.26118,451.8167 214.97253,432.70983 203.65104,416.78768 188.05433,394.85302 177.51097,368.61705 173.99823,343 c -1.44921,-10.5685 -1.45948,-34.01715 -0.0193,-44 6.54392,-45.35969 30.42901,-84.5316 67.92508,-111.39819 10.28312,-7.36803 29.82861,-17.32112 41.36088,-21.06208 4.8207,-1.56379 8.57974,-3.02841 8.35344,-3.25472 -1.46568,-1.46568 -12.85566,-3.45941 -22.61835,-3.95917 -14.6798,-0.75147 -24.2952,0.55243 -47.23267,6.40501 -17.50215,4.46574 -18.8747,4.66324 -32.76733,4.71506 -14.02436,0.0523 -15.12326,-0.10081 -33.5,-4.66791 -25.30152,-6.2881 -31.47233,-7.14417 -46.5,-6.45089 -41.162714,1.89897 -72.839389,25.95908 -85.804296,65.17289 -5.961003,18.02972 -8.16024,34.59968 -8.162547,61.5 -0.0027,31.79969 3.403386,57.45353 11.151316,83.98842 16.267779,55.7134 44.793199,88.3838 84.815527,97.1399 13.66274,2.98914 34.51184,2.11205 52,-2.18757 z M 477.67763,284.98226 c 3.3977,-0.55144 9.1352,-1.91613 12.75,-3.03262 l 6.57237,-2.03 v -5.82883 c 0,-3.20586 -0.6711,-9.6772 -1.49133,-14.38076 -8.42994,-48.34086 -45.66919,-85.09214 -94.49454,-93.25632 -12.84187,-2.14731 -30.59091,-1.528 -42.8318,1.49453 -12.9985,3.2096 -12.55748,2.72646 -11.78076,12.90599 3.89092,50.99338 41.7973,93.57228 92.2239,103.59187 8.21906,1.6331 30.41573,1.93783 39.05216,0.53614 z M 432.4826,270.73869 c -2.61802,-2.25193 -2.91717,-3.33891 -4.62981,-16.82309 -1.00702,-7.92858 -2.02552,-14.92281 -2.26334,-15.54274 C 425.16894,237.27668 404.52042,222 403.45929,222 c -0.29213,0 -0.22995,3.98997 0.13819,8.86659 0.61906,8.20063 0.5091,9.02683 -1.46407,11 -2.29272,2.29272 -6.10055,2.75655 -9.16519,1.1164 -2.31912,-1.24115 -3.43611,-5.44139 -4.91527,-18.48299 -1.82164,-16.06126 -1.11629,-14.74065 -12.03785,-22.53819 -11.95259,-8.53365 -13.23336,-10.87204 -8.94252,-16.32695 3.35258,-4.26212 6.43235,-3.49713 17.53962,4.35667 5.43829,3.84535 10.38842,6.99535 11.00028,7 0.61187,0.005 6.63625,-1.11653 13.38752,-2.49153 15.95038,-3.24854 18.28412,-3.22555 20.98394,0.20672 4.23344,5.38193 0.61187,10.45382 -8.76518,12.27534 -10.42728,2.02554 -10.4785,1.7465 1.96436,10.70125 l 11.31688,8.1444 14,-2.87077 c 7.7,-1.57893 14.92765,-2.89016 16.06144,-2.91386 3.28327,-0.0686 6.43856,3.56925 6.43856,7.42329 0,4.64474 -3.15698,6.88396 -11.91105,8.4484 -3.89892,0.69677 -7.08895,1.5843 -7.08895,1.97229 0,0.38798 5.05587,4.27799 11.23528,8.64446 6.1794,4.36647 12.0294,8.73316 13,9.70376 2.32431,2.32431 2.2885,7.98073 -0.064,10.10973 -3.89672,3.52648 -7.6355,2.2039 -20.90082,-7.39358 -6.87864,-4.97672 -12.62193,-8.91422 -12.76285,-8.75 -0.14092,0.16421 0.10437,2.77357 0.54509,5.79857 1.25587,8.61997 1.08201,11.61926 -0.80268,13.84657 -2.82902,3.34333 -6.52522,3.68092 -9.7674,0.89212 z"
         id="path2" />
    </g>
  </g>
</svg>
