<?xml version="1.0" encoding="UTF-8" standalone="no"?>
<!-- Created with Inkscape (http://www.inkscape.org/) -->

<svg
   version="1.1"
   id="svg1"
   width="512"
   height="512"
   viewBox="0 0 512 512"
   sodipodi:docname="hortícolas cores i.svg"
   inkscape:version="1.4 (e7c3feb1, 2024-10-09)"
   xmlns:inkscape="http://www.inkscape.org/namespaces/inkscape"
   xmlns:sodipodi="http://sodipodi.sourceforge.net/DTD/sodipodi-0.dtd"
   xmlns="http://www.w3.org/2000/svg"
   xmlns:svg="http://www.w3.org/2000/svg">
  <defs
     id="defs1" />
  <sodipodi:namedview
     id="namedview1"
     pagecolor="#ffffff"
     bordercolor="#000000"
     borderopacity="0.25"
     inkscape:showpageshadow="2"
     inkscape:pageopacity="0.0"
     inkscape:pagecheckerboard="0"
     inkscape:deskcolor="#d1d1d1"
     inkscape:zoom="0.43664399"
     inkscape:cx="288.56461"
     inkscape:cy="242.7607"
     inkscape:window-width="1104"
     inkscape:window-height="695"
     inkscape:window-x="0"
     inkscape:window-y="25"
     inkscape:window-maximized="0"
     inkscape:current-layer="g1" />
  <g
     inkscape:groupmode="layer"
     inkscape:label="Image"
     id="g1">
    <g
       id="g2"
       transform="translate(2.2901969,-2.2901997)">
      <path
         style="fill:#c7f195"
         d="m 220.97884,489.59718 c 0.97296,-0.25355 2.32296,-0.23687 3,0.0371 0.67703,0.27393 -0.11904,0.48137 -1.76904,0.46099 -1.65,-0.0204 -2.20393,-0.2445 -1.23096,-0.49804 z m 46.54346,-1.99013 c 0.72188,-0.28887 1.58438,-0.25334 1.91667,0.0789 0.33229,0.33229 -0.25833,0.56864 -1.3125,0.52522 -1.16494,-0.048 -1.4019,-0.28494 -0.60417,-0.60417 z m -53,-14 c 0.72188,-0.28887 1.58438,-0.25334 1.91667,0.0789 0.33229,0.33229 -0.25833,0.56864 -1.3125,0.52522 -1.16494,-0.048 -1.4019,-0.28494 -0.60417,-0.60417 z m 8.9375,0.0208 c 0.6875,-0.27741 1.8125,-0.27741 2.5,0 0.6875,0.27741 0.125,0.50438 -1.25,0.50438 -1.375,0 -1.9375,-0.22697 -1.25,-0.50438 z m 23.0625,-1.02084 c 0.72188,-0.28887 1.58438,-0.25334 1.91667,0.0789 0.33229,0.33229 -0.25833,0.56864 -1.3125,0.52522 -1.16494,-0.048 -1.4019,-0.28494 -0.60417,-0.60417 z m -79.44253,-20.31688 c 0,-5.775 0.16527,-8.1375 0.36728,-5.25 0.202,2.8875 0.202,7.6125 0,10.5 -0.20201,2.8875 -0.36728,0.525 -0.36728,-5.25 z m 91.9297,-11 c 0,-3.025 0.18746,-4.2625 0.41659,-2.75 0.22912,1.5125 0.22912,3.9875 0,5.5 -0.22913,1.5125 -0.41659,0.275 -0.41659,-2.75 z M 471.7098,425.91261 c 0,-0.20765 0.7875,-0.99515 1.75,-1.75 1.58606,-1.24387 1.62143,-1.2085 0.37756,0.37756 -1.30637,1.66575 -2.12756,2.19548 -2.12756,1.37244 z m -14.12755,-25.37244 c -1.24387,-1.58606 -1.2085,-1.62143 0.37755,-0.37756 1.66575,1.30637 2.19548,2.12756 1.37245,2.12756 -0.20766,0 -0.99516,-0.7875 -1.75,-1.75 z m -233.56258,-38.75 c 0.006,-3.3 0.1923,-4.52944 0.41487,-2.73209 0.22256,1.79735 0.21796,4.49735 -0.0102,6 -0.22817,1.50265 -0.41027,0.0321 -0.40466,-3.26791 z m 101.94232,-3 c 0.0111,-2.2 0.21588,-2.98225 0.45507,-1.73834 0.2392,1.24391 0.23012,3.04391 -0.0202,4 -0.25029,0.95609 -0.44599,-0.0617 -0.43489,-2.26166 z M 198.5223,342.60705 c 0.72188,-0.28887 1.58438,-0.25334 1.91667,0.0789 0.33229,0.33229 -0.25833,0.56864 -1.3125,0.52522 -1.16494,-0.048 -1.4019,-0.28494 -0.60417,-0.60417 z m 39,0 c 0.72188,-0.28887 1.58438,-0.25334 1.91667,0.0789 0.33229,0.33229 -0.25833,0.56864 -1.3125,0.52522 -1.16494,-0.048 -1.4019,-0.28494 -0.60417,-0.60417 z m -73.09246,-13.07374 c -0.87446,-0.96627 -3.86732,-6.47877 -6.65079,-12.25 -5.38234,-11.15968 -5.81502,-11.89958 -13.56925,-23.20396 -5.62967,-8.20714 -20.35399,-22.60317 -29.15748,-28.5074 -7.46972,-5.00972 -19.342516,-11.58265 -19.342516,-10.70828 0,0.36926 -0.5625,0.20455 -1.25,-0.36602 -0.6875,-0.57057 -1.7,-1.12958 -2.25,-1.24225 -0.55,-0.11266 -2.041795,-0.60092 -3.3151,-1.08503 -1.273305,-0.48411 -2.848305,-0.8846 -3.5,-0.88997 -2.425706,-0.02 -11.311133,-4.79977 -14.966914,-8.05121 -11.631698,-10.34518 -15.605201,-27.33446 -9.302194,-39.77285 3.989451,-7.8728 4.066241,-10.28793 0.470226,-14.78893 -7.149244,-8.94844 -10.556217,-20.98415 -9.51987,-33.63054 1.135627,-13.85787 11.194884,-28.50312 24.418942,-35.55147 8.734046,-4.6552 9.225654,-5.47561 9.780151,-16.32149 0.263579,-5.155558 1.011981,-11.623741 1.663116,-14.373741 0.651136,-2.75 1.23114,-5.225 1.288898,-5.5 0.05776,-0.275 1.530214,-3.372037 3.272125,-6.882303 3.144449,-6.336637 14.444026,-19.060718 16.960616,-19.098788 0.6875,-0.0104 1.25,-0.362673 1.25,-0.782829 0,-0.796882 7.14661,-4.157821 12.75,-5.996125 1.84879,-0.606531 3.25,-0.672536 3.25,-0.153091 0,0.502225 0.70892,0.913136 1.57537,0.913136 3.447,0 22.37362,8.264545 29.69425,12.966366 10.2031,6.553142 16.80694,12.821269 23.40602,22.216172 l 5.39631,7.682538 5.71403,0.638508 c 17.30667,1.933915 29.75393,7.406187 36.33438,15.973927 5.43783,7.08005 6.37697,11.05654 6.39881,27.09384 l 0.0192,14.07135 3.67424,4.29253 c 7.51988,8.78529 10.59915,20.2905 8.80893,32.91321 -1.83893,12.96614 -6.5648,22.6151 -17.60919,35.95326 -9.3577,11.30116 -15.13969,26.00362 -17.37143,44.17206 -0.57248,4.66058 -1.04088,19.1516 -1.04088,32.20229 v 23.72851 l 5.75,0.37144 c 5.63034,0.3637 5.60432,0.37386 -1.25,0.48837 -7.64936,0.12779 -18.66159,0.89241 -24.67309,1.71315 -2.1048,0.28736 -5.73941,0.77835 -8.07691,1.09107 -2.3375,0.31273 -6.05,0.97673 -8.25,1.47556 -6.02398,1.36588 -9.02045,1.14322 -10.77996,-0.80101 z m 26.02996,-37.87032 c 3.23054,-2.03729 2.95786,-4.88989 -2.75236,-28.79341 -2.7487,-11.50632 -4.99194,-21.85632 -4.98498,-23 0.0118,-1.93611 4.10067,-7.49341 16.15254,-21.95329 8.3216,-9.9843 11.66969,-16.75324 9.58393,-19.37612 -0.54671,-0.6875 -0.60142,-1.26595 -0.12157,-1.28544 2.39132,-0.0971 -4.56436,-2.89861 -7.2726,-2.92913 -3.42965,-0.0386 -3.882,0.35901 -13.06259,11.48327 -8.57067,10.3852 -10.34911,12.00043 -11.39509,10.34933 -0.47666,-0.75242 -0.90797,-1.81803 -0.95847,-2.36803 -0.0959,-1.0448 -0.45651,-2.63757 -1.35825,-6 -0.295,-1.1 -1.49689,-6.1983 -2.67086,-11.32955 l -2.13449,-9.32954 3.33279,-4.67046 c 1.83304,-2.56875 3.67251,-5.12045 4.08773,-5.67045 1.08071,-1.43153 12.18172,-14.91564 19.80427,-24.05573 13.83182,-16.58553 14.8947,-18.50507 13.37838,-24.16115 -0.8884,-3.31386 -8.25012,-5.26852 -10.68231,-2.83633 -0.80188,0.80188 -1.72595,1.18999 -2.05348,0.86246 -0.32753,-0.32753 -0.89218,0.2564 -1.25478,1.29762 -0.36261,1.04122 -1.71669,3.01813 -3.00907,4.39313 -1.29239,1.375 -6.46809,7.45 -11.50155,13.5 -11.48561,13.8052 -17.12044,19.67135 -17.99346,18.73211 -0.37427,-0.40266 -2.55562,-7.65531 -4.84743,-16.11699 -5.11314,-18.87837 -5.93393,-20.32057 -11.33427,-19.91539 -2.98774,0.22416 -4.51459,0.98941 -6.02416,3.01927 l -2.02208,2.719 3.68892,15.281 c 4.83084,20.01122 4.79369,19.781 3.19139,19.781 -1.21438,0 -27.82341,-10.08203 -39.80621,-15.08237 -7.482032,-3.1222 -12.082985,-3.23513 -14.781391,-0.36281 -2.508663,2.67035 -2.89342,7.64311 -0.756695,9.77984 1.221347,1.22134 13.512126,6.63375 44.308196,19.51172 6.6,2.75991 13.19188,5.47005 14.64861,6.02252 1.94942,0.73933 3.08029,2.30416 4.28386,5.92778 1.77969,5.35813 6.5847,27.20332 5.98357,27.20332 -0.70384,0 -13.46963,-4.93156 -16.68747,-6.44655 -1.77571,-0.83602 -5.45008,-2.1838 -8.16527,-2.99506 -4.3627,-1.30353 -5.30256,-1.30142 -8.08333,0.0181 -1.73065,0.82125 -3.1855,2.03999 -3.233,2.70832 -0.0475,0.66833 -0.3392,2.31872 -0.64822,3.66753 -0.30903,1.34881 -0.23266,2.69881 0.1697,3 0.40235,0.30119 1.25218,1.44762 1.8885,2.54762 0.63631,1.1 1.68097,1.87678 2.32146,1.72618 0.64048,-0.1506 2.81986,0.62479 4.84306,1.72309 2.02319,1.09831 7.27853,3.39529 11.67853,5.10441 9.72483,3.77748 14.13417,5.66353 17.75,7.5924 1.5125,0.80685 2.77853,1.10405 2.81339,0.66045 0.0893,-1.13692 2.0246,3.74513 2.53412,6.39279 1.35344,7.03313 9.81591,38.09977 11.12747,40.85013 2.54378,5.33437 6.55129,6.27529 12.02502,2.82337 z m 34.61523,14.12718 c 0.003,-5.5 0.17054,-7.62242 0.37318,-4.71648 0.20264,2.90594 0.20051,7.40594 -0.005,10 -0.20524,2.59406 -0.37104,0.21648 -0.36844,-5.28352 z m 15.79267,-6.5 c 0,-1.375 0.22697,-1.9375 0.50438,-1.25 0.27742,0.6875 0.27742,1.8125 0,2.5 -0.27741,0.6875 -0.50438,0.125 -0.50438,-1.25 z m -122.21173,-9.75 -3.44617,-3.75 3.75,3.44617 c 3.49042,3.20761 4.20979,4.05383 3.44617,4.05383 -0.16711,0 -1.85461,-1.6875 -3.75,-3.75 z m 348.13278,2.16667 c 0.048,-1.16495 0.28494,-1.4019 0.60417,-0.60417 0.28887,0.72187 0.25334,1.58437 -0.079,1.91667 -0.33229,0.33229 -0.56864,-0.25834 -0.52522,-1.3125 z M 225.8677,273.29017 c 0,-1.375 0.22697,-1.9375 0.50438,-1.25 0.27742,0.6875 0.27742,1.8125 0,2.5 -0.27741,0.6875 -0.50438,0.125 -0.50438,-1.25 z m 246.09429,-29.5 c 0.0111,-2.2 0.21588,-2.98225 0.45507,-1.73834 0.2392,1.24391 0.23012,3.04391 -0.0202,4 -0.25029,0.95609 -0.44599,-0.0617 -0.43489,-2.26166 z m -237.22156,-1 c 0,-0.55 0.43622,-1.675 0.96937,-2.5 0.53316,-0.825 0.96938,-1.05 0.96938,-0.5 0,0.55 -0.43622,1.675 -0.96938,2.5 -0.53315,0.825 -0.96937,1.05 -0.96937,0.5 z m 17.96937,-28.87756 c 0,-0.20765 0.7875,-0.99515 1.75,-1.75 1.58606,-1.24387 1.62143,-1.2085 0.37756,0.37756 -1.30637,1.66575 -2.12756,2.19548 -2.12756,1.37244 z m 11,-12.56342 c 0,-0.51754 0.44485,-1.21592 0.98855,-1.55194 0.56686,-0.35034 0.73451,0.0511 0.39301,0.94098 -0.66479,1.73242 -1.38156,2.04939 -1.38156,0.61096 z m -4.07568,-43.80902 -2.42432,-2.75 2.75,2.42431 c 2.57029,2.26589 3.20859,3.07569 2.42432,3.07569 -0.17913,0 -1.41663,-1.2375 -2.75,-2.75 z m 78.15463,-13.83333 c 0.048,-1.16495 0.28494,-1.4019 0.60417,-0.60417 0.28887,0.72187 0.25334,1.58437 -0.079,1.91667 -0.33229,0.33229 -0.56864,-0.25834 -0.52522,-1.3125 z M 191.58225,85.540169 c -1.24387,-1.586056 -1.2085,-1.621426 0.37755,-0.377556 1.66575,1.30637 2.19548,2.127556 1.37245,2.127556 -0.20766,0 -0.99516,-0.7875 -1.75,-1.75 z"
         id="path8" />
      <path
         style="fill:#adcf87"
         d="m 208.47146,473.58291 c 1.24392,-0.2392 3.04392,-0.23011 4,0.0202 0.95609,0.25029 -0.0617,0.44599 -2.26166,0.4349 -2.2,-0.0111 -2.98225,-0.21589 -1.73834,-0.45508 z m 9.48834,0.0179 c 0.9625,-0.25152 2.5375,-0.25152 3.5,0 0.9625,0.25153 0.175,0.45733 -1.75,0.45733 -1.925,0 -2.7125,-0.2058 -1.75,-0.45733 z m 10.51166,-0.0179 c 1.24392,-0.2392 3.04392,-0.23011 4,0.0202 0.95609,0.25029 -0.0617,0.44599 -2.26166,0.4349 -2.2,-0.0111 -2.98225,-0.21589 -1.73834,-0.45508 z m 21.05084,-0.97586 c 0.72188,-0.28887 1.58438,-0.25334 1.91667,0.0789 0.33229,0.33229 -0.25833,0.56864 -1.3125,0.52522 -1.16494,-0.048 -1.4019,-0.28494 -0.60417,-0.60417 z m 9.49737,-20.81688 c 0.006,-3.3 0.1923,-4.52944 0.41487,-2.73209 0.22256,1.79735 0.21796,4.49735 -0.0102,6 -0.22817,1.50265 -0.41027,0.0321 -0.40466,-3.26791 z m -77.23092,-23.08333 c 0.048,-1.16495 0.28494,-1.4019 0.60417,-0.60417 0.28887,0.72187 0.25334,1.58437 -0.0789,1.91667 -0.33229,0.33229 -0.56864,-0.25834 -0.52522,-1.3125 z m -8.32895,-8.07895 c 0.6875,-0.27741 1.8125,-0.27741 2.5,0 0.6875,0.27741 0.125,0.50438 -1.25,0.50438 -1.375,0 -1.9375,-0.22697 -1.25,-0.50438 z m -69.34501,-76.58772 -1.90499,-2.25 2.25,1.90499 c 1.2375,1.04774 2.25,2.06024 2.25,2.25 0,0.80025 -0.80479,0.20945 -2.59501,-1.90499 z m 136.40751,-1.43312 c 0.72188,-0.28887 1.58438,-0.25334 1.91667,0.0789 0.33229,0.33229 -0.25833,0.56864 -1.3125,0.52522 -1.16494,-0.048 -1.4019,-0.28494 -0.60417,-0.60417 z m -166.999996,-15 c 0.721875,-0.28887 1.584375,-0.25334 1.916666,0.0789 0.332292,0.33229 -0.258333,0.56864 -1.3125,0.52522 -1.164942,-0.048 -1.401899,-0.28494 -0.604166,-0.60417 z M 208.4598,326.62789 c 0.6875,-0.27741 1.8125,-0.27741 2.5,0 0.6875,0.27741 0.125,0.50438 -1.25,0.50438 -1.375,0 -1.9375,-0.22697 -1.25,-0.50438 z m 9.5,-1.13544 -6.25,-0.29772 v -23.72851 c 0,-13.05069 0.4684,-27.54171 1.04088,-32.20229 2.23174,-18.16844 8.01373,-32.8709 17.37143,-44.17206 11.04439,-13.33816 15.77026,-22.98712 17.60919,-35.95326 1.79022,-12.62271 -1.28905,-24.12792 -8.80893,-32.91321 l -3.67424,-4.29253 -0.0192,-14.07135 c -0.0218,-16.0373 -0.96098,-20.01379 -6.39881,-27.09384 -6.58045,-8.56774 -19.02771,-14.040012 -36.33438,-15.973927 l -5.71403,-0.638508 -5.39631,-7.682538 c -6.59908,-9.394903 -13.20292,-15.66303 -23.40602,-22.216172 -7.32063,-4.701821 -26.24725,-12.966366 -29.69425,-12.966366 -1.55356,0 -2.28184,-1.878536 -0.82537,-2.128949 9.51533,-1.63598 22.75809,-0.911483 28.42191,1.55493 0.91955,0.400435 2.26955,0.841333 3,0.979773 2.0785,0.393931 9.29071,4.010141 9.66143,4.844246 0.18333,0.4125 0.85418,0.75 1.49076,0.75 0.63659,0 3.63659,2.687262 6.66667,5.971694 7.4014,8.022691 7.66114,8.356195 8.45427,10.855117 0.37935,1.195254 1.13597,2.173189 1.68137,2.173189 0.54539,0 0.71351,0.45 0.37359,1 -0.33991,0.55 -0.11491,1 0.5,1 0.61492,0 0.83992,0.45 0.5,1 -0.33991,0.55 -0.14147,1 0.44099,1 0.58246,0 1.05901,0.625147 1.05901,1.389216 0,0.764069 0.80289,2.380734 1.78419,3.59259 1.44668,1.786581 3.10184,2.288218 8.75,2.651904 10.36591,0.667464 17.1665,1.568983 18.21581,2.414778 0.1375,0.110832 0.5875,0.297859 1,0.415616 0.4125,0.117757 3,1.249537 5.75,2.515067 5.16745,2.378021 18.5,15.00952 18.5,17.52723 0,0.74291 0.5625,1.94538 1.25,2.67217 0.6875,0.72679 1.39533,2.16597 1.57295,3.1982 0.17762,1.03222 0.80081,3.05722 1.38485,4.5 1.7916,4.4258 2.19487,9.27479 1.79256,21.55375 -0.18933,5.77832 0.0827,7.15305 1.63628,8.26899 1.02485,0.73615 2.65086,2.00051 3.61336,2.80969 0.9625,0.80917 1.75,1.27696 1.75,1.03952 0,-0.47773 5.82865,5.59057 8.98487,9.35429 1.10832,1.32165 2.01513,3.15915 2.01513,4.08333 0,0.92418 0.31702,1.99734 0.70448,2.3848 2.39289,2.3929 2.11293,16.29583 -0.45568,22.62886 -0.55768,1.375 -0.81525,2.8375 -0.57237,3.25 0.24289,0.4125 -0.0615,0.75 -0.67643,0.75 -0.61491,0 -0.83991,0.45 -0.5,1 0.33992,0.55 0.22611,1 -0.25292,1 -0.47903,0 -1.91655,1.41423 -3.19449,3.14274 -1.27794,1.72851 -1.70007,2.82065 -0.93806,2.42697 0.76201,-0.39368 -0.80393,1.34967 -3.47988,3.8741 -5.78878,5.46102 -14.29714,15.91744 -15.15736,18.62777 -0.33664,1.06063 -1.05829,1.92842 -1.60369,1.92842 -0.5454,0 -0.71351,0.45 -0.3736,1 0.33992,0.55 0.11492,1 -0.5,1 -0.61491,0 -0.83991,0.45 -0.5,1 0.33992,0.55 0.11492,1 -0.5,1 -0.61491,0 -0.83991,0.45 -0.5,1 0.33992,0.55 0.11492,1 -0.5,1 -0.61491,0 -0.83991,0.45 -0.5,1 0.33992,0.55 0.11492,1 -0.5,1 -0.61491,0 -0.83991,0.45 -0.5,1 0.33992,0.55 0.1855,1 -0.34315,1 -1.15053,0 -3.245,5.57851 -2.40852,6.41499 0.32175,0.32175 0.0958,0.58501 -0.5022,0.58501 -0.59797,0 -1.43507,1.4625 -1.86021,3.25 -1.00912,4.24274 -0.87691,3.82281 -2.24769,7.13869 -0.6568,1.58878 -0.9605,3.12237 -0.67488,3.40799 0.28562,0.28561 0.009,1.13408 -0.61452,1.88548 -0.62361,0.75139 -0.84861,1.65139 -0.5,2 0.3486,0.3486 0.12397,1.24815 -0.49918,1.999 -1.2008,1.44688 -1.43901,5.50046 -2.27487,38.71103 -0.28921,11.49071 -0.64934,20.94071 -0.8003,21 -0.15096,0.0593 -3.08698,-0.0262 -6.52448,-0.18991 z m -94.37755,-30.95228 c -1.24387,-1.58606 -1.2085,-1.62143 0.37755,-0.37756 0.9625,0.75485 1.75,1.54235 1.75,1.75 0,0.82304 -0.82118,0.29331 -2.12755,-1.37244 z m 117.2065,-5.83333 c 0.048,-1.16495 0.28494,-1.4019 0.60417,-0.60417 0.28887,0.72187 0.25334,1.58437 -0.0789,1.91667 -0.33229,0.33229 -0.56864,-0.25834 -0.52522,-1.3125 z M 125.6908,225.76728 c -1.05678,-1.27335 -0.99491,-1.41968 0.37756,-0.89301 0.90279,0.34643 1.64144,1.03173 1.64144,1.52289 0,1.28596 -0.57887,1.10536 -2.019,-0.62988 z m 74.019,-9.85467 c 0,-0.20765 0.7875,-0.99515 1.75,-1.75 1.58606,-1.24387 1.62143,-1.2085 0.37756,0.37756 -1.30637,1.66575 -2.12756,2.19548 -2.12756,1.37244 z m 146,-27 c 0,-0.20765 0.7875,-0.99515 1.75,-1.75 1.58606,-1.24387 1.62143,-1.2085 0.37756,0.37756 -1.30637,1.66575 -2.12756,2.19548 -2.12756,1.37244 z M 35.941807,164.29017 c 0,-1.925 0.205795,-2.7125 0.457322,-1.75 0.251528,0.9625 0.251528,2.5375 0,3.5 -0.251527,0.9625 -0.457322,0.175 -0.457322,-1.75 z m 130.267993,-1 c 0.99549,-1.1 2.03498,-2 2.30998,-2 0.275,0 -0.31449,0.9 -1.30998,2 -0.99548,1.1 -2.03497,2 -2.30997,2 -0.275,0 0.31449,-0.9 1.30997,-2 z m 20.5,0.62244 c 0,-0.20765 0.7875,-0.99515 1.75,-1.75 1.58606,-1.24387 1.62143,-1.2085 0.37756,0.37756 -1.30637,1.66575 -2.12756,2.19548 -2.12756,1.37244 z m 273.8125,-2.30556 c 0.72188,-0.28887 1.58438,-0.25334 1.91667,0.079 0.33229,0.33229 -0.25833,0.56864 -1.3125,0.52522 -1.16494,-0.048 -1.4019,-0.28494 -0.60417,-0.60417 z M 35.941807,156.29017 c 0,-1.925 0.205795,-2.7125 0.457322,-1.75 0.251528,0.9625 0.251528,2.5375 0,3.5 -0.251527,0.9625 -0.457322,0.175 -0.457322,-1.75 z M 195.7098,152.91261 c 0,-0.20765 0.7875,-0.99515 1.75,-1.75 1.58606,-1.24387 1.62143,-1.2085 0.37756,0.37756 -1.30637,1.66575 -2.12756,2.19548 -2.12756,1.37244 z m 77.4371,-4.87244 -2.9371,-3.25 3.25,2.93709 c 3.02946,2.73778 3.70966,3.56291 2.9371,3.56291 -0.1721,0 -1.6346,-1.4625 -3.25,-3.25 z m -72.4371,-1.12756 c 0,-0.20765 0.7875,-0.99515 1.75,-1.75 1.58606,-1.24387 1.62143,-1.2085 0.37756,0.37756 -1.30637,1.66575 -2.12756,2.19548 -2.12756,1.37244 z m -60.8421,-11.62244 c 0,-1.375 0.22697,-1.9375 0.50438,-1.25 0.27742,0.6875 0.27742,1.8125 0,2.5 -0.27741,0.6875 -0.50438,0.125 -0.50438,-1.25 z m 55.8421,-6.88197 c 0,-0.55 0.45,-1.27811 1,-1.61803 0.55,-0.33992 1,-0.16804 1,0.38196 0,0.55 -0.45,1.27812 -1,1.61804 -0.55,0.33992 -1,0.16803 -1,-0.38197 z M 85.788751,100.70684 c 0.04798,-1.164948 0.28494,-1.401904 0.604167,-0.60417 0.28887,0.72187 0.253344,1.58437 -0.07895,1.91667 -0.332291,0.33229 -0.56864,-0.25834 -0.525219,-1.3125 z m 102.326039,-47.666671 -1.90499,-2.25 2.25,1.904987 c 2.11445,1.790219 2.70524,2.595013 1.90499,2.595013 -0.18976,0 -1.20226,-1.0125 -2.25,-2.25 z"
         id="path7" />
      <path
         style="fill:#fb7c82"
         d="m 381.7098,351.64893 c -41.6629,-12.36338 -88.1226,-21.40312 -129.79384,-25.25421 -5.11161,-0.47239 -9.606,-1.17106 -9.98753,-1.5526 -1.10004,-1.10003 -0.53055,-38.04175 0.75631,-49.06023 1.41775,-12.13922 6.65094,-28.5213 11.97659,-37.49172 2.12243,-3.575 6.93911,-10.00937 10.70372,-14.2986 15.49992,-17.65989 18.36309,-22.63798 20.39853,-35.46617 0.97768,-6.16167 1.05203,-10.10588 0.29222,-15.5 -0.71232,-5.05695 -0.70008,-7.44507 0.0407,-7.93222 0.5829,-0.38334 4.22186,-1.50834 8.08658,-2.5 5.52004,-1.4164 10.68294,-1.78335 24.0779,-1.71133 9.37813,0.0504 18.26317,0.39588 19.74453,0.76768 1.99165,0.49987 3.44983,2.16949 5.59679,6.40832 1.59687,3.15277 4.29933,7.4817 6.00547,9.61982 1.70613,2.13813 3.10206,4.076 3.10206,4.30637 0,0.23038 -1.28831,1.631 -2.86292,3.1125 -10.80856,10.16941 -19.49757,22.42428 -21.17605,29.86641 -0.63166,2.80072 -0.34934,3.90072 1.59387,6.21009 4.60441,5.47203 24.13041,12.11713 35.60507,12.11713 5.68627,0 5.84199,0.0724 5.91434,2.75 0.42823,15.84747 14.11389,40.79446 21.23302,38.70476 4.92781,-1.44647 13.23231,-7.36641 19.7312,-14.06558 l 6.89824,-7.11081 1.01292,3.11081 c 1.62852,5.0014 3.00914,16.47484 3.03051,25.1846 0.0417,16.98274 -5.73203,39.59595 -13.36143,52.33128 -5.0673,8.45855 -12.90341,18.64712 -15.32023,19.91946 -1.2879,0.67802 -5.06356,-0.022 -13.29854,-2.46576 z"
         id="path6" />
      <path
         style="fill:#f3a45d"
         d="m 191.7098,472.66518 c -2.475,-0.22135 -5.5125,-0.62985 -6.75,-0.90778 l -2.25,-0.50534 v -23.49564 -23.49565 l -3.25,-1.98156 c -4.41303,-2.69068 -6.39012,-2.50276 -9.82692,0.93404 l -2.92308,2.92307 v 20.57693 c 0,11.3173 -0.37955,20.57692 -0.84345,20.57692 -1.76278,0 -11.92516,-3.84885 -17.17902,-6.5063 -17.14192,-8.67051 -25.27751,-17.49921 -30.6168,-33.22517 -2.24644,-6.61651 -2.63773,-9.4739 -2.63864,-19.26853 -8.8e-4,-9.61513 0.4159,-12.77576 2.54292,-19.28369 6.44101,-19.7073 20.75925,-32.38527 44.26983,-39.19837 9.29828,-2.69453 27.56692,-5.99968 39.21516,-7.09477 l 7.25,-0.68159 v 19.69495 c 0,10.83222 0.43281,20.50365 0.96179,21.49206 1.63575,3.05643 6.40937,4.48164 9.7135,2.90005 4.38135,-2.09722 5.2051,-6.19624 5.26827,-26.21511 l 0.0564,-17.88647 10.75,0.69752 c 23.61436,1.53222 62.98041,6.53712 72.5,9.21746 1.6096,0.4532 1.75256,2.63353 1.78181,27.17535 0.0341,28.64133 0.12007,29.14925 5.26227,31.10432 3.41292,1.29759 8.04634,-0.26981 9.51742,-3.21956 0.67925,-1.362 1.21084,-11.42218 1.39338,-26.36917 0.16232,-13.29186 0.5226,-24.39434 0.80063,-24.67217 0.27803,-0.27784 5.99336,0.79731 12.70075,2.38921 40.77871,9.67826 91.61098,27.12601 111.60581,38.30775 6.77507,3.78884 13.68793,9.56318 13.68793,11.43358 0,11.02049 -71.98542,38.8212 -136.36584,52.66438 -18.89434,4.06269 -51.72568,9.78608 -52.38043,9.13133 -0.24957,-0.24957 -0.70121,-8.82551 -1.00365,-19.05765 l -0.54989,-18.6039 -3.00843,-2.53142 c -3.40601,-2.86597 -6.80105,-2.63397 -10.19176,0.69645 -1.82521,1.79277 -2.04369,3.65922 -2.5,21.35705 -0.275,10.66594 -0.84524,19.7363 -1.2672,20.15638 -0.80302,0.79943 -57.92353,1.46945 -65.7328,0.77104 z"
         id="path5" />
      <path
         style="fill:#89c075"
         d="m 194.4598,488.62789 c 0.6875,-0.27741 1.8125,-0.27741 2.5,0 0.6875,0.27741 0.125,0.50438 -1.25,0.50438 -1.375,0 -1.9375,-0.22697 -1.25,-0.50438 z m 50,-0.0435 c 1.2375,-0.23836 3.2625,-0.23836 4.5,0 1.2375,0.23835 0.225,0.43336 -2.25,0.43336 -2.475,0 -3.4875,-0.19501 -2.25,-0.43336 z M 186.5223,487.607 c 0.72188,-0.28887 1.58438,-0.25334 1.91667,0.0789 0.33229,0.33229 -0.25833,0.56864 -1.3125,0.52522 -1.16494,-0.048 -1.4019,-0.28494 -0.60417,-0.60417 z m 76,0 c 0.72188,-0.28887 1.58438,-0.25334 1.91667,0.0789 0.33229,0.33229 -0.25833,0.56864 -1.3125,0.52522 -1.16494,-0.048 -1.4019,-0.28494 -0.60417,-0.60417 z m 17,-2 c 0.72188,-0.28887 1.58438,-0.25334 1.91667,0.0789 0.33229,0.33229 -0.25833,0.56864 -1.3125,0.52522 -1.16494,-0.048 -1.4019,-0.28494 -0.60417,-0.60417 z M 52.582249,480.54017 c -1.243871,-1.58606 -1.208501,-1.62143 0.377555,-0.37756 1.665748,1.30637 2.195479,2.12756 1.372445,2.12756 -0.207656,0 -0.995156,-0.7875 -1.75,-1.75 z m 15.159737,-8.06202 c -5.79978,-3.1624 -7.53369,-6.39317 -7.521575,-14.01486 0.0095,-5.95997 0.463668,-7.49632 4.25,-14.37602 4.606373,-8.36969 5.194254,-11.67156 2.489393,-13.98183 -0.9625,-0.82209 -6.025,-3.55452 -11.25,-6.07207 -5.390259,-2.59717 -11.004283,-6.14123 -12.977273,-8.19237 -7.965509,-8.28104 -2.7235,-16.77985 14.833705,-24.04972 12.389404,-5.13005 12.575519,-5.59356 7.08002,-17.63254 -3.106407,-6.8052 -4.397278,-11.05659 -4.717849,-15.53791 -0.431164,-6.02734 -0.352444,-6.26405 3.420037,-10.28414 5.202348,-5.5438 9.413933,-6.23458 16.590652,-2.72119 6.540059,3.20171 14.98978,10.65296 21.833354,19.2534 l 5.21711,6.55642 -3.139,9.18243 c -6.96053,20.36143 -6.492328,40.30292 1.4286,60.84641 l 1.79829,4.664 -5.60208,6.836 c -5.972737,7.28831 -14.460545,15.05916 -19.928108,18.24481 -5.23255,3.04871 -9.786163,3.47064 -13.805276,1.27918 z m 132.717814,1.10629 c 1.2375,-0.23836 3.2625,-0.23836 4.5,0 1.2375,0.23835 0.225,0.43336 -2.25,0.43336 -2.475,0 -3.4875,-0.19501 -2.25,-0.43336 z m 35,0 c 1.2375,-0.23836 3.2625,-0.23836 4.5,0 1.2375,0.23835 0.225,0.43336 -2.25,0.43336 -2.475,0 -3.4875,-0.19501 -2.25,-0.43336 z m 17,-0.95655 c 0.6875,-0.27741 1.8125,-0.27741 2.5,0 0.6875,0.27741 0.125,0.50438 -1.25,0.50438 -1.375,0 -1.9375,-0.22697 -1.25,-0.50438 z m -87.14994,-5.01159 c 0.60503,-0.45437 1.3846,-1.50113 1.73237,-2.32613 0.44428,-1.05395 0.56321,-0.92991 0.39994,0.41713 -0.1278,1.05443 -0.90737,2.10118 -1.73237,2.32613 -0.96477,0.26306 -1.10748,0.11422 -0.39994,-0.41713 z m -45.72761,-7.07613 c -1.24387,-1.58606 -1.2085,-1.62143 0.37755,-0.37756 0.9625,0.75485 1.75,1.54235 1.75,1.75 0,0.82304 -0.82118,0.29331 -2.12755,-1.37244 z m -75.620263,-2.75 c 0.0111,-2.2 0.215884,-2.98225 0.455078,-1.73834 0.239193,1.24391 0.230112,3.04391 -0.02018,4 -0.250293,0.95609 -0.445996,-0.0617 -0.434898,-2.26166 z m 85.672133,-9.25 -2.42432,-2.75 2.75,2.42431 c 2.57029,2.26589 3.20859,3.07569 2.42432,3.07569 -0.17913,0 -1.41663,-1.2375 -2.75,-2.75 z m 52.38555,-12.75 c 0.006,-3.3 0.1923,-4.52944 0.41487,-2.73209 0.22256,1.79735 0.21796,4.49735 -0.0102,6 -0.22817,1.50265 -0.41027,0.0321 -0.40466,-3.26791 z M 471.7098,424.91261 c 0,-0.20765 0.7875,-0.99515 1.75,-1.75 1.58606,-1.24387 1.62143,-1.2085 0.37756,0.37756 -1.30637,1.66575 -2.12756,2.19548 -2.12756,1.37244 z M 23.961987,407.79017 c 0.0111,-2.2 0.215884,-2.98225 0.455078,-1.73834 0.239193,1.24391 0.230112,3.04391 -0.02018,4 -0.250293,0.95609 -0.445996,-0.0617 -0.434897,-2.26166 z m 286.173303,-1.83359 c -0.28146,-0.73347 -0.37572,-5.12097 -0.20946,-9.75 l 0.30229,-8.41641 0.49084,9.75224 c 0.48752,9.68618 0.39825,10.97302 -0.58367,8.41417 z M 43.961987,356.79017 c 0.0111,-2.2 0.215884,-2.98225 0.455078,-1.73834 0.239193,1.24391 0.230112,3.04391 -0.02018,4 -0.250293,0.95609 -0.445996,-0.0617 -0.434898,-2.26166 z M 287.5223,347.60705 c 0.72188,-0.28887 1.58438,-0.25334 1.91667,0.0789 0.33229,0.33229 -0.25833,0.56864 -1.3125,0.52522 -1.16494,-0.048 -1.4019,-0.28494 -0.60417,-0.60417 z m -14,-2 c 0.72188,-0.28887 1.58438,-0.25334 1.91667,0.0789 0.33229,0.33229 -0.25833,0.56864 -1.3125,0.52522 -1.16494,-0.048 -1.4019,-0.28494 -0.60417,-0.60417 z m -17,-2 c 0.72188,-0.28887 1.58438,-0.25334 1.91667,0.0789 0.33229,0.33229 -0.25833,0.56864 -1.3125,0.52522 -1.16494,-0.048 -1.4019,-0.28494 -0.60417,-0.60417 z m -63,-1 c 0.72188,-0.28887 1.58438,-0.25334 1.91667,0.0789 0.33229,0.33229 -0.25833,0.56864 -1.3125,0.52522 -1.16494,-0.048 -1.4019,-0.28494 -0.60417,-0.60417 z m 50.45654,-0.01 c 0.97296,-0.25355 2.32296,-0.23687 3,0.0371 0.67703,0.27393 -0.11904,0.48137 -1.76904,0.46099 -1.65,-0.0204 -2.20393,-0.2445 -1.23096,-0.49804 z m -39,-1 c 0.97296,-0.25355 2.32296,-0.23687 3,0.0371 0.67703,0.27393 -0.11904,0.48137 -1.76904,0.46099 -1.65,-0.0204 -2.20393,-0.2445 -1.23096,-0.49804 z m 21.49262,-0.0143 c 1.24392,-0.2392 3.04392,-0.23011 4,0.0202 0.95609,0.25029 -0.0617,0.44599 -2.26166,0.4349 -2.2,-0.0111 -2.98225,-0.21589 -1.73834,-0.45508 z m -46.94916,-11.9757 c 0.72188,-0.28887 1.58438,-0.25334 1.91667,0.0789 0.33229,0.33229 -0.25833,0.56864 -1.3125,0.52522 -1.16494,-0.048 -1.4019,-0.28494 -0.60417,-0.60417 z m 7,-1 c 0.72188,-0.28887 1.58438,-0.25334 1.91667,0.0789 0.33229,0.33229 -0.25833,0.56864 -1.3125,0.52522 -1.16494,-0.048 -1.4019,-0.28494 -0.60417,-0.60417 z m 8.9375,-0.97916 c 0.6875,-0.27741 1.8125,-0.27741 2.5,0 0.6875,0.27741 0.125,0.50438 -1.25,0.50438 -1.375,0 -1.9375,-0.22697 -1.25,-0.50438 z m 19.01791,-1.06245 c 1.79735,-0.22256 4.49735,-0.21797 6,0.0102 1.50265,0.22818 0.0321,0.41027 -3.26791,0.40466 -3.3,-0.006 -4.52944,-0.1923 -2.73209,-0.41486 z m 10.42704,-3.77527 c 0.0204,-1.65 0.2445,-2.20394 0.49804,-1.23097 0.25355,0.97297 0.23687,2.32297 -0.0371,3 -0.27392,0.67703 -0.48137,-0.11903 -0.46099,-1.76903 z m 241,-23 c 0.0204,-1.65 0.2445,-2.20394 0.49804,-1.23097 0.25355,0.97297 0.23687,2.32297 -0.037,3 -0.27392,0.67703 -0.48137,-0.11903 -0.46099,-1.76903 z m -239.85214,-10 c 0.004,-4.4 0.17945,-6.07561 0.39069,-3.72357 0.21125,2.35204 0.20827,5.95204 -0.007,8 -0.21488,2.04796 -0.38772,0.12357 -0.38409,-4.27643 z m 239.8892,-5.5 c 0,-1.925 0.20579,-2.7125 0.45732,-1.75 0.25153,0.9625 0.25153,2.5375 0,3.5 -0.25153,0.9625 -0.45732,0.175 -0.45732,-1.75 z m -341.35956,-10.75 c -1.24387,-1.58606 -1.2085,-1.62143 0.37755,-0.37756 1.66575,1.30637 2.19548,2.12756 1.37245,2.12756 -0.20766,0 -0.99516,-0.7875 -1.75,-1.75 z m 102.28545,-3.25 c 0,-1.375 0.22697,-1.9375 0.50438,-1.25 0.27742,0.6875 0.27742,1.8125 0,2.5 -0.27741,0.6875 -0.50438,0.125 -0.50438,-1.25 z m 166.45649,-17.25 c -3.23777,-5.08829 -4.97706,-12.39493 -5.17742,-21.75 -0.11191,-5.225 -0.25601,-10.31046 -0.32022,-11.30103 -0.17739,-2.73658 -6.09406,-4.85266 -10.24203,-3.66304 -8.46983,2.42911 -29.45701,-0.0615 -30.59013,-3.63024 -0.73092,-2.30202 12.37235,-14.88051 19.66652,-18.87889 7.61049,-4.17178 9.55595,-6.35385 8.53441,-9.57243 -0.3439,-1.08354 -4.12225,-5.74468 -8.39633,-10.3581 -7.89555,-8.52242 -11.37948,-14.29627 -12.62167,-20.91771 l -0.6901,-3.67856 6.86129,0.0198 c 9.50043,0.0274 19.1393,1.55293 26.03344,4.12021 4.47578,1.66672 7.45905,3.81624 12.85879,9.26509 3.86701,3.90219 8.11819,9.18895 9.44707,11.74837 l 2.41615,4.65347 -5.69708,6.15353 c -3.13339,3.38443 -5.69708,6.55669 -5.69708,7.04947 0,2.45362 2.57098,5.98392 5.12972,7.04378 3.98306,1.64984 7.64576,-0.0372 13.37222,-6.15925 2.51801,-2.69197 5.14915,-4.89448 5.84697,-4.89448 2.4544,0 13.20959,7.17447 18.45169,12.30859 6.71189,6.57363 10.74466,14.72797 13.22209,26.73533 2.29596,11.12779 2.47191,14.95608 0.68741,14.95608 -3.01301,0 -13.37095,-3.24036 -16.65265,-5.20958 -1.9566,-1.17408 -5.80745,-4.01247 -8.55745,-6.30753 -6.55693,-5.47221 -8.94664,-6.65988 -11.90588,-5.91716 -3.20353,0.80404 -5.05627,3.03047 -6.60256,7.93427 -0.69371,2.2 -2.35963,5.89759 -3.70203,8.21686 -2.88885,4.99108 -11.39002,14.28314 -13.06743,14.28314 -0.6468,0 -1.82026,-1.0125 -2.60771,-2.25 z m -337.209399,-1 -1.904987,-2.25 2.25,1.90499 c 2.114445,1.79021 2.705241,2.59501 1.904987,2.59501 -0.189756,0 -1.202256,-1.0125 -2.25,-2.25 z m 414.673959,-2.33333 c 0.048,-1.16495 0.28494,-1.4019 0.60417,-0.60417 0.28887,0.72187 0.25334,1.58437 -0.079,1.91667 -0.33229,0.33229 -0.56864,-0.25834 -0.52522,-1.3125 z m -402.673959,-7.66667 -1.904987,-2.25 2.25,1.90499 c 2.114445,1.79021 2.705241,2.59501 1.904987,2.59501 -0.189756,0 -1.202256,-1.0125 -2.25,-2.25 z M 185.7098,232.91261 c 0,-0.20765 0.7875,-0.99515 1.75,-1.75 1.58606,-1.24387 1.62143,-1.2085 0.37756,0.37756 -1.30637,1.66575 -2.12756,2.19548 -2.12756,1.37244 z m 285.07895,-1.20577 c 0.048,-1.16495 0.28494,-1.4019 0.60417,-0.60417 0.28887,0.72187 0.25334,1.58437 -0.079,1.91667 -0.33229,0.33229 -0.56864,-0.25834 -0.52522,-1.3125 z M 244.7098,223.91261 c 0,-0.20765 0.7875,-0.99515 1.75,-1.75 1.58606,-1.24387 1.62143,-1.2085 0.37756,0.37756 -1.30637,1.66575 -2.12756,2.19548 -2.12756,1.37244 z M 41.867699,221.29017 c 0,-1.375 0.226973,-1.9375 0.504386,-1.25 0.277412,0.6875 0.277412,1.8125 0,2.5 -0.277413,0.6875 -0.504386,0.125 -0.504386,-1.25 z M 248.7098,218.97726 c 0,-0.1721 1.4625,-1.6346 3.25,-3.25 l 3.25,-2.93709 -2.93709,3.25 c -2.73778,3.02945 -3.56291,3.70965 -3.56291,2.93709 z M 41.788751,212.70684 c 0.04798,-1.16495 0.28494,-1.4019 0.604167,-0.60417 0.28887,0.72187 0.253344,1.58437 -0.07895,1.91667 -0.332291,0.33229 -0.56864,-0.25834 -0.525219,-1.3125 z M 200.4598,194.62789 c 0.6875,-0.27741 1.8125,-0.27741 2.5,0 0.6875,0.27741 0.125,0.50438 -1.25,0.50438 -1.375,0 -1.9375,-0.22697 -1.25,-0.50438 z m 69.4079,-9.33772 c 0,-1.375 0.22697,-1.9375 0.50438,-1.25 0.27742,0.6875 0.27742,1.8125 0,2.5 -0.27741,0.6875 -0.50438,0.125 -0.50438,-1.25 z m 15.92105,-3.58333 c 0.048,-1.16495 0.28494,-1.4019 0.60417,-0.60417 0.28887,0.72187 0.25334,1.58437 -0.079,1.91667 -0.33229,0.33229 -0.56864,-0.25834 -0.52522,-1.3125 z m -16,-6 c 0.048,-1.16495 0.28494,-1.4019 0.60417,-0.60417 0.28887,0.72187 0.25334,1.58437 -0.079,1.91667 -0.33229,0.33229 -0.56864,-0.25834 -0.52522,-1.3125 z m 166.92105,-1.91667 c 1.29175,-1.375 2.57363,-2.5 2.84863,-2.5 0.275,0 -0.55688,1.125 -1.84863,2.5 -1.29174,1.375 -2.57362,2.5 -2.84862,2.5 -0.275,0 0.55688,-1.125 1.84862,-2.5 z m -385.679922,-13.5 c 0,-3.575 0.181495,-5.0375 0.403321,-3.25 0.221827,1.7875 0.221827,4.7125 0,6.5 -0.221826,1.7875 -0.403321,0.325 -0.403321,-3.25 z m 281.492422,0.31688 c 0.72188,-0.28887 1.58438,-0.25334 1.91667,0.079 0.33229,0.33229 -0.25833,0.56864 -1.3125,0.52522 -1.16494,-0.048 -1.4019,-0.28494 -0.60417,-0.60417 z m 137.45654,-0.01 c 0.97296,-0.25355 2.32296,-0.23687 3,0.037 0.67703,0.27393 -0.11904,0.48137 -1.76904,0.46099 -1.65,-0.0204 -2.20393,-0.2445 -1.23096,-0.49804 z M 90.709804,154.91261 c 0,-0.20765 0.7875,-0.99515 1.75,-1.75 1.586055,-1.24387 1.621426,-1.2085 0.377555,0.37756 -1.30637,1.66575 -2.127555,2.19548 -2.127555,1.37244 z m 159.419486,-4.97166 c -0.28476,-0.74206 -0.37771,-4.45456 -0.20656,-8.25 l 0.31118,-6.90078 0.48795,8.25235 c 0.48718,8.23937 0.3838,9.44281 -0.59257,6.89843 z m 212.83051,-3.34011 c 0.9625,-0.25152 2.5375,-0.25152 3.5,0 0.9625,0.25153 0.175,0.45733 -1.75,0.45733 -1.925,0 -2.7125,-0.2058 -1.75,-0.45733 z m 8,0 c 0.9625,-0.25152 2.5375,-0.25152 3.5,0 0.9625,0.25153 0.175,0.45733 -1.75,0.45733 -1.925,0 -2.7125,-0.2058 -1.75,-0.45733 z m -165.4375,-0.99379 c 0.72188,-0.28887 1.58438,-0.25334 1.91667,0.079 0.33229,0.33229 -0.25833,0.56864 -1.3125,0.52522 -1.16494,-0.048 -1.4019,-0.28494 -0.60417,-0.60417 z m 27.45654,-0.01 c 0.97296,-0.25355 2.32296,-0.23687 3,0.037 0.67703,0.27393 -0.11904,0.48137 -1.76904,0.46099 -1.65,-0.0204 -2.20393,-0.2445 -1.23096,-0.49804 z M 192.7098,132.79017 c 1.29175,-1.375 2.57363,-2.5 2.84863,-2.5 0.275,0 -0.55688,1.125 -1.84863,2.5 -1.29174,1.375 -2.57362,2.5 -2.84862,2.5 -0.275,0 0.55688,-1.125 1.84862,-2.5 z m 153.8125,1.81688 c 0.72188,-0.28887 1.58438,-0.25334 1.91667,0.079 0.33229,0.33229 -0.25833,0.56864 -1.3125,0.52522 -1.16494,-0.048 -1.4019,-0.28494 -0.60417,-0.60417 z m 27.9375,0.0208 c 0.6875,-0.27741 1.8125,-0.27741 2.5,0 0.6875,0.27741 0.125,0.50438 -1.25,0.50438 -1.375,0 -1.9375,-0.22697 -1.25,-0.50438 z M 59.709804,132.91261 c 0,-0.20765 0.7875,-0.99515 1.75,-1.75 1.586055,-1.24387 1.621426,-1.2085 0.377555,0.37756 -1.30637,1.66575 -2.127555,2.19548 -2.127555,1.37244 z m 190.194946,-3.12244 c 0.0204,-1.65 0.2445,-2.20394 0.49804,-1.23097 0.25355,0.97297 0.23687,2.32297 -0.0371,3 -0.27392,0.67703 -0.48137,-0.11903 -0.46099,-1.76903 z m 14.96295,-0.5 c 0,-1.375 0.22697,-1.9375 0.50438,-1.25 0.27742,0.6875 0.27742,1.8125 0,2.5 -0.27741,0.6875 -0.50438,0.125 -0.50438,-1.25 z m -24.28545,-22.75 c -1.24387,-1.58606 -1.2085,-1.62143 0.37755,-0.37756 1.66575,1.30637 2.19548,2.12756 1.37245,2.12756 -0.20766,0 -0.99516,-0.7875 -1.75,-1.75 z M 69.904753,96.790169 c 0.02038,-1.65 0.244498,-2.203936 0.498042,-1.230968 0.253543,0.972967 0.236869,2.322967 -0.03705,3 -0.273924,0.677032 -0.481368,-0.119032 -0.460988,-1.769032 z m 15.962946,0.5 c 0,-1.375 0.226973,-1.9375 0.504386,-1.25 0.277412,0.6875 0.277412,1.8125 0,2.5 -0.277413,0.6875 -0.504386,0.125 -0.504386,-1.25 z M 200.9598,87.573914 c 1.5125,-0.229124 3.9875,-0.229124 5.5,0 1.5125,0.229125 0.275,0.416591 -2.75,0.416591 -3.025,0 -4.2625,-0.187466 -2.75,-0.416591 z m 0.30764,-16.190486 c -0.30822,-0.498708 0.34022,-0.671224 1.44098,-0.383369 2.33499,0.610613 2.63015,1.29011 0.5604,1.29011 -0.79254,0 -1.69316,-0.408034 -2.00138,-0.906741 z m -24.61147,-8.843259 -3.44617,-3.75 3.75,3.446167 c 2.0625,1.895391 3.75,3.582891 3.75,3.75 0,0.76362 -0.84621,0.04425 -4.05383,-3.446167 z m -89.446166,-7.25 c 0.995486,-1.1 2.034975,-2 2.309975,-2 0.275,0 -0.314489,0.9 -1.309975,2 -0.995486,1.1 -2.034975,2 -2.309975,2 -0.275,0 0.314489,-0.9 1.309975,-2 z m 4.5,-4.377556 c 0,-0.207655 0.7875,-0.995155 1.75,-1.75 1.586055,-1.24387 1.621426,-1.2085 0.377555,0.377556 -1.30637,1.665748 -2.127555,2.195479 -2.127555,1.372444 z M 150.5223,48.607055 c 0.72188,-0.288871 1.58438,-0.253345 1.91667,0.07895 0.33229,0.332292 -0.25833,0.56864 -1.3125,0.525219 -1.16494,-0.04798 -1.4019,-0.28494 -0.60417,-0.604166 z m -17.0625,-0.979167 c 0.6875,-0.277412 1.8125,-0.277412 2.5,0 0.6875,0.277412 0.125,0.504386 -1.25,0.504386 -1.375,0 -1.9375,-0.226974 -1.25,-0.504386 z m 6.51375,-0.0553 c 1.52007,-0.229855 3.77007,-0.223712 5,0.01365 1.22994,0.237361 -0.0137,0.425424 -2.76375,0.417917 -2.75,-0.0075 -3.75631,-0.201713 -2.23625,-0.431567 z m -8.51375,-14.9447 c 0.6875,-0.277412 1.8125,-0.277412 2.5,0 0.6875,0.277412 0.125,0.504386 -1.25,0.504386 -1.375,0 -1.9375,-0.226974 -1.25,-0.504386 z m 13,0 c 0.6875,-0.277412 1.8125,-0.277412 2.5,0 0.6875,0.277412 0.125,0.504386 -1.25,0.504386 -1.375,0 -1.9375,-0.226974 -1.25,-0.504386 z"
         id="path4" />
      <path
         style="fill:#d2696a"
         d="m 258.46859,466.04017 c 0.55429,-8.96544 1.07069,-9.40974 1.16227,-1 0.0434,3.9875 -0.28727,7.25 -0.73487,7.25 -0.44759,0 -0.63992,-2.8125 -0.4274,-6.25 z m 16.54088,-0.75 c 0,-3.025 0.18746,-4.2625 0.41659,-2.75 0.22912,1.5125 0.22912,3.9875 0,5.5 -0.22913,1.5125 -0.41659,0.275 -0.41659,-2.75 z m -1.22072,-31.58333 c 0.048,-1.16495 0.28494,-1.4019 0.60417,-0.60417 0.28887,0.72187 0.25334,1.58437 -0.079,1.91667 -0.33229,0.33229 -0.56864,-0.25834 -0.52522,-1.3125 z m -7.26645,-6.09979 c 0.72188,-0.28887 1.58438,-0.25334 1.91667,0.0789 0.33229,0.33229 -0.25833,0.56864 -1.3125,0.52522 -1.16494,-0.048 -1.4019,-0.28494 -0.60417,-0.60417 z M 114.90475,414.79017 c 0.0204,-1.65 0.2445,-2.20394 0.49804,-1.23097 0.25355,0.97297 0.23687,2.32297 -0.037,3 -0.27392,0.67703 -0.48137,-0.11903 -0.46099,-1.76903 z m 207.99035,-7.00724 c 0.92691,-1.10399 1.8583,-4.25399 2.06975,-7 l 0.38446,-4.99276 0.18025,5.09501 c 0.14802,4.18417 -0.22199,5.43557 -2.06976,7 -2.23386,1.89133 -2.23791,1.8906 -0.5647,-0.10225 z m -207.99035,-6.99276 c 0.0204,-1.65 0.2445,-2.20394 0.49804,-1.23097 0.25355,0.97297 0.23687,2.32297 -0.037,3 -0.27392,0.67703 -0.48137,-0.11903 -0.46099,-1.76903 z M 215.5223,386.60705 c 0.72188,-0.28887 1.58438,-0.25334 1.91667,0.0789 0.33229,0.33229 -0.25833,0.56864 -1.3125,0.52522 -1.16494,-0.048 -1.4019,-0.28494 -0.60417,-0.60417 z m -82.8125,-21.69444 c 0,-0.20765 0.7875,-0.99515 1.75,-1.75 1.58606,-1.24387 1.62143,-1.2085 0.37756,0.37756 -1.30637,1.66575 -2.12756,2.19548 -2.12756,1.37244 z m 274.88695,-4.08497 c -3.63718,-1.27252 -8.16288,-3.04911 -10.05711,-3.94798 l -3.44406,-1.63431 4.09561,-4.27441 c 10.30117,-10.7509 18.61978,-27.20698 22.80902,-45.12137 2.83172,-12.10926 3.01217,-36.66398 0.34354,-46.74798 -1.75511,-6.63207 -1.68089,-7.36096 1.18429,-11.63053 0.69281,-1.03239 3.30014,-0.16297 11.99565,4 12.2373,5.8586 12.04967,5.63923 14.81342,17.31911 2.47792,10.4719 2.21133,37.37515 -0.47162,47.59339 -3.98305,15.16978 -12.46792,30.05884 -23.30613,40.89705 -6.8931,6.8931 -7.85547,7.08314 -17.96261,3.54703 z M 261.5223,327.60705 c 0.72188,-0.28887 1.58438,-0.25334 1.91667,0.0789 0.33229,0.33229 -0.25833,0.56864 -1.3125,0.52522 -1.16494,-0.048 -1.4019,-0.28494 -0.60417,-0.60417 z m -20.6546,-43.31688 c 0,-1.375 0.22697,-1.9375 0.50438,-1.25 0.27742,0.6875 0.27742,1.8125 0,2.5 -0.27741,0.6875 -0.50438,0.125 -0.50438,-1.25 z m 169.8421,-22.37756 c 0,-0.20765 0.7875,-0.99515 1.75,-1.75 1.58606,-1.24387 1.62143,-1.2085 0.37756,0.37756 -1.30637,1.66575 -2.12756,2.19548 -2.12756,1.37244 z m -147.5,-36.62244 c 0.99549,-1.1 2.03498,-2 2.30998,-2 0.275,0 -0.31449,0.9 -1.30998,2 -0.99548,1.1 -2.03497,2 -2.30997,2 -0.275,0 0.31449,-0.9 1.30997,-2 z m 9.5,-10.37756 c 0,-0.20765 0.7875,-0.99515 1.75,-1.75 1.58606,-1.24387 1.62143,-1.2085 0.37756,0.37756 -1.30637,1.66575 -2.12756,2.19548 -2.12756,1.37244 z m 13.25219,-38.12244 c 0.0111,-2.2 0.21588,-2.98225 0.45507,-1.73834 0.2392,1.24391 0.23012,3.04391 -0.0202,4 -0.25029,0.95609 -0.44599,-0.0617 -0.43489,-2.26166 z m 40.99781,-16.18933 c 0.9625,-0.25152 2.5375,-0.25152 3.5,0 0.9625,0.25153 0.175,0.45733 -1.75,0.45733 -1.925,0 -2.7125,-0.2058 -1.75,-0.45733 z"
         id="path3" />
      <path
         style="fill:#050504"
         d="m 188.33872,487.73974 c -27.43312,-3.73612 -51.31687,-12.73165 -65.00736,-24.48425 -3.23315,-2.7755 -6.19665,-4.91562 -6.58556,-4.75584 -0.38891,0.15979 -3.47646,3.52314 -6.86122,7.47412 -10.906578,12.73109 -23.91036,21.11937 -34.18409,22.05096 -9.107,0.82579 -16.423384,-1.81061 -22.584503,-8.13816 -8.691226,-8.92601 -10.798855,-21.19756 -5.983803,-34.84037 l 2.380197,-6.74397 -6.069986,-3.23527 c -7.244507,-3.86128 -15.250542,-11.37884 -17.272893,-16.219 -1.858638,-4.44835 -1.891546,-16.58847 -0.05687,-20.97947 2.68161,-6.418 7.871713,-11.10681 21.240142,-19.18865 l 2.142972,-1.29552 -2.392972,-6.59257 C 40.804547,353.44033 46.514312,337.55089 61.5668,330.5405 c 4.658494,-2.1696 6.371654,-2.43618 13.138674,-2.04444 5.709991,0.33055 9.214481,1.15148 13.163578,3.08359 5.876114,2.87492 18.955988,14.38494 24.917708,21.9271 l 3.76228,4.75964 4.32718,-3.61526 c 5.64636,-4.7174 13.57937,-9.76116 21.48203,-13.65813 4.10729,-2.0254 6.35155,-3.73672 6.35155,-4.84327 0,-3.15878 -11.94428,-25.61153 -17.83473,-33.52558 C 118.16258,285.54446 103.44714,274.43774 84.634613,267.72342 69.731476,262.40439 63.12054,258.53168 56.162736,251.04446 43.055159,236.93955 38.757469,216.70775 45.362343,200.20054 c 1.558834,-3.89591 1.530046,-4.09792 -1.452522,-10.19253 -5.755926,-11.76172 -7.20109,-17.67983 -7.188148,-29.4363 0.0182,-16.53181 4.150048,-28.36416 14.065205,-40.27843 3.601565,-4.32772 15.417826,-14.14972 18.575717,-15.44065 0.08404,-0.0344 0.655493,-4.22298 1.269906,-9.308048 3.594283,-29.747409 21.421506,-51.414191 49.577299,-60.255072 8.36429,-2.626375 25.79058,-3.168168 34.5,-1.072623 17.54112,4.220509 37.48363,19.339966 45.03625,34.144331 1.86527,3.656233 2.30424,3.928951 6.32412,3.928951 10.58182,0 26.52587,6.099762 36.4511,13.945208 13.76681,10.882037 21.1256,25.789873 22.7335,46.054793 l 0.67443,8.5 5.50632,5.64624 5.50632,5.64624 6.63398,-1.89778 c 12.26725,-3.50928 27.53542,-5.19459 41.77033,-4.61063 l 13.13635,0.53889 0.62273,-3.89438 c 0.97016,-6.06702 3.65553,-7.24991 17.58617,-7.74659 13.9596,-0.49771 26.11638,0.95925 33.29005,3.98973 12.21896,5.16183 22.49363,13.47206 29.21581,23.62997 1.52808,2.30907 3.05602,4.19261 3.39543,4.18565 0.33941,-0.007 3.71085,-2.50287 7.49209,-5.54648 13.72811,-11.05008 23.51178,-14.08153 43.76424,-13.56027 5.21326,0.13418 8.45445,2.2526 9.36273,6.11941 1.18198,5.03195 -1.0216,6.15615 -14.67564,7.48711 -9.34602,0.91103 -13.87111,1.84925 -17.91535,3.71453 -5.39733,2.48934 -15.91096,10.16008 -15.91096,11.60862 0,0.42006 3.0375,2.50719 6.75,4.63807 12.49036,7.16914 21.22857,18.34481 26.15203,33.44696 2.69331,8.26143 4.63224,25.91354 3.67396,33.44792 -0.72454,5.69657 -0.85176,5.89124 -5.0693,7.75686 l -4.32611,1.91364 1.41018,6.04489 c 2.41881,10.36853 3.52839,28.12781 2.45416,39.28008 -2.10927,21.89792 -8.93449,39.50819 -21.8767,56.44579 -3.11752,4.07992 -6.46019,8.45209 -7.42815,9.71592 l -1.75993,2.29788 14.25993,7.03514 c 21.99957,10.8535 29.53739,17.79514 30.52893,28.11432 1.4563,15.156 -10.48376,24.70595 -51.269,41.0062 -51.41597,20.54893 -126.33308,38.03386 -175.87399,41.04729 -21.96293,1.33594 -52.04086,1.07667 -63.99709,-0.55165 z M 81.547262,471.19897 c 5.467563,-3.18565 13.955371,-10.9565 19.928108,-18.24481 l 5.60208,-6.836 -1.79829,-4.664 c -7.920928,-20.54349 -8.38913,-40.48498 -1.4286,-60.84641 l 3.139,-9.18243 -5.21711,-6.55642 c -6.843574,-8.60044 -15.293295,-16.05169 -21.833354,-19.2534 -7.176719,-3.51339 -11.388304,-2.82261 -16.590652,2.72119 -3.772481,4.02009 -3.851201,4.2568 -3.420037,10.28414 0.320571,4.48132 1.611442,8.73271 4.717849,15.53791 5.495499,12.03898 5.309384,12.50249 -7.08002,17.63254 -12.292412,5.08989 -18.310978,10.4732 -18.310978,16.37827 0,5.73108 4.571043,10.13802 16.454546,15.86382 5.225,2.51755 10.2875,5.24998 11.25,6.07207 2.704861,2.31027 2.11698,5.61214 -2.489393,13.98183 -3.786332,6.8797 -4.240526,8.41605 -4.25,14.37602 -0.01212,7.62169 1.721795,10.85246 7.521575,14.01486 4.019113,2.19146 8.572726,1.76953 13.805276,-1.27918 z m 175.412538,1.49125 2.75,-0.63321 V 451.8892 431.72138 l 2.9043,-1.7156 c 3.76202,-2.22229 6.31434,-2.16854 9.23492,0.19447 2.29883,1.85996 2.3739,2.41761 2.86078,21.25 l 0.5,19.33992 3,-0.3139 c 1.65,-0.17265 9.75,-1.43237 18,-2.79938 54.88172,-9.09379 116.21869,-27.51082 151.71131,-45.55282 23.38706,-11.88837 22.61397,-16.80607 -4.70493,-29.92842 -24.67416,-11.85197 -53.6338,-21.69211 -94.00638,-31.94223 l -23,-5.83943 -0.69912,25.56948 c -0.67178,24.56909 -0.78619,25.66216 -2.92432,27.9381 -2.84642,3.02988 -6.89318,3.04426 -9.72066,0.0346 -2.10957,-2.24554 -2.21705,-3.36359 -2.83437,-29.48342 -0.55766,-23.59545 -0.84978,-27.21067 -2.23159,-27.61774 -7.48515,-2.20505 -51.86227,-7.61481 -74.2656,-9.05329 l -9.67566,-0.62126 -0.32434,20.64489 c -0.31903,20.30718 -0.36295,20.67613 -2.68512,22.55488 -3.00337,2.42987 -6.27493,2.42993 -9.27843,1.8e-4 -2.32318,-1.87939 -2.36569,-2.23846 -2.66835,-22.54315 l -0.30757,-20.63333 -6.19243,0.60131 c -25.15239,2.44241 -40.09582,6.00896 -54.19244,12.93413 -19.19332,9.42901 -29.74117,22.82365 -32.71994,41.55085 -1.55454,9.77318 -0.39574,25.21284 2.48873,33.15946 3.10943,8.56637 10.46092,18.81667 17.07879,23.81321 6.16695,4.65609 24.8576,13.77053 29.15242,14.2161 l 3,0.31123 0.5,-21.14778 c 0.44871,-18.97833 0.69543,-21.36343 2.40499,-23.25 2.19815,-2.42573 6.34632,-2.73547 9.15388,-0.6835 2.2563,1.64906 3.17164,11.30934 3.34092,35.25932 l 0.10021,14.17805 5.25,0.5684 c 2.8875,0.31262 6.6,0.75992 8.25,0.99399 4.36733,0.61955 57.50512,-0.27126 60.75,-1.01843 z M 425.55936,357.28061 c 10.83821,-10.83821 19.32308,-25.72727 23.30613,-40.89705 2.68295,-10.21824 2.94954,-37.12149 0.47162,-47.59339 -2.76306,-11.67696 -2.57962,-11.4622 -14.77922,-17.3026 -6.09192,-2.91643 -11.16526,-5.16643 -11.27407,-5 -8.88643,13.59153 -25.14317,27.8026 -31.80475,27.8026 -2.36664,0 -9.36689,-8.43724 -12.82018,-15.45185 -1.6614,-3.37479 -3.87977,-10.32888 -4.9297,-15.45353 -1.04993,-5.12464 -2.13759,-9.54616 -2.41702,-9.82559 -0.27943,-0.27943 -4.25303,-0.88764 -8.83022,-1.35158 -14.45502,-1.46516 -28.78169,-6.95 -32.34038,-12.38124 -3.27754,-5.00216 2.33272,-16.00678 14.85088,-29.13023 l 8.30867,-8.71042 -5.26382,-8.09778 c -2.89511,-4.45378 -6.1344,-9.22278 -7.19843,-10.59778 l -1.9346,-2.5 -21.34723,0.0463 c -18.78209,0.0408 -22.06822,0.29144 -27.34724,2.08625 -4.06605,1.38241 -5.88085,2.49562 -5.63035,3.45368 0.20331,0.77756 0.59595,5.46375 0.87255,10.41375 0.96991,17.35791 -3.70284,28.60558 -18.67038,44.94101 -10.62789,11.59919 -15.38119,19.28545 -19.68797,31.83621 -4.8648,14.17692 -5.49499,18.97718 -6.07533,46.27708 l -0.55386,26.05429 13.37267,1.24116 c 48.09286,4.46364 110.97619,18.28124 154.87267,34.03078 8.84276,3.17268 10.07017,2.8893 16.84956,-3.89009 z M 179.2098,330.22206 c 6.6,-1.11465 18.975,-2.29017 27.5,-2.61227 8.525,-0.32209 16.22458,-0.95793 17.11018,-1.41297 1.38811,-0.71325 1.70816,-4.38404 2.32068,-26.617 0.78775,-28.59335 1.78615,-35.51337 7.25564,-50.28965 5.78749,-15.63538 10.88479,-24.16514 21.72242,-36.35008 12.94252,-14.55148 15.0489,-18.9744 15.07301,-31.64992 0.016,-8.39062 -0.29297,-10.08389 -2.64553,-14.5 -2.70639,-5.08032 -7.71143,-10.38923 -13.5864,-14.41123 l -3.25,-2.22496 v -10.72181 c 0,-18.18542 -3.65164,-27.61605 -14.89673,-38.47189 -10.15292,-9.801462 -16.60172,-12.439457 -33.09466,-13.537949 l -9.4914,-0.632162 -5.0086,-8.718619 C 181.70909,66.740589 177.1706,61.431133 169.76992,56.489149 160.28127,50.15287 152.18789,47.818346 139.7098,47.818346 c -8.34544,0 -11.87285,0.471464 -17.19044,2.297623 -22.774471,7.821176 -36.768018,28.078386 -36.802002,53.274981 -0.01201,8.90261 -1.27943,11.23248 -8.082993,14.85874 -26.077241,13.89903 -34.318675,43.80006 -18.598204,67.4768 5.087134,7.66178 5.167105,8.50225 1.642908,17.26633 -2.733013,6.79655 -3.092387,8.75999 -2.799917,15.29735 0.40579,9.07029 3.744265,16.66971 10.275171,23.38952 5.028091,5.17353 8.746319,7.21989 20.905413,11.50551 16.559114,5.83646 25.344114,11.15613 39.805874,24.10407 9.66553,8.65376 18.15224,20.54832 27.77487,38.92787 4.62827,8.84017 8.89975,16.0637 9.49218,16.05229 0.59243,-0.0114 6.47714,-0.93272 13.07714,-2.04737 z m 1.64328,-38.68189 c -2.29053,-1.92872 -4.76498,-9.90829 -10.62596,-34.26638 l -3.7335,-15.51637 -13.64191,-5.38792 c -26.61009,-10.50973 -31.42318,-13.92426 -28.06391,-19.90923 2.88623,-5.14218 5.5109,-5.05818 20.23407,0.64753 13.97572,5.41604 15.68793,5.86602 15.68793,4.12283 0,-2.25807 -5.06898,-23.65571 -6.53148,-27.57129 l -1.54291,-4.13082 -21.7128,-8.76353 C 98.064572,167.50313 90.928499,164.0097 90.120539,160.79053 c -0.475151,-1.89315 -0.09264,-3.45242 1.309334,-5.33741 3.588383,-4.82468 4.827797,-4.5652 36.021497,7.54146 10.58286,4.10733 19.65053,7.31661 20.15039,7.13173 0.49986,-0.18488 -0.82926,-7.31114 -2.9536,-15.83614 -2.12434,-8.525 -3.87951,-16.93036 -3.90039,-18.67857 -0.0621,-5.19813 4.40916,-8.24253 9.34788,-6.36483 3.14271,1.19485 3.48504,2.0195 8.68367,20.9181 2.21119,8.03834 4.40217,14.99698 4.86885,15.46366 0.46667,0.46668 7.41535,-6.82244 15.4415,-16.19803 18.87201,-22.04498 20.99846,-24.14033 24.49848,-24.14033 2.98531,0 5.47107,2.13776 6.52749,5.61367 0.87729,2.88651 -2.48399,7.63248 -23.2914,32.88633 l -17.30253,21 0.56024,5.5 c 0.63783,6.26166 5.42437,26.07839 6.60016,27.32526 0.42802,0.45389 5.36068,-4.38361 10.96149,-10.75 9.73445,-11.06509 10.35597,-11.57526 14.10168,-11.57526 4.82186,0 7.5117,3.23225 6.50482,7.81653 -0.35005,1.59379 -5.84617,9.37458 -12.2136,17.29064 -6.36742,7.91605 -12.23301,15.38316 -13.03464,16.59356 -1.31852,1.99086 -0.97978,4.23191 3.55206,23.5 7.0498,29.97374 6.71969,27.32637 3.77467,30.27139 -2.9512,2.9512 -6.54419,3.24616 -9.47551,0.77788 z m 220.98016,-41.28314 c 5.34295,-5.69095 9.01663,-11.59516 10.86812,-17.46686 1.54629,-4.9038 3.39903,-7.13023 6.60256,-7.93427 2.95924,-0.74272 5.34895,0.44495 11.90588,5.91716 2.75,2.29506 6.60085,5.13345 8.55745,6.30753 3.2817,1.96922 13.63964,5.20958 16.65265,5.20958 1.7845,0 1.60855,-3.82829 -0.68741,-14.95608 -2.47743,-12.00736 -6.5102,-20.1617 -13.22209,-26.73533 -5.2421,-5.13412 -15.99729,-12.30859 -18.45169,-12.30859 -0.69782,0 -3.32896,2.20251 -5.84697,4.89448 -5.72646,6.12205 -9.38916,7.80909 -13.37222,6.15925 -2.55874,-1.05986 -5.12972,-4.59016 -5.12972,-7.04378 0,-0.49278 2.56369,-3.66504 5.69708,-7.04947 l 5.69708,-6.15353 -2.41615,-4.65347 c -1.32888,-2.55942 -5.58006,-7.84618 -9.44707,-11.74837 -5.39974,-5.44885 -8.38301,-7.59837 -12.85879,-9.26509 -6.89414,-2.56728 -16.53301,-4.09278 -26.03344,-4.12021 l -6.86129,-0.0198 0.6901,3.67856 c 1.24219,6.62144 4.72612,12.39529 12.62167,20.91771 4.27408,4.61342 8.05243,9.27456 8.39633,10.3581 1.02154,3.21858 -0.92392,5.40065 -8.53441,9.57243 -7.29417,3.99838 -20.39744,16.57687 -19.66652,18.87889 1.13312,3.56873 22.1203,6.05935 30.59013,3.63024 4.14797,-1.18962 10.06464,0.92646 10.24203,3.66304 0.0642,0.99057 0.20831,6.07603 0.32022,11.30103 0.25397,11.85821 4.19253,24 7.78513,24 0.64679,0 3.30239,-2.26491 5.90134,-5.03314 z"
         id="path2" />
    </g>
  </g>
</svg>
