<?xml version="1.0" encoding="UTF-8" standalone="no"?>
<!-- Created with Inkscape (http://www.inkscape.org/) -->

<svg
   version="1.1"
   id="svg1"
   width="512"
   height="512"
   viewBox="0 0 512 512"
   sodipodi:docname="mel.svg"
   inkscape:version="1.4 (e7c3feb1, 2024-10-09)"
   xmlns:inkscape="http://www.inkscape.org/namespaces/inkscape"
   xmlns:sodipodi="http://sodipodi.sourceforge.net/DTD/sodipodi-0.dtd"
   xmlns="http://www.w3.org/2000/svg"
   xmlns:svg="http://www.w3.org/2000/svg">
  <defs
     id="defs1" />
  <sodipodi:namedview
     id="namedview1"
     pagecolor="#ffffff"
     bordercolor="#000000"
     borderopacity="0.25"
     inkscape:showpageshadow="2"
     inkscape:pageopacity="0.0"
     inkscape:pagecheckerboard="0"
     inkscape:deskcolor="#d1d1d1"
     inkscape:zoom="0.36288641"
     inkscape:cx="311.39221"
     inkscape:cy="272.81264"
     inkscape:window-width="1104"
     inkscape:window-height="583"
     inkscape:window-x="0"
     inkscape:window-y="25"
     inkscape:window-maximized="0"
     inkscape:current-layer="g1" />
  <g
     inkscape:groupmode="layer"
     inkscape:label="Image"
     id="g1">
    <g
       id="g2"
       transform="translate(-4.1351611e-8,2.7556844)">
      <path
         style="fill:#dcdcdc"
         d="m 472.07895,372.41667 c 0.048,-1.16495 0.28494,-1.4019 0.60416,-0.60417 0.28887,0.72187 0.25335,1.58438 -0.0789,1.91667 -0.33229,0.33229 -0.56864,-0.25834 -0.52522,-1.3125 z M 63.767909,230.27527 c 1.79735,-0.22256 4.49735,-0.21797 6,0.0102 1.50265,0.22818 0.03209,0.41027 -3.267909,0.40466 -3.3,-0.006 -4.529441,-0.1923 -2.732091,-0.41486 z M 151,215.81591 c -4.56637,-1.72681 -7.72948,-4.30668 -18.63382,-15.19789 -9.89964,-9.88773 -13.90386,-14.65537 -16.26091,-19.36112 -8.01193,-15.99544 -8.12819,-32.07453 -0.34739,-48.0424 1.63099,-3.34714 6.06068,-9.08933 10.9319,-14.17096 l 8.18977,-8.54354 27.0393,26.97214 C 194.27621,169.74913 195.5,171.4994 195.5,185.5 c 0,8.44595 -0.22031,9.40015 -3.57879,15.5 C 183.87353,215.61664 166.81006,221.79464 151,215.81591 Z M 21.452948,211.75 17.5,207.5 l 4.25,3.95295 c 3.952458,3.6762 4.709525,4.54705 3.952948,4.54705 -0.163379,0 -2.075879,-1.9125 -4.25,-4.25 z M 23.5,122 c 2.148243,-2.2 4.130896,-4 4.405896,-4 0.275,0 -1.257653,1.8 -3.405896,4 -2.148243,2.2 -4.130896,4 -4.405896,4 -0.275,0 1.257653,-1.8 3.405896,-4 z m 46.887198,2.02056 C 56.01284,121.85944 47.844917,116.76854 31.103754,99.535992 18.857788,86.930584 18.661355,86.782084 14.900435,87.286529 11.117864,87.793878 11.084013,87.767246 9.640746,83.148582 6.9317507,74.479405 6.9292811,74 9.5936196,74 13.110112,74 15.640256,70.904663 16.891041,65.072454 20.749989,47.078801 37.094826,35.867112 54.718275,39.124983 c 3.145052,0.581395 7.532552,1.969873 9.75,3.085508 2.372292,1.193538 15.456134,13.38721 31.788235,29.625494 l 27.75651,27.597068 -6.25651,6.403217 c -3.44108,3.52177 -8.93782,8.16487 -12.21498,10.31801 -9.705305,6.37651 -23.914818,9.55609 -35.154332,7.86628 z M 11.872445,102.25 C 10.628574,100.66394 10.663944,100.62857 12.25,101.87244 13.915748,103.17881 14.445479,104 13.622445,104 c -0.207656,0 -0.995156,-0.7875 -1.75,-1.75 z m 152.999995,-25 C 163.62857,75.663944 163.66394,75.628574 165.25,76.872445 166.91575,78.178814 167.44548,79 166.62244,79 c -0.20765,0 -0.99515,-0.7875 -1.75,-1.75 z M 90.482946,44.75 79.5,33.5 90.75,44.482946 C 101.19944,54.684339 102.45409,56 101.73295,56 101.58607,56 96.523566,50.9375 90.482946,44.75 Z m 69.596004,-4.333333 c 0.048,-1.164943 0.28494,-1.4019 0.60416,-0.604167 0.28887,0.721875 0.25335,1.584375 -0.0789,1.916667 -0.3323,0.332291 -0.56864,-0.258334 -0.52522,-1.3125 z M 12,39.687091 c 0,-0.1721 1.4625,-1.6346 3.25,-3.25 L 18.5,33.5 15.562909,36.75 C 12.825128,39.779455 12,40.459652 12,39.687091 Z"
         id="path8" />
      <path
         style="fill:#fdda74"
         d="m 163.27188,495.75877 c -0.93589,-1.1929 -48.62826,-83.71013 -51.17582,-88.5443 -1.09647,-2.08062 1.14605,-6.36177 25.01202,-47.75 L 163.32456,314 l 53.08772,0.0165 53.08772,0.0165 26.26219,45.53926 26.2622,45.53927 -26.39076,45.69422 -26.39077,45.69422 -52.4917,0.25877 c -41.24703,0.20334 -52.70326,-0.0109 -53.47928,-1 z m 88.5286,-22.20238 c 8.91074,-4.06585 12.71397,-8.87673 27.43851,-34.7082 13.55797,-23.78495 15.47137,-28.90601 14.13513,-37.83158 -0.96796,-6.46558 -2.13095,-8.86222 -15.94614,-32.86104 -13.8193,-24.00597 -17.71703,-28.62343 -27.13696,-32.14787 -5.36738,-2.0082 -7.15238,-2.09869 -35.72036,-1.81076 L 184.5,334.5 l -5.04015,2.6605 c -7.78628,4.11009 -11.99312,9.58096 -25.63653,33.3395 -13.06594,22.75295 -14.8083,26.82039 -14.81774,34.59107 -0.009,7.64905 2.18058,12.70734 15.49776,35.79755 13.29291,23.04815 17.54323,28.50323 25.03329,32.12911 6.99657,3.38698 12.27265,3.86661 39.96337,3.63292 l 26,-0.21943 z M 288.0323,496.25 c 0.0178,-0.4125 10.70733,-19.2 23.75458,-41.75 l 23.72228,-41 52.99542,-0.24143 52.99542,-0.24143 12.761,22.24143 c 7.01855,12.23279 17.9001,31.12893 24.18122,41.99143 L 489.86244,497 h -12.36383 c -11.95723,0 -12.3858,-0.074 -13.03161,-2.25 -1.45558,-4.9044 -27.20582,-48.39813 -30.81904,-52.05524 -2.11862,-2.14436 -6.39362,-5.09042 -9.5,-6.5468 L 418.5,433.5 h -30.02103 -30.02102 l -6.64342,3.27054 c -3.65388,1.7988 -7.93016,4.73606 -9.50284,6.52724 -3.25609,3.70849 -27.78046,45.8799 -29.42585,50.59986 L 311.80435,497 h -11.90218 c -6.54619,0 -11.88763,-0.3375 -11.86987,-0.75 z M 309.2252,351.32781 282.9504,305.70651 309.27745,260.10326 335.60451,214.5 388.55225,214.28071 441.5,214.06142 466,256.65715 c 13.475,23.42764 25.33979,44.05055 26.3662,45.82868 l 1.86621,3.23297 -11.11621,19.21453 C 471.53286,344.95531 470.40384,348.24552 474,351.5 c 2.57038,2.32616 2.57024,2.32725 -1.16128,8.82396 -2.85146,4.9645 -3.38963,5.41708 -5.49132,4.61802 -5.30426,-2.01667 -7.67729,0.37733 -17.5922,17.7476 L 441.58685,397 388.54342,396.97456 335.5,396.94912 Z m 115.78729,22.46484 c 3.03187,-1.48904 6.94947,-4.18993 8.70578,-6.00198 1.75631,-1.81205 9.26877,-13.81636 16.69435,-26.67625 14.42181,-24.97622 16.38343,-30.05581 15.16216,-39.26221 -0.35074,-2.644 -1.41105,-6.54592 -2.35624,-8.67094 -4.01158,-9.01897 -26.03493,-45.73 -29.55488,-49.26543 -2.10999,-2.11928 -6.38499,-5.10482 -9.5,-6.63453 L 418.5,234.5 h -30 -30 l -5.65538,2.65136 c -3.11046,1.45825 -7.38546,4.43827 -9.5,6.62228 -4.53493,4.6839 -29.69172,47.92753 -31.25507,53.72636 -1.54594,5.73424 -1.28794,12.24141 0.71369,18 1.75595,5.05177 23.36877,43.26725 27.83708,49.22113 3.46037,4.61082 8.73571,8.36512 14.69213,10.45593 4.61118,1.61861 8.34369,1.78747 34.66755,1.56842 L 419.5,376.5 Z M 138.3322,254.22283 c -23.39201,-40.63783 -25.05565,-43.84761 -23.57829,-45.49131 1.49439,-1.66265 2.1692,-1.19895 11.27622,7.74852 7.33851,7.20995 11.2528,10.2271 16.14717,12.44631 l 6.46048,2.92932 9.34886,16.22843 c 5.14187,8.92563 10.66187,17.72386 12.26666,19.55162 1.6048,1.82775 5.90656,4.79494 9.55947,6.59374 l 6.64166,3.27054 h 29.02278 c 25.98477,0 29.59748,-0.19995 34.51291,-1.91012 9.15093,-3.18379 14.59844,-9.75236 28.90911,-34.85838 C 290.24417,220.82843 294,212.3125 294,206.49217 c 0,-6.30702 -3.81844,-14.97193 -15.73998,-35.71763 -13.52048,-23.52814 -17.69871,-28.84723 -25.7861,-32.82694 -4.87449,-2.39867 -5.548,-2.45372 -33.6909,-2.75372 -16.15713,-0.17223 -30.22421,0.11004 -32.16312,0.6454 -3.06712,0.84687 -3.7223,0.66058 -5.95711,-1.69388 -2.27006,-2.39158 -2.42649,-3.07716 -1.63044,-7.1454 0.4843,-2.475 0.90015,-6.1875 0.9241,-8.25 L 180,115 l 44.75,0.0345 44.75,0.0345 26.2509,45.60126 26.2509,45.60127 L 295.6854,251.8858 269.369,297.5 216.4345,297.72283 163.5,297.94566 Z M 56.582164,213.8803 c -2.15481,-0.50533 -6.506314,-2.08043 -9.670007,-3.50021 -5.675172,-2.54686 -5.761362,-2.64824 -6.438742,-7.57338 C 39.741655,197.48617 40.701383,185 41.842097,185 c 0.375601,0 7.421657,6.75 15.657903,15 l 14.974993,15 -5.987496,-0.10045 c -3.293124,-0.0553 -7.750523,-0.51391 -9.905333,-1.01925 z M 309.2117,152.43212 282.9234,106.88415 309.32427,61.192077 335.72515,15.5 h 52.86417 52.86417 L 460.22227,48 c 10.32283,17.875 22.18499,38.447509 26.36035,45.716686 l 7.59157,13.216684 -26.29737,45.53332 L 441.57945,198 388.53973,197.99 335.5,197.98 Z m 113.4698,23.41409 c 9.10044,-3.40491 14.02082,-9.31506 27.80731,-33.40097 13.80569,-24.11944 15.94947,-29.42133 15.21813,-37.63662 C 465.06801,97.631408 462.96903,93.104483 449.1037,69 436.35138,46.830465 430.91098,40.521499 421.81175,37.350877 417.13208,35.720246 413.16812,35.5 388.5,35.5 c -24.66812,0 -28.63208,0.220246 -33.31175,1.850877 C 345.80741,40.619626 340.6932,46.680326 326.37213,71.5 313.25986,94.224722 311,99.370089 311,106.5 c 0,7.26094 2.5781,13.26654 15.2042,35.41766 13.90447,24.39388 18.87163,30.44078 27.83031,33.87996 5.07967,1.95006 7.49235,2.10185 34.17798,2.15027 27.01816,0.049 29.05218,-0.075 34.46901,-2.10168 z M 83.135903,151.35944 c -6.46695,-6.44857 -9.851164,-10.49718 -9,-10.76689 0.750253,-0.23773 4.964097,-0.68792 9.364097,-1.00041 4.4,-0.31249 9.192293,-0.84238 10.649539,-1.17753 l 2.64954,-0.60936 -0.925945,4.34738 c -0.509269,2.39105 -1.251562,7.76604 -1.649539,11.94441 L 93.5,161.69408 Z m 67.986677,-46.7227 C 137.10221,90.566926 137.07598,90.202091 150.17919,91.517995 l 7.01594,0.704584 2.38222,5.138711 c 2.62031,5.6523 4.74267,14.48829 4.24272,17.66364 -0.2577,1.63674 -2.73203,-0.38759 -12.69749,-10.38819 z"
         id="path7" />
      <path
         style="fill:#fdc14f"
         d="m 329.16667,496.15914 c 0.18333,-0.46247 5.72807,-10.18134 12.32164,-21.5975 C 357.46544,446.89874 353.61015,449 388.38752,449 c 28.94064,0 29.64424,0.11477 34.70165,5.66072 2.07003,2.27 18.54286,30.00992 23.80626,40.08928 l 1.17494,2.25 h -59.61852 c -32.79018,0 -59.46852,-0.37838 -59.28518,-0.84086 z M 188.47495,459.93951 c -4.8933,-1.42366 -8.48067,-6.22892 -21.44429,-28.72448 l -12.26598,-21.28497 0.46388,-5.71503 c 0.41568,-5.12113 1.73186,-7.89463 12.6655,-26.68915 6.71089,-11.53576 12.96652,-21.81933 13.90142,-22.85238 4.48048,-4.95088 5.97702,-5.1735 34.77819,-5.1735 h 27.07368 l 3.92632,2.6254 c 3.19496,2.13637 6.3444,6.79318 16.90771,25 17.04956,29.38646 16.90998,26.6428 2.6136,51.3746 -15.63563,27.04863 -16.5447,28.34765 -21.3714,30.53876 -3.81705,1.73277 -6.6299,1.91075 -29.22358,1.84909 -13.75,-0.0375 -26.36127,-0.46428 -28.02505,-0.94834 z M 358.11624,359.31114 c -3.87728,-1.93707 -5.64827,-4.56276 -20.59415,-30.53297 -14.07609,-24.45887 -14.20145,-21.69643 2.27587,-50.15258 12.99698,-22.44565 14.97021,-25.14542 19.91992,-27.25447 4.62666,-1.97139 52.93758,-1.97139 57.56424,0 4.95312,2.1105 6.72641,4.57387 20.27121,28.15986 16.24094,28.28085 16.32547,24.1754 -1.1185,54.3257 -8.38471,14.49221 -13.99015,23.11064 -15.93483,24.5 -2.87297,2.05257 -4.18561,2.15394 -31,2.39415 -24.61716,0.22052 -28.40881,0.0466 -31.38376,-1.43969 z M 186.21816,259.90333 c -3.6556,-1.83029 -5.23717,-3.76309 -10.81392,-13.21536 -3.59265,-6.08933 -6.61582,-11.51543 -6.71816,-12.05799 -0.10235,-0.54257 1.81352,-1.34767 4.25748,-1.78913 13.27343,-2.3976 26.9688,-12.94556 33.33766,-25.67616 8.50809,-17.00668 6.7605,-35.44172 -4.86053,-51.27273 L 197.82966,151 h 22.69902 c 30.48913,0 26.7025,-2.39727 44.23879,28.00704 13.10971,22.72954 13.53048,23.65723 12.9731,28.60227 -0.6797,6.03029 -24.52122,47.35819 -29.5221,51.17487 L 244.66001,261.5 217.58,261.77358 c -25.9769,0.26243 -27.25442,0.18625 -31.36184,-1.87025 z M 33.632314,201.25 c -3.641249,-3.63557 -7.094932,-8.44893 -9.391954,-13.08949 -3.205575,-6.47605 -3.679896,-8.41715 -4.031901,-16.5 L 19.809523,162.5 l 10.94382,10.832 10.943821,10.83199 -0.95476,5.16801 c -0.525118,2.8424 -0.698911,7.9805 -0.386207,11.418 0.312704,3.4375 0.223527,6.25 -0.19817,6.25 -0.421698,0 -3.358268,-2.5875 -6.525713,-5.75 z M 362.5,162.07129 c -3.88564,-0.93772 -6.6253,-2.43583 -8.64753,-4.72867 -0.89384,-1.01344 -7.3013,-11.72769 -14.23881,-23.80945 C 328.42564,114.04911 327,111.04139 327,106.92173 c 0,-4.1221 1.44048,-7.155872 12.80422,-26.966803 9.15451,-15.959485 13.88348,-23.196223 16.59059,-25.388557 L 360.18119,51.5 386.28168,51.187119 c 28.1749,-0.337748 31.91563,0.183791 36.49394,5.088047 1.14234,1.223658 7.771,12.124834 14.73036,24.224834 16.32443,28.3827 16.4046,24.3168 -1.07457,54.50061 -7.11228,12.2818 -14.12024,23.20755 -15.57325,24.27946 -1.45301,1.07191 -4.60301,2.3278 -7,2.79087 -5.27208,1.01852 -47.138,1.0188 -51.35816,3.5e-4 z M 127.23758,80.699388 116.5,69.898776 122,70.600844 c 7.77957,0.993052 15.11274,3.703316 21.51102,7.950254 C 148.52152,81.876879 156,89.357509 156,91.04367 c 0,0.376021 -4.05559,0.632521 -9.01242,0.570002 L 137.97516,91.5 Z"
         id="path6" />
      <path
         style="fill:#dab154"
         d="m 204.25,476.25323 c 6.4625,-0.17418 17.0375,-0.17418 23.5,0 6.4625,0.17419 1.175,0.3167 -11.75,0.3167 -12.925,0 -18.2125,-0.14251 -11.75,-0.3167 z M 181.40499,455.75 179.5,453.5 l 2.25,1.90499 c 2.11444,1.79022 2.70524,2.59501 1.90499,2.59501 -0.18976,0 -1.20226,-1.0125 -2.25,-2.25 z m 241,-2 -1.90499,-2.25 2.25,1.90499 c 1.2375,1.04774 2.25,2.06024 2.25,2.25 0,0.80025 -0.80479,0.20945 -2.59501,-1.90499 z M 340,445.62244 c 0,-0.20765 0.7875,-0.99515 1.75,-1.75 1.58606,-1.24387 1.62143,-1.2085 0.37756,0.37756 C 340.82119,445.91575 340,446.44548 340,445.62244 Z M 433.40499,442.75 431.5,440.5 l 2.25,1.90499 c 1.2375,1.04774 2.25,2.06024 2.25,2.25 0,0.80025 -0.80479,0.20945 -2.59501,-1.90499 z m -71.59249,-9.43311 c 0.72187,-0.28887 1.58438,-0.25335 1.91667,0.0789 0.33229,0.33229 -0.25834,0.56864 -1.3125,0.52522 -1.16495,-0.048 -1.4019,-0.28494 -0.60417,-0.60416 z m 52,0 c 0.72187,-0.28887 1.58438,-0.25335 1.91667,0.0789 0.33229,0.33229 -0.25834,0.56864 -1.3125,0.52522 -1.16495,-0.048 -1.4019,-0.28494 -0.60417,-0.60416 z M 293.232,405 c 0,-1.925 0.2058,-2.7125 0.45733,-1.75 0.25152,0.9625 0.25152,2.5375 0,3.5 -0.25153,0.9625 -0.45733,0.175 -0.45733,-1.75 z m -139.07411,0 c 0,-1.375 0.22698,-1.9375 0.50439,-1.25 0.27741,0.6875 0.27741,1.8125 0,2.5 -0.27741,0.6875 -0.50439,0.125 -0.50439,-1.25 z m 222.64946,-43.74746 c 6.76904,-0.17326 17.56904,-0.17273 24,10e-4 6.43096,0.17391 0.89265,0.31567 -12.30735,0.31502 -13.2,-6.6e-4 -18.46169,-0.14295 -11.69265,-0.31621 z M 239.8125,349.31689 c 0.72187,-0.28887 1.58437,-0.25335 1.91667,0.0789 0.33229,0.33229 -0.25834,0.56864 -1.3125,0.52522 -1.16495,-0.048 -1.4019,-0.28494 -0.60417,-0.60416 z M 189.25,313.25071 c 14.7125,-0.15586 38.7875,-0.15586 53.5,0 14.7125,0.15585 2.675,0.28337 -26.75,0.28337 -29.425,0 -41.4625,-0.12752 -26.75,-0.28337 z m 13.94097,-35.99748 c 6.98004,-0.17166 18.68004,-0.17212 26,-10e-4 7.31997,0.17109 1.60903,0.31154 -12.69097,0.31211 -14.3,5.7e-4 -20.28906,-0.13941 -13.30903,-0.31107 z M 170.43709,267.75 167.5,264.5 l 3.25,2.93709 c 3.02946,2.73778 3.70965,3.56291 2.93709,3.56291 -0.1721,0 -1.6346,-1.4625 -3.25,-3.25 z M 353.5,255 c 0.99549,-1.1 2.03498,-2 2.30998,-2 0.275,0 -0.31449,0.9 -1.30998,2 -0.99549,1.1 -2.03498,2 -2.30998,2 -0.275,0 0.31449,-0.9 1.30998,-2 z m 68.37244,-0.75 c -1.24387,-1.58606 -1.2085,-1.62143 0.37756,-0.37756 1.66575,1.30637 2.19548,2.12756 1.37244,2.12756 -0.20765,0 -0.99515,-0.7875 -1.75,-1.75 z M 342,244.62244 c 0,-0.20765 0.7875,-0.99515 1.75,-1.75 1.58606,-1.24387 1.62143,-1.2085 0.37756,0.37756 C 342.82119,244.91575 342,245.44548 342,244.62244 Z m 33.19097,-10.36921 c 6.98004,-0.17166 18.68004,-0.17212 26,-0.001 7.31997,0.17109 1.60903,0.31154 -12.69097,0.31211 -14.3,5.7e-4 -20.28906,-0.13941 -13.30903,-0.31107 z M 197,219.5 c 1.29175,-1.375 2.57363,-2.5 2.84863,-2.5 0.275,0 -0.55688,1.125 -1.84863,2.5 -1.29175,1.375 -2.57363,2.5 -2.84863,2.5 -0.275,0 0.55688,-1.125 1.84863,-2.5 z m -84,-9.87756 c 0,-0.20765 0.7875,-0.99515 1.75,-1.75 1.58606,-1.24387 1.62143,-1.2085 0.37756,0.37756 C 113.82119,209.91575 113,210.44548 113,209.62244 Z M 293.25218,206.5 c 0.0111,-2.2 0.21589,-2.98225 0.45508,-1.73834 0.23919,1.24391 0.23011,3.04391 -0.0202,4 -0.25029,0.95609 -0.446,-0.0617 -0.4349,-2.26166 z M 34.872445,203.25 c -1.243871,-1.58606 -1.208501,-1.62143 0.377555,-0.37756 0.9625,0.75485 1.75,1.54235 1.75,1.75 0,0.82304 -0.821186,0.29331 -2.127555,-1.37244 z m -4,-4 c -1.243871,-1.58606 -1.208501,-1.62143 0.377555,-0.37756 0.9625,0.75485 1.75,1.54235 1.75,1.75 0,0.82304 -0.821186,0.29331 -2.127555,-1.37244 z m 331.447915,-0.99943 c 14.7512,-0.15592 38.6012,-0.15579 53,3e-4 14.3988,0.15609 2.32964,0.28367 -26.82036,0.2835 -29.15,-1.6e-4 -40.93084,-0.12787 -26.17964,-0.2838 z M 211.15789,188 c 0,-1.375 0.22698,-1.9375 0.50439,-1.25 0.27741,0.6875 0.27741,1.8125 0,2.5 -0.27741,0.6875 -0.50439,0.125 -0.50439,-1.25 z m 0,-5 c 0,-1.375 0.22698,-1.9375 0.50439,-1.25 0.27741,0.6875 0.27741,1.8125 0,2.5 -0.27741,0.6875 -0.50439,0.125 -0.50439,-1.25 z M 19.272364,168 c 0,-2.475 0.195016,-3.4875 0.433369,-2.25 0.238353,1.2375 0.238353,3.2625 0,4.5 -0.238353,1.2375 -0.433369,0.225 -0.433369,-2.25 z m 74.922585,-7.5 c 0.02038,-1.65 0.244498,-2.20394 0.498042,-1.23097 0.253543,0.97297 0.236869,2.32297 -0.03705,3 C 94.382014,162.94606 94.174569,162.15 94.194949,160.5 Z m 317.617551,1.81689 c 0.72187,-0.28887 1.58438,-0.25335 1.91667,0.0789 0.33229,0.33229 -0.25834,0.56864 -1.3125,0.52522 -1.16495,-0.048 -1.4019,-0.28494 -0.60417,-0.60416 z M 94.194949,153.5 c 0.02038,-1.65 0.244498,-2.20394 0.498042,-1.23097 0.253543,0.97297 0.236869,2.32297 -0.03705,3 C 94.382014,155.94606 94.174569,155.15 94.194949,153.5 Z M 198.2,152.8 c -0.66,-0.66 -1.2,-1.56 -1.2,-2 0,-0.44 9.7875,-0.69694 21.75,-0.57098 l 21.75,0.22902 -21.35568,0.29118 c -18.71913,0.25522 -21.20406,0.47387 -20.12756,1.77098 1.47156,1.77312 0.87942,1.97598 -0.81676,0.2798 z m 62.72431,-8.55 -2.42431,-2.75 2.75,2.42431 c 2.57029,2.26589 3.20859,3.07569 2.42431,3.07569 -0.17912,0 -1.41662,-1.2375 -2.75,-2.75 z m -81,-10 -2.42431,-2.75 2.75,2.42431 c 2.57029,2.26589 3.20859,3.07569 2.42431,3.07569 -0.17912,0 -1.41662,-1.2375 -2.75,-2.75 z M 139.49219,93.75 115.5,69.5 139.75,93.492187 C 153.0875,106.68789 164,117.60039 164,117.74219 164,118.45081 161.7865,116.28388 139.49219,93.75 Z M 377.30642,35.252744 c 6.49353,-0.174455 16.84353,-0.173881 23,0.0013 6.15647,0.175157 0.84358,0.317892 -11.80642,0.31719 -12.65,-7.02e-4 -17.68711,-0.144012 -11.19358,-0.318467 z"
         id="path5" />
      <path
         style="fill:#6c6c6c"
         d="m 152.87244,509.25 c -1.24387,-1.58606 -1.2085,-1.62143 0.37756,-0.37756 0.9625,0.75485 1.75,1.54235 1.75,1.75 0,0.82304 -0.82119,0.29331 -2.12756,-1.37244 z M 507,510.62244 c 0,-0.20765 0.7875,-0.99515 1.75,-1.75 1.58606,-1.24387 1.62143,-1.2085 0.37756,0.37756 C 507.82119,510.91575 507,511.44548 507,510.62244 Z M 510.19495,504.5 c 0.0204,-1.65 0.2445,-2.20394 0.49804,-1.23097 0.25354,0.97297 0.23687,2.32297 -0.0371,3 -0.27393,0.67703 -0.48137,-0.11903 -0.46099,-1.76903 z M 510.15789,306 c 0,-1.375 0.22698,-1.9375 0.50439,-1.25 0.27741,0.6875 0.27741,1.8125 0,2.5 -0.27741,0.6875 -0.50439,0.125 -0.50439,-1.25 z M 56.8125,229.31689 c 0.721875,-0.28887 1.584375,-0.25335 1.916667,0.0789 0.332291,0.33229 -0.258334,0.56864 -1.3125,0.52522 -1.164943,-0.048 -1.4019,-0.28494 -0.604167,-0.60416 z m 18,0 c 0.721875,-0.28887 1.584375,-0.25335 1.916667,0.0789 0.332291,0.33229 -0.258334,0.56864 -1.3125,0.52522 -1.164943,-0.048 -1.4019,-0.28494 -0.604167,-0.60416 z M 160.75,218.29427 c 1.2375,-0.23836 3.2625,-0.23836 4.5,0 1.2375,0.23835 0.225,0.43337 -2.25,0.43337 -2.475,0 -3.4875,-0.19502 -2.25,-0.43337 z M 131.47915,200.75 122.5,191.5 l 9.25,8.97915 c 5.0875,4.93853 9.25,9.10103 9.25,9.25 0,0.72605 -1.18122,-0.38796 -9.52085,-8.97915 z m -74.764007,-23.53478 -31.773137,-31.78478 2.967199,-4.46522 c 1.63196,-2.45587 4.688195,-6.13975 6.791634,-8.18639 l 3.824435,-3.72117 33.237363,32.55476 C 90.043187,179.51753 105,194.71087 105,195.37538 105,197.52083 92.032832,209 89.609282,209 88.992731,209 74.190369,194.69685 56.715143,177.21522 Z m 139.363807,8.20145 c 0.048,-1.16495 0.28494,-1.4019 0.60416,-0.60417 0.28887,0.72187 0.25335,1.58437 -0.0789,1.91667 -0.3323,0.33229 -0.56864,-0.25834 -0.52522,-1.3125 z M 4.2521834,172.5 c 0.011099,-2.2 0.2158842,-2.98225 0.4550775,-1.73834 0.2391932,1.24391 0.2301119,3.04391 -0.020181,4 C 4.4367876,175.71775 4.241084,174.7 4.2521834,172.5 Z M 110.07895,166.41667 c 0.048,-1.16495 0.28494,-1.4019 0.60416,-0.60417 0.28887,0.72187 0.25335,1.58437 -0.0789,1.91667 -0.3323,0.33229 -0.56864,-0.25834 -0.52522,-1.3125 z M 4.2320027,164 c 0,-1.925 0.2057953,-2.7125 0.4573228,-1.75 0.2515276,0.9625 0.2515276,2.5375 0,3.5 C 4.437798,166.7125 4.2320027,165.925 4.2320027,164 Z M 109.232,157 c 0,-1.925 0.2058,-2.7125 0.45733,-1.75 0.25152,0.9625 0.25152,2.5375 0,3.5 -0.25153,0.9625 -0.45733,0.175 -0.45733,-1.75 z m 0.84695,-9.58333 c 0.048,-1.16495 0.28494,-1.4019 0.60416,-0.60417 0.28887,0.72187 0.25335,1.58437 -0.0789,1.91667 -0.3323,0.33229 -0.56864,-0.25834 -0.52522,-1.3125 z M 17,129.62244 c 0,-0.20765 0.7875,-0.99515 1.75,-1.75 1.586056,-1.24387 1.621426,-1.2085 0.377555,0.37756 C 17.821186,129.91575 17,130.44548 17,129.62244 Z m 54.269032,-5.31543 c 0.972967,-0.25354 2.322967,-0.23687 3,0.037 0.677032,0.27393 -0.119032,0.48137 -1.769032,0.46099 -1.65,-0.0204 -2.203936,-0.2445 -1.230968,-0.49804 z m 10,0 c 0.972967,-0.25354 2.322967,-0.23687 3,0.037 0.677032,0.27393 -0.119032,0.48137 -1.769032,0.46099 -1.65,-0.0204 -2.203936,-0.2445 -1.230968,-0.49804 z M 128,116.5 c 3.54322,-3.575 6.66722,-6.5 6.94222,-6.5 0.275,0 -2.399,2.925 -5.94222,6.5 -3.54322,3.575 -6.66722,6.5 -6.94222,6.5 -0.275,0 2.399,-2.925 5.94222,-6.5 z M 20.47318,110.75 13.5,103.5 l 7.25,6.97318 c 3.9875,3.83525 7.25,7.09775 7.25,7.25 0,0.73351 -1.050128,-0.23938 -7.52682,-6.97318 z M 117.5,106 c 3.26557,-3.3 6.16239,-6 6.43739,-6 0.275,0 -2.17182,2.7 -5.43739,6 -3.26557,3.3 -6.16239,6 -6.43739,6 -0.275,0 2.17182,-2.7 5.43739,-6 z M 32.479151,101.75 23.5,92.5 l 9.25,8.97915 c 5.0875,4.93853 9.25,9.10103 9.25,9.25 0,0.72605 -1.181215,-0.38796 -9.520849,-8.97915 z M 510.15789,107 c 0,-1.375 0.22698,-1.9375 0.50439,-1.25 0.27741,0.6875 0.27741,1.8125 0,2.5 -0.27741,0.6875 -0.50439,0.125 -0.50439,-1.25 z M 176.65373,99.25 c -0.42209,-0.681815 34.12721,-0.668662 76.34627,0.02907 9.075,0.149977 -4.28594,0.373541 -29.69098,0.49681 C 197.90398,99.899144 176.9091,99.6625 176.65373,99.25 Z M 8.0789474,94.416667 c 0.047984,-1.164943 0.2849403,-1.4019 0.6041666,-0.604167 0.2888706,0.721875 0.2533443,1.584375 -0.078947,1.916667 -0.3322917,0.332291 -0.5686404,-0.258334 -0.5252196,-1.3125 z M 20.872445,89.25 C 19.628574,87.663944 19.663944,87.628574 21.25,88.872445 22.915748,90.178814 23.445479,91 22.622445,91 c -0.207656,0 -0.995156,-0.7875 -1.75,-1.75 z m 145.999995,-9 c -1.26951,-1.618755 -1.22245,-1.639977 0.62756,-0.282968 1.1,0.806868 2.1875,1.594368 2.41667,1.75 C 170.14583,81.872665 169.86343,82 169.28911,82 c -0.57432,0 -1.66182,-0.7875 -2.41667,-1.75 z m -6.43535,-7.5 -2.93709,-3.25 3.25,2.937091 C 163.77946,75.174872 164.45965,76 163.68709,76 c -0.1721,0 -1.6346,-1.4625 -3.25,-3.25 z M 4.5070792,73.011454 C 4.1567404,72.444594 4.5581371,72.276947 5.4480622,72.618443 7.1804795,73.283234 7.4974491,74 6.059017,74 5.5414763,74 4.8431043,73.555154 4.5070792,73.011454 Z M 1.1949487,66.5 c 0.02038,-1.65 0.2444986,-2.203936 0.498042,-1.230968 0.2535434,0.972967 0.2368691,2.322967 -0.037054,3 C 1.3820136,68.946064 1.174569,68.15 1.1949487,66.5 Z M 16.078947,65.416667 c 0.04798,-1.164943 0.284941,-1.4019 0.604167,-0.604167 0.288871,0.721875 0.253344,1.584375 -0.07895,1.916667 -0.332292,0.332291 -0.568641,-0.258334 -0.52522,-1.3125 z M 102.8125,56.316886 c 0.72187,-0.288871 1.58437,-0.253344 1.91667,0.07895 0.33229,0.332292 -0.25834,0.568641 -1.3125,0.52522 -1.16495,-0.04798 -1.4019,-0.284941 -0.60417,-0.604167 z m 5.9375,-0.979167 c 0.6875,-0.277412 1.8125,-0.277412 2.5,0 0.6875,0.277413 0.125,0.504386 -1.25,0.504386 -1.375,0 -1.9375,-0.226973 -1.25,-0.504386 z m 15.0625,-0.02083 c 0.72187,-0.288871 1.58437,-0.253344 1.91667,0.07895 0.33229,0.332292 -0.25834,0.568641 -1.3125,0.52522 -1.16495,-0.04798 -1.4019,-0.284941 -0.60417,-0.604167 z M 21,52.622445 c 0,-0.207656 0.7875,-0.995156 1.75,-1.75 C 24.336056,49.628574 24.371426,49.663944 23.127555,51.25 21.821186,52.915748 21,53.445479 21,52.622445 Z M 43.75,38.337719 c 0.6875,-0.277412 1.8125,-0.277412 2.5,0 0.6875,0.277413 0.125,0.504386 -1.25,0.504386 -1.375,0 -1.9375,-0.226973 -1.25,-0.504386 z m 8,0 c 0.6875,-0.277412 1.8125,-0.277412 2.5,0 0.6875,0.277413 0.125,0.504386 -1.25,0.504386 -1.375,0 -1.9375,-0.226973 -1.25,-0.504386 z M 146,36.622445 c 0,-0.207656 0.7875,-0.995156 1.75,-1.75 1.58606,-1.243871 1.62143,-1.208501 0.37756,0.377555 C 146.82119,36.915748 146,37.445479 146,36.622445 Z M 45.75,23.276604 c 1.7875,-0.221826 4.7125,-0.221826 6.5,0 1.7875,0.221827 0.325,0.403322 -3.25,0.403322 -3.575,0 -5.0375,-0.181495 -3.25,-0.403322 z"
         id="path4" />
      <path
         style="fill:#8c7237"
         d="m 261,466.5 c 1.29175,-1.375 2.57363,-2.5 2.84863,-2.5 0.275,0 -0.55688,1.125 -1.84863,2.5 -1.29175,1.375 -2.57363,2.5 -2.84863,2.5 -0.275,0 0.55688,-1.125 1.84863,-2.5 z M 250.5,456 c 0.99549,-1.1 2.03498,-2 2.30998,-2 0.275,0 -0.31449,0.9 -1.30998,2 -0.99549,1.1 -2.03498,2 -2.30998,2 -0.275,0 0.31449,-0.9 1.30998,-2 z m 124.69097,-7.74677 c 6.98004,-0.17166 18.68004,-0.17212 26,-10e-4 7.31997,0.17109 1.60903,0.31154 -12.69097,0.31211 -14.3,5.7e-4 -20.28906,-0.13941 -13.30903,-0.31107 z m 1.11725,-15.00087 c 7.04451,-0.17214 18.29451,-0.17164 25,10e-4 6.70548,0.17275 0.94178,0.31359 -12.80822,0.31298 -13.75,-6.1e-4 -19.2363,-0.14195 -12.19178,-0.31409 z M 361.25,412.25071 c 14.7125,-0.15586 38.7875,-0.15586 53.5,0 14.7125,0.15585 2.675,0.28337 -26.75,0.28337 -29.425,0 -41.4625,-0.12752 -26.75,-0.28337 z M 139.15789,408 c 0,-1.375 0.22698,-1.9375 0.50439,-1.25 0.27741,0.6875 0.27741,1.8125 0,2.5 -0.27741,0.6875 -0.50439,0.125 -0.50439,-1.25 z m 14.92106,0.41667 c 0.048,-1.16495 0.28494,-1.4019 0.60416,-0.60417 0.28887,0.72187 0.25335,1.58438 -0.0789,1.91667 -0.3323,0.33229 -0.56864,-0.25834 -0.52522,-1.3125 z M 278.15789,405 c 0,-1.375 0.22698,-1.9375 0.50439,-1.25 0.27741,0.6875 0.27741,1.8125 0,2.5 -0.27741,0.6875 -0.50439,0.125 -0.50439,-1.25 z m -139,-3 c 0,-1.375 0.22698,-1.9375 0.50439,-1.25 0.27741,0.6875 0.27741,1.8125 0,2.5 -0.27741,0.6875 -0.50439,0.125 -0.50439,-1.25 z m 195.49602,-4.75 c -0.42144,-0.68101 40.02982,-0.66946 88.84609,0.0254 10.45,0.14874 -5.16094,0.37263 -34.69098,0.49753 -29.53004,0.12491 -53.89984,-0.1104 -54.15511,-0.5229 z m 27.61512,-20.94299 c 0.97297,-0.25354 2.32297,-0.23687 3,0.0371 0.67703,0.27393 -0.11903,0.48137 -1.76903,0.46099 -1.65,-0.0204 -2.20394,-0.2445 -1.23097,-0.49804 z m 50,0 c 0.97297,-0.25354 2.32297,-0.23687 3,0.0371 0.67703,0.27393 -0.11903,0.48137 -1.76903,0.46099 -1.65,-0.0204 -2.20394,-0.2445 -1.23097,-0.49804 z M 342.40499,366.75 340.5,364.5 l 2.25,1.90499 c 1.2375,1.04774 2.25,2.06024 2.25,2.25 0,0.80025 -0.80479,0.20945 -2.59501,-1.90499 z M 432,368.62244 c 0,-0.20765 0.7875,-0.99515 1.75,-1.75 1.58606,-1.24387 1.62143,-1.2085 0.37756,0.37756 C 432.82119,368.91575 432,369.44548 432,368.62244 Z m -69.1875,-7.30555 c 0.72187,-0.28887 1.58438,-0.25335 1.91667,0.0789 0.33229,0.33229 -0.25834,0.56864 -1.3125,0.52522 -1.16495,-0.048 -1.4019,-0.28494 -0.60417,-0.60416 z m 50,0 c 0.72187,-0.28887 1.58438,-0.25335 1.91667,0.0789 0.33229,0.33229 -0.25834,0.56864 -1.3125,0.52522 -1.16495,-0.048 -1.4019,-0.28494 -0.60417,-0.60416 z M 352.87244,356.25 c -1.24387,-1.58606 -1.2085,-1.62143 0.37756,-0.37756 1.66575,1.30637 2.19548,2.12756 1.37244,2.12756 -0.20765,0 -0.99515,-0.7875 -1.75,-1.75 z M 181,354.5 c 1.29175,-1.375 2.57363,-2.5 2.84863,-2.5 0.275,0 -0.55688,1.125 -1.84863,2.5 -1.29175,1.375 -2.57363,2.5 -2.84863,2.5 -0.275,0 0.55688,-1.125 1.84863,-2.5 z m 79.87244,-11.25 c -1.24387,-1.58606 -1.2085,-1.62143 0.37756,-0.37756 1.66575,1.30637 2.19548,2.12756 1.37244,2.12756 -0.20765,0 -0.99515,-0.7875 -1.75,-1.75 z m -72.05994,-8.93311 c 0.72187,-0.28887 1.58437,-0.25335 1.91667,0.0789 0.33229,0.33229 -0.25834,0.56864 -1.3125,0.52522 -1.16495,-0.048 -1.4019,-0.28494 -0.60417,-0.60416 z m 52.9375,0.0208 c 0.6875,-0.27741 1.8125,-0.27741 2.5,0 0.6875,0.27741 0.125,0.50439 -1.25,0.50439 -1.375,0 -1.9375,-0.22698 -1.25,-0.50439 z M 311.28601,305.5 c 0.008,-2.75 0.20172,-3.75631 0.43157,-2.23625 0.22986,1.52006 0.22371,3.77006 -0.0136,5 -0.23736,1.22994 -0.42542,-0.0138 -0.41792,-2.76375 z m 14.96617,0 c 0.0111,-2.2 0.21589,-2.98225 0.45508,-1.73834 0.23919,1.24391 0.23011,3.04391 -0.0202,4 -0.25029,0.95609 -0.446,-0.0617 -0.4349,-2.26166 z M 450.232,306 c 0,-1.925 0.2058,-2.7125 0.45733,-1.75 0.25152,0.9625 0.25152,2.5375 0,3.5 -0.25153,0.9625 -0.45733,0.175 -0.45733,-1.75 z m 14.96295,-0.5 c 0.0204,-1.65 0.2445,-2.20394 0.49804,-1.23097 0.25354,0.97297 0.23687,2.32297 -0.0371,3 -0.27393,0.67703 -0.48137,-0.11903 -0.46099,-1.76903 z M 262,266.62244 c 0,-0.20765 0.7875,-0.99515 1.75,-1.75 1.58606,-1.24387 1.62143,-1.2085 0.37756,0.37756 C 262.82119,266.91575 262,267.44548 262,266.62244 Z m -57.19265,-4.3699 c 6.76904,-0.17326 17.56904,-0.17273 24,10e-4 6.43096,0.17391 0.89265,0.31567 -12.30735,0.31502 -13.2,-6.6e-4 -18.46169,-0.14295 -11.69265,-0.31621 z M 250,257.5 c 1.29175,-1.375 2.57363,-2.5 2.84863,-2.5 0.275,0 -0.55688,1.125 -1.84863,2.5 -1.29175,1.375 -2.57363,2.5 -2.84863,2.5 -0.275,0 0.55688,-1.125 1.84863,-2.5 z m 126.80735,-8.24746 c 6.76904,-0.17326 17.56904,-0.17273 24,10e-4 6.43096,0.17391 0.89265,0.31567 -12.30735,0.31502 -13.2,-6.6e-4 -18.46169,-0.14295 -11.69265,-0.31621 z M 123.47654,213.75 115.5,205.5 l 8.25,7.97654 c 4.5375,4.3871 8.25,8.0996 8.25,8.25 0,0.72935 -1.11509,-0.31419 -8.52346,-7.97654 z M 64.25,215.31067 c 0.9625,-0.25152 2.5375,-0.25152 3.5,0 0.9625,0.25153 0.175,0.45733 -1.75,0.45733 -1.925,0 -2.7125,-0.2058 -1.75,-0.45733 z M 46.556243,189.05627 C 32.29511,174.78722 20.260855,163.33878 19.813455,163.61529 19.366055,163.8918 19,163.64148 19,163.05902 19,162.47656 19.340684,162 19.757076,162 20.173468,162 32.432784,173.925 47,188.5 61.567216,203.075 73.260787,215 72.985712,215 72.710637,215 60.817376,203.32532 46.556243,189.05627 Z m 231.522707,17.3604 c 0.048,-1.16495 0.28494,-1.4019 0.60416,-0.60417 0.28887,0.72187 0.25335,1.58437 -0.0789,1.91667 -0.33229,0.33229 -0.56864,-0.25834 -0.52522,-1.3125 z M 360.75,177.33772 c 0.6875,-0.27741 1.8125,-0.27741 2.5,0 0.6875,0.27741 0.125,0.50439 -1.25,0.50439 -1.375,0 -1.9375,-0.22698 -1.25,-0.50439 z m 53,0 c 0.6875,-0.27741 1.8125,-0.27741 2.5,0 0.6875,0.27741 0.125,0.50439 -1.25,0.50439 -1.375,0 -1.9375,-0.22698 -1.25,-0.50439 z M 19.157895,174 c 0,-1.375 0.226973,-1.9375 0.504386,-1.25 0.277412,0.6875 0.277412,1.8125 0,2.5 -0.277413,0.6875 -0.504386,0.125 -0.504386,-1.25 z M 342.43709,167.75 339.5,164.5 l 3.25,2.93709 c 3.02946,2.73778 3.70965,3.56291 2.93709,3.56291 -0.1721,0 -1.6346,-1.4625 -3.25,-3.25 z M 433,168.5 c 1.29175,-1.375 2.57363,-2.5 2.84863,-2.5 0.275,0 -0.55688,1.125 -1.84863,2.5 -1.29175,1.375 -2.57363,2.5 -2.84863,2.5 -0.275,0 0.55688,-1.125 1.84863,-2.5 z M 82.734368,152.23498 C 76.280466,145.76422 71,140.13922 71,139.73498 c 0,-0.40424 0.7875,-0.69945 1.75,-0.65603 1.220641,0.0551 1.33755,0.24296 0.386487,0.62117 -0.897585,0.35694 2.685043,4.60135 10.484368,12.42105 C 90.13719,158.65453 95.243736,164 94.968736,164 c -0.275,0 -5.780465,-5.29426 -12.234368,-11.76502 z M 353.40499,157.75 351.5,155.5 l 2.25,1.90499 c 2.11444,1.79022 2.70524,2.59501 1.90499,2.59501 -0.18976,0 -1.20226,-1.0125 -2.25,-2.25 z M 422.5,158 c 0.99549,-1.1 2.03498,-2 2.30998,-2 0.275,0 -0.31449,0.9 -1.30998,2 -0.99549,1.1 -2.03498,2 -2.30998,2 -0.275,0 0.31449,-0.9 1.30998,-2 z m -181.6875,-7.68311 c 0.72187,-0.28887 1.58437,-0.25335 1.91667,0.0789 0.33229,0.33229 -0.25834,0.56864 -1.3125,0.52522 -1.16495,-0.048 -1.4019,-0.28494 -0.60417,-0.60416 z M 95.078947,146.41667 c 0.04798,-1.16495 0.284941,-1.4019 0.604167,-0.60417 0.288871,0.72187 0.253344,1.58437 -0.07895,1.91667 -0.332292,0.33229 -0.568641,-0.25834 -0.52522,-1.3125 z m -13.809915,-7.10966 c 0.972967,-0.25354 2.322967,-0.23687 3,0.0371 0.677032,0.27393 -0.119032,0.48137 -1.769032,0.46099 -1.65,-0.0204 -2.203936,-0.2445 -1.230968,-0.49804 z m 8.543468,-0.99012 c 0.721875,-0.28887 1.584375,-0.25335 1.916667,0.0789 0.332291,0.33229 -0.258334,0.56864 -1.3125,0.52522 -1.164943,-0.048 -1.4019,-0.28494 -0.604167,-0.60416 z m 100.45653,-3.00988 c 0.97297,-0.25354 2.32297,-0.23687 3,0.0371 0.67703,0.27393 -0.11903,0.48137 -1.76903,0.46099 -1.65,-0.0204 -2.20394,-0.2445 -1.23097,-0.49804 z m 50,0 c 0.97297,-0.25354 2.32297,-0.23687 3,0.0371 0.67703,0.27393 -0.11903,0.48137 -1.76903,0.46099 -1.65,-0.0204 -2.20394,-0.2445 -1.23097,-0.49804 z M 179.1681,118.25 179,114 l 45.75,0.23955 45.75,0.23955 -45.19024,0.2706 -45.19024,0.2706 -0.39166,3.73985 -0.39165,3.73985 z m -14.91592,-2.75 c 0.0111,-2.2 0.21589,-2.98225 0.45508,-1.73834 0.23919,1.24391 0.23011,3.04391 -0.0202,4 -0.25029,0.95609 -0.446,-0.0617 -0.4349,-2.26166 z M 311.27236,107 c 0,-2.475 0.19502,-3.4875 0.43337,-2.25 0.23836,1.2375 0.23836,3.2625 0,4.5 -0.23835,1.2375 -0.43337,0.225 -0.43337,-2.25 z m 14.97982,-0.5 c 0.0111,-2.2 0.21589,-2.98225 0.45508,-1.73834 0.23919,1.24391 0.23011,3.04391 -0.0202,4 -0.25029,0.95609 -0.446,-0.0617 -0.4349,-2.26166 z M 450.232,107 c 0,-1.925 0.2058,-2.7125 0.45733,-1.75 0.25152,0.9625 0.25152,2.5375 0,3.5 -0.25153,0.9625 -0.45733,0.175 -0.45733,-1.75 z m 15,0 c 0,-1.925 0.2058,-2.7125 0.45733,-1.75 0.25152,0.9625 0.25152,2.5375 0,3.5 -0.25153,0.9625 -0.45733,0.175 -0.45733,-1.75 z M 149.92431,83.25 147.5,80.5 l 2.75,2.424314 C 152.82029,85.190201 153.45859,86 152.67431,86 c -0.17912,0 -1.41662,-1.2375 -2.75,-2.75 z M 123.8125,70.316886 c 0.72187,-0.288871 1.58437,-0.253344 1.91667,0.07895 0.33229,0.332292 -0.25834,0.568641 -1.3125,0.52522 -1.16495,-0.04798 -1.4019,-0.284941 -0.60417,-0.604167 z M 422.40499,55.75 420.5,53.5 l 2.25,1.904988 c 1.2375,1.047743 2.25,2.060243 2.25,2.25 0,0.800253 -0.80479,0.209457 -2.59501,-1.904988 z m 12.46745,-8.5 C 433.62857,45.663944 433.66394,45.628574 435.25,46.872445 436.91575,48.178814 437.44548,49 436.62244,49 c -0.20765,0 -0.99515,-0.7875 -1.75,-1.75 z"
         id="path3" />
      <path
         style="fill:#010100"
         d="m 154.62128,509.75 c -2.37277,-2.14385 -57.899987,-97.39212 -59.972087,-102.87274 -0.896823,-2.37207 1.606648,-7.12537 26.192637,-49.73155 14.95133,-25.90984 27.68083,-48.19871 28.28778,-49.53082 0.99803,-2.19044 -1.15027,-6.3276 -22.46791,-43.26845 C 113.69741,241.8809 102.50745,222.72839 101.79513,221.78532 100.59442,220.19565 99.989655,220.32434 93.5,223.55044 59.464676,240.46989 18.296153,222.35222 7.0385219,185.5 5.4590964,180.3297 4.9024138,175.88614 4.908785,168.5 4.924665,150.0906 9.7396177,138.19935 23.094979,123.58646 l 5.154891,-5.64028 -9.624935,-9.91896 C 10.200728,99.345671 9,97.673934 9,94.626712 c 0,-4.235267 4.08281,-8.073728 7.638464,-7.181316 1.223765,0.307146 8.443242,6.759224 16.043282,14.337954 11.721041,11.68817 14.956538,14.33007 21.318254,17.4071 12.257653,5.92877 23.298847,7.2417 35.906932,4.26977 9.351917,-2.20441 17.058928,-6.74701 26.360778,-15.53735 L 124.5,100.14328 96.5,72.038962 C 63.845018,39.262325 62.756494,38.493959 49,38.509768 c -6.568388,0.0075 -9.562539,0.498608 -13.17567,2.16089 C 26.282449,45.060563 18.129467,55.1217 16.469611,64.555228 15.113153,72.264449 11.388107,75.231827 5.9135615,72.964196 0.55177586,70.743272 0.76167236,62.26841 6.4768742,50.219669 11.128907,40.412291 18.549114,33.071561 28.719669,28.215114 36.413328,24.541386 36.639248,24.5 49,24.5 c 12.341231,0 12.597962,0.04678 20.21261,3.682953 6.449472,3.079775 9.81897,5.736674 20.573864,16.2228 l 12.861256,12.539847 6.42613,-1.056306 c 7.27862,-1.196434 17.57192,-0.480622 25.0583,1.742593 2.78581,0.827297 5.19754,1.361062 5.35939,1.186145 C 139.65341,58.643114 141.21231,53.775 142.95578,48 c 3.58232,-11.865946 6.39392,-15.602025 10.93495,-14.530445 2.98106,0.703462 6.10729,3.971755 6.11342,6.391229 0.002,0.901569 -1.6194,7.039216 -3.60375,13.639216 l -3.60792,12 8.04489,8.158215 8.04488,8.158215 12.57082,-3.878923 c 9.60151,-2.962697 13.14415,-3.660942 14.99807,-2.956082 4.42967,1.684155 6.0052,7.751857 2.90294,11.179817 -0.90526,1.000297 -6.73712,3.408052 -12.9597,5.350567 -10.72638,3.348474 -11.271,3.647528 -10.4897,5.760017 l 0.82408,2.228174 46.11678,0.259975 46.11678,0.259975 2.35176,-3.759975 C 272.60754,94.191989 285.04505,72.7 298.95297,48.5 312.8609,24.3 325.33618,3.4875 326.67582,2.25 L 329.11153,0 387.80576,0.0147418 c 44.58811,0.01119887 59.27428,0.31161449 61.10773,1.25 C 452.11245,2.902015 510,102.9767 510,106.86972 c 0,1.70554 -10.25352,20.46386 -27.94761,51.12881 l -27.94762,48.43493 1.84634,3.03327 c 1.01549,1.6683 13.63418,23.45547 28.04153,48.41594 21.84158,37.84011 26.13106,45.90077 25.80931,48.5 -0.21224,1.71453 -5.935,12.71206 -12.71723,24.43896 -13.21146,22.84342 -14.65693,24.42664 -20.20369,22.12909 -1.57735,-0.65336 -3.18474,-2.38318 -3.76726,-4.05421 -1.1569,-3.31869 -0.33689,-5.07197 13.71006,-29.31381 l 8.06439,-13.9173 -2.37845,-4.0827 C 491.20162,299.33721 479.34719,278.825 466.1666,256 l -23.96472,-41.5 h -53.72813 -53.72813 l -26.28925,45.48069 c -14.45909,25.01438 -26.1779,45.71438 -26.04181,46 0.13609,0.28562 12.0961,21.10681 26.57779,46.26931 L 335.32269,398 h 53.13517 53.13518 l 8.45348,-14.73339 C 459.51167,366.76999 460.91659,365 464.54545,365 c 3.17976,0 7.46218,4.15168 7.43143,7.20455 -0.0127,1.2625 -4.02107,9.19025 -8.90745,17.61722 l -8.88433,15.32177 12.2279,21.17823 c 6.72535,11.64803 19.2837,33.38826 27.90745,48.31162 16.9359,29.30751 17.77368,31.57421 13.04469,35.29403 L 504.73028,512 H 330.92091 157.11153 Z M 295.81642,451.64722 C 310.21739,426.70319 322,405.76282 322,405.11306 322,404.4633 310.1875,383.46893 295.75,358.4589 l -26.25,-45.47277 -53.36705,0.25693 -53.36706,0.25694 -26.44876,45.81717 -26.44876,45.81717 25.1768,43.68283 c 13.84724,24.02556 25.81223,44.69533 26.58887,45.93283 l 1.41207,2.25 h 53.29336 53.29337 z m -111.50213,22.52445 c -7.26335,-2.55031 -12.68246,-6.38595 -16.09126,-11.38935 -5.45953,-8.01348 -25.94291,-44.2666 -27.19724,-48.13586 -1.72277,-5.31425 -1.50356,-15.55818 0.43327,-20.24745 3.32349,-8.04652 26.19231,-46.76967 29.88556,-50.6044 2.11454,-2.19554 6.38954,-5.185 9.5,-6.64325 L 186.5,334.5 h 29 c 42.00798,0 41.52404,-0.2531 59.80679,31.27861 6.28918,10.84677 12.66832,22.16823 14.17587,25.15882 3.26654,6.48 4.2749,14.99076 2.57737,21.75367 -1.52073,6.05857 -25.19665,47.36972 -30.39696,53.03843 -2.13403,2.32624 -6.41873,5.47624 -9.52156,7 L 246.5,475.5 218,475.74624 c -25.39992,0.21945 -29.06407,0.0482 -33.68571,-1.57457 z m 64.36325,-15.93817 c 2.15737,-1.53882 7.11522,-9.08371 15.44217,-23.5 14.05649,-24.33571 15.42722,-27.53719 14.07355,-32.87025 -0.51846,-2.04255 -6.73653,-13.69327 -13.81795,-25.89049 -11.2957,-19.456 -13.38625,-22.47648 -17.03992,-24.61974 l -4.16461,-2.44298 -27.91534,0.29498 -27.91534,0.29498 -3.54787,2.70769 c -2.52065,1.92375 -7.25539,9.14382 -16.35331,24.93743 -17.17307,29.81173 -17.01644,26.41379 -2.39033,51.85488 14.07726,24.48641 15.7052,26.91746 19.93304,29.76661 3.42517,2.30822 3.56007,2.31676 31.97902,2.02569 27.82377,-0.28497 28.61902,-0.34913 31.71689,-2.5588 z m 64.76788,36.12795 c 0.36423,-1.4512 6.50099,-12.8137 13.63724,-25.25 C 347.48226,433.56124 346.71477,434 388.5,434 c 26.60985,0 28.79077,0.13686 34.15338,2.14327 8.70261,3.25607 13.26845,8.68578 26.12623,31.06944 6.20379,10.79996 12.27879,21.90966 13.5,24.68822 l 2.22039,5.05193 12.75,0.0236 c 7.0125,0.013 12.75,-0.18694 12.75,-0.44423 0,-0.61911 -43.44697,-75.95428 -46.58836,-80.7822 L 440.97162,412 H 388.2194 335.46717 l -24.23359,41.98567 C 297.90511,477.07779 287,496.20279 287,496.48567 287,496.76855 292.80122,497 299.89159,497 h 12.89159 z M 447.20535,493.75 c -1.07678,-1.7875 -6.34923,-10.9 -11.71657,-20.25 -11.04445,-19.23965 -12.41385,-21.03696 -17.98878,-23.60996 -3.54062,-1.6341 -6.81369,-1.848 -28.5,-1.8625 -13.475,-0.009 -26.09496,0.4267 -28.04436,0.96826 -6.32516,1.75717 -7.7014,3.74938 -32.64368,47.2542 -0.2365,0.4125 26.85827,0.75 60.21058,0.75 h 60.64058 z M 295.58469,253.25 c 14.21119,-24.6125 25.8558,-45.67672 25.87692,-46.80938 C 321.48272,205.30796 309.8,184.05298 295.5,159.20733 l -26,-45.17392 -45.10198,-0.0167 -45.10198,-0.0167 -0.60797,9.25 c -0.56963,8.66658 -0.46665,9.39242 1.6328,11.5081 2.1678,2.18455 2.51239,2.22154 10.58045,1.13575 4.98404,-0.67075 17.67175,-0.9674 31.53249,-0.73727 l 23.19284,0.38506 6.6447,3.27118 c 3.785,1.86335 8.06148,4.93385 9.93668,7.1345 4.11556,4.82986 27.20675,45.01022 29.26797,50.92841 1.88911,5.42404 1.94971,12.39187 0.15951,18.34027 -0.75047,2.49363 -5.99523,12.57765 -11.65502,22.40893 C 262.7181,267.61042 261.65712,269.00919 252.5,273.8544 l -5,2.6456 h -31 -31 l -5.66054,-2.77978 c -7.70902,-3.78575 -10.84209,-7.60285 -21.56516,-26.27333 l -9.21983,-16.05312 -6.27723,-2.94688 c -4.50321,-2.11406 -9.12681,-5.70019 -16.36017,-12.68918 l -10.08293,-9.74229 -2.05932,2.24229 -2.05932,2.24229 23.14225,40.00311 c 12.72824,22.00171 24.13957,41.68921 25.35852,43.75 L 162.93255,298 h 53.40681 53.40681 z m -48.88638,7.50105 c 4.27123,-2.33566 6.14316,-5.03391 18.79142,-27.08648 12.42866,-21.66968 13.867,-25.12369 12.67279,-30.43207 -0.96796,-4.30265 -23.12666,-43.31019 -27.04297,-47.60566 C 246.34229,150.38706 244.12791,150 218.92853,150 h -23.13571 l 3.03815,3.46026 c 10.67304,12.15593 14.62366,29.23085 10.33857,44.68422 -4.71379,16.9994 -17.43251,29.21915 -35.07575,33.69971 l -7.02502,1.78402 6.04846,10.4359 c 8.06059,13.90757 10.3187,16.25166 17.38277,18.04464 1.65,0.41879 14.25,0.67815 28,0.57635 21.68979,-0.16059 25.42348,-0.41668 28.19831,-1.93405 z M 175.2855,216.4273 c 6.91014,-2.36739 14.7776,-9.94822 18.17043,-17.50845 2.19296,-4.88656 2.76629,-7.653 2.76629,-13.34782 0,-13.1888 -0.76485,-14.27046 -33.10455,-46.81684 l -28.56326,-28.74581 -5.36525,5.24581 c -20.16675,19.71783 -25.05274,42.26517 -14.02636,64.72726 3.5824,7.29777 5.85031,10.17546 16.25033,20.6196 11.89323,11.94369 16.8704,15.4982 24.32134,17.36942 4.85341,1.21887 13.4753,0.53834 19.55103,-1.54317 z M 69.973334,215.35533 73.196669,214.71067 46.85541,188.35533 C 32.367718,173.8599 20.173468,162 19.757076,162 c -1.273465,0 -0.818564,12.17986 0.662716,17.74407 2.226342,8.36292 5.447726,14.04113 11.846589,20.88154 8.431607,9.01341 19.865911,14.32279 32.858619,15.25749 0.89375,0.0643 3.0755,-0.1732 4.848334,-0.52777 z m 23.641807,-8.51968 C 98.551327,203.13231 105,196.64092 105,195.37538 105,194.71087 90.043187,179.51753 71.762637,161.61242 l -33.237363,-32.55476 -3.824435,3.72117 c -2.103439,2.04664 -5.159674,5.73052 -6.791634,8.18639 l -2.967199,4.46522 31.773137,31.78478 C 74.190369,194.69685 88.992731,209 89.609282,209 c 0.61655,0 2.419187,-0.97396 4.005859,-2.16435 z M 468.27359,152.9431 494.85489,106.88619 468.3217,60.934461 441.78851,14.98273 388.31041,15.241365 334.83231,15.5 308.44554,61.170246 282.05878,106.84049 308.6376,152.92025 335.21642,199 h 53.23793 53.23793 z m -108.55096,24.06466 c -6.23753,-1.10953 -12.58973,-4.90561 -17.37373,-10.38256 -4.68864,-5.36778 -28.04749,-45.9497 -29.52167,-51.28875 -1.69744,-6.14764 -0.53598,-17.064858 2.42953,-22.83645 6.87645,-13.383201 24.98635,-43.436368 28.22283,-46.835441 2.00859,-2.109492 6.20988,-5.034492 9.33619,-6.5 L 358.5,36.5 h 30 30 l 5.56658,2.610703 c 3.06162,1.435887 7.22037,4.313556 9.24166,6.394819 4.06029,4.180742 27.73639,44.535212 30.16125,51.408017 1.92185,5.447081 1.96861,14.593301 0.10167,19.884771 -2.29795,6.51309 -25.66443,46.30475 -29.90699,50.92975 -2.13315,2.32544 -6.41774,5.4645 -9.52131,6.9757 l -5.64286,2.74762 -27,0.20309 c -14.85,0.11169 -29.14982,-0.17933 -31.77737,-0.64671 z m 59.31763,-16.0283 c 4.43906,-2.26464 4.66788,-2.59484 18.8157,-27.15215 12.45757,-21.62343 13.52246,-24.05936 12.71773,-29.09184 -0.91016,-5.691834 -25.14148,-47.273372 -29.49374,-50.611967 L 417.6599,51.5 389.64682,51.204537 c -19.01523,-0.20056 -28.88014,0.06368 -30.71248,0.822659 -4.45983,1.847322 -7.08264,5.509042 -20.03637,27.972804 -16.39159,28.42555 -16.33538,25.48556 -0.99412,52 14.96479,25.8638 15.493,26.63388 19.8437,28.93066 3.46326,1.82828 5.81706,1.98435 30.54229,2.02514 24.95655,0.0412 27.06087,-0.0941 30.75042,-1.97634 z M 96.942599,140.61131 c 0.612347,-1.58878 0.911455,-3.09059 0.664685,-3.33736 -0.246771,-0.24677 -3.017863,0.0847 -6.157983,0.73658 -3.14012,0.65188 -9.025338,1.25369 -13.078262,1.33736 -4.052925,0.0837 -7.369423,0.37035 -7.369996,0.63709 -5.74e-4,0.26674 5.286457,5.78908 11.748957,12.27187 l 11.75,11.78689 0.66462,-10.27187 c 0.365541,-5.64953 1.165631,-11.57178 1.777979,-13.16056 z M 164.56407,112.86353 C 162.92326,98.360717 155.42715,85.789591 143.78363,78.014351 136.88175,73.405451 126.84035,70 120.15232,70 h -4.63701 L 140,94.5 c 13.46658,13.475 24.65876,24.5 24.87151,24.5 0.21275,0 0.0744,-2.76141 -0.30744,-6.13647 z M 361.5,376.06032 c -7.12231,-1.1345 -13.8073,-4.58195 -18.2257,-9.39901 -4.19673,-4.57539 -27.56535,-44.40049 -29.84546,-50.863 -2.11176,-5.98537 -1.80197,-16.37601 0.64991,-21.79831 3.61158,-7.98698 25.31771,-45.0802 28.697,-49.03981 1.80167,-2.11106 5.85167,-5.10322 9,-6.64924 L 357.5,235.5 h 31 c 30.86826,0 31.02114,0.0104 35.97392,2.4476 2.73566,1.34619 6.78566,4.29349 9,6.54957 4.07939,4.15627 27.55179,44.10679 30.08183,51.19991 1.75443,4.91864 1.80272,13.80458 0.1054,19.39399 -1.87086,6.16088 -26.03588,47.6194 -30.3548,52.07796 -1.95477,2.01797 -6.31087,4.92656 -9.68024,6.46353 l -6.12611,2.7945 -25.5,0.21485 c -14.025,0.11817 -27.75,-0.14355 -30.5,-0.58159 z m 57.07561,-16.09692 c 4.90476,-2.37435 5.38413,-3.06208 20.49027,-29.39619 15.22803,-26.54661 15.29376,-23.25824 -1.03145,-51.59729 -6.80248,-11.80846 -13.30555,-22.52518 -14.45128,-23.81493 C 418.71134,249.67076 417.65196,249.5 388.5,249.5 c -29.14793,0 -30.14714,0.16087 -35.12442,5.65499 -4.43071,4.8908 -26.55791,44.78553 -27.10592,48.87123 -0.6586,4.91018 1.87662,10.27608 16.96631,35.91002 C 357.07591,363.44713 354.11751,362 388.34156,362 c 24.1391,0 26.33215,-0.14773 30.23405,-2.0366 z"
         id="path2" />
    </g>
  </g>
</svg>
