<?xml version="1.0" encoding="UTF-8" standalone="no"?>
<!-- Created with Inkscape (http://www.inkscape.org/) -->

<svg
   version="1.1"
   id="svg1"
   width="546.1333"
   height="546.1333"
   viewBox="0 0 546.1333 546.1333"
   sodipodi:docname="ovos.svg"
   inkscape:version="1.4 (e7c3feb1, 2024-10-09)"
   xmlns:inkscape="http://www.inkscape.org/namespaces/inkscape"
   xmlns:sodipodi="http://sodipodi.sourceforge.net/DTD/sodipodi-0.dtd"
   xmlns="http://www.w3.org/2000/svg"
   xmlns:svg="http://www.w3.org/2000/svg">
  <defs
     id="defs1" />
  <sodipodi:namedview
     id="namedview1"
     pagecolor="#ffffff"
     bordercolor="#000000"
     borderopacity="0.25"
     inkscape:showpageshadow="2"
     inkscape:pageopacity="0.0"
     inkscape:pagecheckerboard="0"
     inkscape:deskcolor="#d1d1d1"
     inkscape:zoom="0.42552397"
     inkscape:cx="251.45469"
     inkscape:cy="232.65434"
     inkscape:window-width="1104"
     inkscape:window-height="689"
     inkscape:window-x="0"
     inkscape:window-y="25"
     inkscape:window-maximized="0"
     inkscape:current-layer="g1" />
  <g
     inkscape:groupmode="layer"
     inkscape:label="Image"
     id="g1">
    <g
       id="g2"
       transform="translate(3.1589842e-8,11.750219)">
      <path
         style="fill:#f7e6d2"
         d="m 172.54576,489.91223 c 1.32684,-0.25514 3.24684,-0.24546 4.26667,0.0215 1.01982,0.26698 -0.0658,0.47573 -2.41244,0.46389 -2.34667,-0.0118 -3.18107,-0.23027 -1.85423,-0.48541 z m 179.45422,-0.43083 c -28.48049,-4.54316 -47.19915,-11.06681 -68.36188,-23.82485 -5.40393,-3.25778 -10.23321,-5.92324 -10.73173,-5.92324 -0.49851,0 -0.90639,-0.41347 -0.90639,-0.91881 0,-0.50534 -3.50976,-3.60707 -7.79948,-6.89273 -9.15514,-7.01227 -25.83521,-24.001 -33.01276,-33.62364 -20.95508,-28.09362 -33.18211,-65.29015 -34.5911,-105.23148 -0.69627,-19.73745 0.53414,-33.39397 5.09349,-56.53333 9.46099,-48.016 27.31214,-92.23359 50.37933,-124.79042 32.36359,-45.677704 58.78269,-65.585352 97.08375,-73.155747 5.76762,-1.139997 10.89272,-1.821709 11.38912,-1.514916 0.4964,0.306794 5.61745,1.752928 11.3801,3.213631 12.05045,3.054519 30.77779,11.822475 40.41663,18.922661 38.50099,28.360691 74.71335,86.315511 91.47091,146.391461 4.58395,16.4335 9.82549,42.0508 11.34899,55.46666 3.24295,28.55727 0.31577,59.6369 -8.13744,86.39999 -13.53008,42.83659 -42.51949,78.00542 -83.55488,101.36555 -14.9852,8.5306 -41.06766,17.36562 -57.12801,19.35122 -5.49966,0.67994 -5.9151,0.87944 -3.13865,1.50725 2.94806,0.66661 2.86408,0.72369 -1.06667,0.72508 -2.34666,8.3e-4 -6.90666,-0.41962 -10.13333,-0.93434 z m 41.6,-64.87025 c 17.61002,-4.67291 35.87965,-16.44947 46.87486,-30.21543 6.95238,-8.70434 14.47316,-23.70731 17.24213,-34.39574 3.12683,-12.06986 3.11966,-31.91924 -0.0158,-43.73333 -8.31753,-31.33953 -31.37577,-54.92892 -62.55382,-63.99478 -56.32642,-16.37842 -113.51031,26.87661 -113.51031,85.86144 0,35.49889 22.02224,68.68948 54.6804,82.41098 17.49726,7.35157 39.11904,8.88664 57.28255,4.06686 z m -16.78534,65.29007 c 1.6214,-0.24518 4.0214,-0.23863 5.33334,0.0146 1.31193,0.25318 -0.0147,0.45378 -2.948,0.44578 -2.93334,-0.008 -4.00674,-0.21516 -2.38534,-0.46034 z m 14.38534,-1.00768 c 0.73333,-0.29591 1.93333,-0.29591 2.66666,0 0.73334,0.2959 0.13334,0.53801 -1.33333,0.53801 -1.46667,0 -2.06667,-0.24211 -1.33333,-0.53801 z m 7.53333,-1.08889 c 0.77,-0.30813 1.69,-0.27023 2.04444,0.0842 0.35445,0.35444 -0.27555,0.60655 -1.4,0.56023 -1.2426,-0.0512 -1.49536,-0.30393 -0.64444,-0.64444 z m 76.99999,-33.8074 c 0,-0.2215 0.84,-1.0615 1.86667,-1.86667 1.69179,-1.32679 1.72952,-1.28907 0.40273,0.40273 -1.39346,1.77679 -2.2694,2.34184 -2.2694,1.46394 z m 5.33334,-4.26667 c 0,-0.2215 0.84,-1.0615 1.86666,-1.86667 1.6918,-1.32679 1.72953,-1.28906 0.40273,0.40273 -1.39346,1.7768 -2.26939,2.34184 -2.26939,1.46394 z M 59.597271,445.06664 c -1.326795,-1.69179 -1.289067,-1.72952 0.402725,-0.40273 1.026667,0.80517 1.866667,1.64517 1.866667,1.86667 0,0.8779 -0.875931,0.31286 -2.269392,-1.46394 z m 434.802699,-7.73333 c 2.88923,-2.93334 5.49314,-5.33334 5.78647,-5.33334 0.29333,0 -1.83058,2.4 -4.7198,5.33334 -2.88923,2.93333 -5.49314,5.33333 -5.78647,5.33333 -0.29334,0 1.83058,-2.4 4.7198,-5.33333 z m 9.6,-10.66667 c 1.06185,-1.17333 2.17064,-2.13333 2.46397,-2.13333 0.29334,0 -0.33545,0.96 -1.3973,2.13333 -1.06186,1.17333 -2.17064,2.13333 -2.46398,2.13333 -0.29333,0 0.33546,-0.96 1.39731,-2.13333 z m 37.95087,-81.68888 c 0.0512,-1.24261 0.30394,-1.49536 0.64445,-0.64445 0.30813,0.77 0.27023,1.69 -0.0842,2.04445 -0.35445,0.35444 -0.60655,-0.27556 -0.56024,-1.4 z m 1.06667,-6.4 c 0.0512,-1.24261 0.30394,-1.49536 0.64445,-0.64445 0.30812,0.77 0.27023,1.69 -0.0842,2.04445 -0.35445,0.35444 -0.60655,-0.27556 -0.56024,-1.4 z m 1.06667,-7.46667 c 0.0512,-1.2426 0.30393,-1.49536 0.64444,-0.64444 0.30813,0.77 0.27024,1.69 -0.0842,2.04444 -0.35444,0.35445 -0.60655,-0.27555 -0.56023,-1.4 z m -543.99996948,-9.6 c 0.05118285,-1.2426 0.3039363,-1.49536 0.64444441,-0.64444 0.30812867,0.77 0.2702339,1.69 -0.0842105,2.04444 -0.35444443,0.35445 -0.60654968,-0.27555 -0.56023391,-1.4 z M 545.3141,319.99998 c 0,-2.05333 0.21952,-2.89333 0.48781,-1.86667 0.2683,1.02667 0.2683,2.70667 0,3.73334 -0.26829,1.02666 -0.48781,0.18666 -0.48781,-1.86667 z m -0.0395,-29.33333 c 0.0217,-1.76 0.2608,-2.35087 0.53124,-1.31303 0.27045,1.03783 0.25266,2.47783 -0.0395,3.2 -0.29218,0.72216 -0.51346,-0.12697 -0.49172,-1.88697 z m -1.10619,-11.2 c 0,-1.46667 0.2421,-2.06667 0.53801,-1.33333 0.29591,0.73333 0.29591,1.93333 0,2.66666 -0.29591,0.73334 -0.53801,0.13334 -0.53801,-1.33333 z m -1.15088,-7.02222 c 0.0512,-1.24261 0.30394,-1.49536 0.64445,-0.64445 0.30812,0.77 0.27023,1.69 -0.0842,2.04445 -0.35445,0.35444 -0.60655,-0.27556 -0.56024,-1.4 z m -1.06667,-6.4 c 0.0512,-1.24261 0.30394,-1.49536 0.64445,-0.64445 0.30813,0.77 0.27023,1.69 -0.0842,2.04445 -0.35445,0.35444 -0.60655,-0.27556 -0.56024,-1.4 z M 477.73058,115.46666 c -1.3268,-1.69179 -1.28907,-1.72952 0.40272,-0.40273 1.02667,0.80517 1.86667,1.64517 1.86667,1.86667 0,0.8779 -0.87593,0.31286 -2.26939,-1.46394 z m -5.33333,-6.4 c -1.3268,-1.69179 -1.28907,-1.72952 0.40272,-0.40273 1.7768,1.39347 2.34185,2.2694 1.46394,2.2694 -0.2215,0 -1.0615,-0.84 -1.86666,-1.86667 z m -12.15563,-13.333332 -8.50831,-8.8 8.8,8.508309 c 8.17317,7.902253 9.28628,9.091693 8.5083,9.091693 -0.16043,0 -4.12043,-3.96 -8.79999,-8.800002 z M 445.73058,82.399995 c -1.32679,-1.691792 -1.28907,-1.729521 0.40273,-0.402726 1.77679,1.393461 2.34184,2.269393 1.46394,2.269393 -0.2215,0 -1.0615,-0.84 -1.86667,-1.866667 z M 390.13331,57.96023 c 0.73333,-0.295906 1.93333,-0.295906 2.66667,0 0.73333,0.295907 0.13333,0.538012 -1.33334,0.538012 -1.46666,0 -2.06666,-0.242105 -1.33333,-0.538012 z m -7.46667,-1.066666 c 0.73334,-0.295907 1.93334,-0.295907 2.66667,0 0.73333,0.295906 0.13333,0.538012 -1.33333,0.538012 -1.46667,0 -2.06667,-0.242106 -1.33334,-0.538012 z"
         id="path8" />
      <path
         style="fill:#e7cfb8"
         d="m 363.19998,489.70578 c -2.79153,-0.64441 -2.39088,-0.83874 3.13865,-1.52237 16.06035,-1.9856 42.14281,-10.82062 57.12801,-19.35122 33.18029,-18.88847 57.07878,-43.70099 72.97456,-75.76555 13.73806,-27.71204 19.83588,-54.61795 19.81668,-87.43867 -0.0106,-18.15166 -1.19466,-29.18205 -5.38452,-50.16132 -6.68414,-33.46851 -15.12137,-58.70531 -29.31568,-87.68684 -17.60866,-35.95287 -44.50055,-70.363398 -69.21862,-88.571281 -9.68333,-7.132964 -28.36311,-15.867359 -40.5308,-18.951621 -5.82544,-1.476632 -10.86544,-2.978122 -11.2,-3.336644 -1.21789,-1.305138 26.29012,0.488506 34.59172,2.255533 24.00125,5.108759 42.73003,15.219818 61.20223,33.041087 44.79267,43.214246 73.9106,102.755966 85.99885,175.854556 4.74474,28.69176 4.56998,52.08732 -0.58295,78.04208 -4.8675,24.51703 -16.3759,51.86655 -29.48794,70.07758 -27.17891,37.7482 -70.88294,65.0212 -114.98417,71.75458 -11.9198,1.81991 -29.87711,2.74555 -34.14602,1.7601 z M 56.397271,441.86664 c -1.326795,-1.69179 -1.289067,-1.72952 0.402726,-0.40273 1.026666,0.80517 1.866666,1.64517 1.866666,1.86667 0,0.8779 -0.875931,0.31286 -2.269392,-1.46394 z m 190.502659,-4.8 -6.36661,-6.66667 6.66667,6.36661 c 3.66666,3.50164 6.66666,6.50164 6.66666,6.66667 0,0.78816 -1.05268,-0.17385 -6.96672,-6.36661 z m -200.601279,-5.33333 -2.031987,-2.4 2.4,2.03198 c 2.255407,1.90957 2.88559,2.76802 2.031986,2.76802 -0.202407,0 -1.282407,-1.08 -2.399999,-2.4 z m 189.298609,-6.93334 c -1.32679,-1.69179 -1.28907,-1.72952 0.40273,-0.40272 1.77679,1.39346 2.34184,2.26939 1.46394,2.26939 -0.2215,0 -1.0615,-0.84 -1.86667,-1.86667 z m 224.22026,-90.48888 c 0.0512,-1.2426 0.30393,-1.49536 0.64444,-0.64444 0.30813,0.77 0.27023,1.69 -0.0842,2.04444 -0.35444,0.35445 -0.60655,-0.27555 -0.56023,-1.4 z M 196.35087,323.64443 c 0.0512,-1.24261 0.30393,-1.49536 0.64444,-0.64445 0.30813,0.77 0.27023,1.69 -0.0842,2.04445 -0.35445,0.35444 -0.60655,-0.27556 -0.56023,-1.4 z M 0.08421052,318.31109 c 0.05118285,-1.2426 0.3039363,-1.49536 0.64444441,-0.64444 0.30812867,0.77 0.2702339,1.69 -0.0842105,2.04444 -0.35444443,0.35445 -0.60654968,-0.27555 -0.56023391,-1.4 z m 0,-27.73333 c 0.05118285,-1.24261 0.3039363,-1.49536 0.64444441,-0.64444 0.30812867,0.77 0.2702339,1.69 -0.0842105,2.04444 C 0.29,292.3322 0.03789475,291.7022 0.08421052,290.57776 Z m 196.26665948,-3.2 c 0.0512,-1.24261 0.30393,-1.49536 0.64444,-0.64444 0.30813,0.77 0.27023,1.69 -0.0842,2.04444 -0.35445,0.35444 -0.60655,-0.27555 -0.56023,-1.4 z m 166.04911,-38.48421 c 0.73333,-0.2959 1.93333,-0.2959 2.66666,0 0.73334,0.29591 0.13334,0.53801 -1.33333,0.53801 -1.46666,0 -2.06666,-0.2421 -1.33333,-0.53801 z m 13.86666,0 c 0.73334,-0.2959 1.93334,-0.2959 2.66667,0 0.73333,0.29591 0.13333,0.53801 -1.33333,0.53801 -1.46667,0 -2.06667,-0.2421 -1.33334,-0.53801 z"
         id="path7" />
      <path
         style="fill:#e9af91"
         d="m 255.3653,445.59997 -2.03198,-2.4 2.4,2.03199 c 2.25541,1.90957 2.88559,2.76801 2.03198,2.76801 -0.2024,0 -1.2824,-1.08 -2.4,-2.4 z m -203.699072,-8.53333 -3.132898,-3.46667 3.466667,3.1329 c 3.231419,2.9203 3.956961,3.80044 3.132897,3.80044 -0.183573,0 -1.743573,-1.56 -3.466666,-3.46667 z m 187.131032,-8 c -1.3268,-1.69179 -1.28907,-1.72952 0.40273,-0.40272 1.02666,0.80516 1.86666,1.64516 1.86666,1.86666 0,0.87791 -0.87593,0.31286 -2.26939,-1.46394 z m 125.73605,-2.03976 c 0.73333,-0.29591 1.93333,-0.29591 2.66667,0 0.73333,0.2959 0.13333,0.53801 -1.33334,0.53801 -1.46666,0 -2.06666,-0.24211 -1.33333,-0.53801 z m 10.73333,-0.0222 c 0.77,-0.30813 1.69,-0.27023 2.04445,0.0842 0.35444,0.35445 -0.27556,0.60655 -1.4,0.56024 -1.24261,-0.0512 -1.49536,-0.30394 -0.64445,-0.64445 z m 55.66667,-23.07178 c 0,-0.18357 1.56,-1.74357 3.46666,-3.46666 l 3.46667,-3.1329 -3.1329,3.46667 c -2.9203,3.23142 -3.80043,3.95696 -3.80043,3.13289 z m -128.13605,-7.93289 c -1.3268,-1.6918 -1.28907,-1.72952 0.40272,-0.40273 1.02667,0.80517 1.86667,1.64517 1.86667,1.86667 0,0.8779 -0.87593,0.31285 -2.26939,-1.46394 z m -20.98933,-50.93333 c 0.0217,-1.76 0.2608,-2.35087 0.53124,-1.31304 0.27045,1.03784 0.25266,2.47784 -0.0395,3.2 -0.29219,0.72217 -0.51346,-0.12696 -0.49172,-1.88696 z m -83.32373,-2.22223 c 0.0512,-1.2426 0.30393,-1.49536 0.64444,-0.64444 0.30813,0.77 0.27024,1.69 -0.0842,2.04444 -0.35444,0.35445 -0.60655,-0.27555 -0.56023,-1.4 z m 261.41753,-4.71111 c 0,-1.46666 0.2421,-2.06666 0.53801,-1.33333 0.29591,0.73333 0.29591,1.93333 0,2.66667 -0.29591,0.73333 -0.53801,0.13333 -0.53801,-1.33334 z m -178.0938,-6.93333 c 0.0217,-1.76 0.2608,-2.35086 0.53124,-1.31303 0.27045,1.03783 0.25266,2.47783 -0.0395,3.2 -0.29219,0.72217 -0.51346,-0.12697 -0.49172,-1.88697 z m -85.33333,-3.2 c 0.0217,-1.76 0.2608,-2.35086 0.53125,-1.31303 0.27044,1.03783 0.25266,2.47783 -0.0395,3.2 -0.29218,0.72217 -0.51346,-0.12697 -0.49172,-1.88697 z M 1.1508771,327.91109 c 0.051183,-1.2426 0.3039363,-1.49536 0.6444444,-0.64444 0.3081287,0.77 0.2702339,1.69 -0.08421,2.04444 -0.3544444,0.35445 -0.6065497,-0.27555 -0.5602344,-1.4 z M 195.61104,305.06665 c 0,-7.33333 0.17042,-10.33333 0.37871,-6.66667 0.20828,3.66667 0.20828,9.66667 0,13.33333 -0.20829,3.66667 -0.37871,0.66667 -0.37871,-6.66666 z M 0.2905217,312.53331 c 0,-2.64 0.20801706,-3.72 0.46226013,-2.4 0.25424307,1.32 0.25424307,3.48 0,4.8 -0.25424307,1.32 -0.46226013,0.24 -0.46226013,-2.4 z M 0.2689956,295.99998 c 0.0118393,-2.34666 0.23027651,-3.18107 0.48541593,-1.85423 0.25513947,1.32684 0.24545268,3.24684 -0.0215261,4.26667 -0.26697876,1.01983 -0.47572919,-0.0658 -0.46388983,-2.41244 z M 196.43508,283.73332 c 0,-1.46667 0.2421,-2.06667 0.53801,-1.33334 0.2959,0.73334 0.2959,1.93334 0,2.66667 -0.29591,0.73333 -0.53801,0.13333 -0.53801,-1.33333 z M 1.1508771,282.04443 c 0.051183,-1.24261 0.3039363,-1.49536 0.6444444,-0.64445 0.3081287,0.77 0.2702339,1.69 -0.08421,2.04445 -0.3544444,0.35444 -0.6065497,-0.27556 -0.5602344,-1.4 z M 301.86665,281.19726 c 0,-0.2215 0.84,-1.0615 1.86667,-1.86667 1.69179,-1.32679 1.72952,-1.28907 0.40272,0.40273 -1.39346,1.77679 -2.26939,2.34184 -2.26939,1.46394 z m 131.66622,-6.26394 -3.1329,-3.46667 3.46667,3.1329 c 1.90667,1.72309 3.46667,3.28309 3.46667,3.46666 0,0.82407 -0.88014,0.0985 -3.80044,-3.13289 z m -236.11534,-0.35556 c 0.0512,-1.2426 0.30394,-1.49536 0.64445,-0.64444 0.30813,0.77 0.27023,1.69 -0.0842,2.04444 -0.35445,0.35445 -0.60655,-0.27555 -0.56024,-1.4 z m 114.04912,-2.9805 c 0,-0.2215 0.84,-1.0615 1.86666,-1.86667 1.6918,-1.32679 1.72953,-1.28907 0.40273,0.40273 -1.39346,1.7768 -2.26939,2.34184 -2.26939,1.46394 z m 56.81466,-22.76269 c 1.6214,-0.24518 4.0214,-0.23863 5.33333,0.0146 1.31194,0.25318 -0.0147,0.45378 -2.948,0.44577 -2.93333,-0.008 -4.00673,-0.21516 -2.38533,-0.46033 z M 82.666662,98.133327 c 3.48327,-3.519999 6.573219,-6.399999 6.866552,-6.399999 0.293333,0 -2.316615,2.88 -5.799886,6.399999 -3.48327,3.520003 -6.573218,6.400003 -6.866552,6.400003 -0.293333,0 2.316615,-2.88 5.799886,-6.400003 z m 185.549798,0.8 -4.21648,-4.533333 4.53334,4.216478 c 2.49333,2.319058 4.53333,4.359058 4.53333,4.533328 0,0.80702 -0.92891,-5.2e-4 -4.85019,-4.216473 z M 166.13332,55.826897 c 0.73334,-0.295906 1.93334,-0.295906 2.66667,0 0.73333,0.295907 0.13333,0.538012 -1.33333,0.538012 -1.46667,0 -2.06667,-0.242105 -1.33334,-0.538012 z m 16,0 c 0.73334,-0.295906 1.93334,-0.295906 2.66667,0 0.73333,0.295907 0.13333,0.538012 -1.33333,0.538012 -1.46667,0 -2.06667,-0.242105 -1.33334,-0.538012 z"
         id="path6" />
      <path
         style="fill:#e3956e"
         d="M 153.06666,487.92207 C 120.70992,482.97402 94.202532,471.38615 67.733329,450.61807 14.652968,408.97053 -9.0047327,339.51278 4.3518193,264.53332 16.436331,196.69469 41.817936,142.59429 81.220886,100.68838 93.382611,87.754117 98.87487,82.815659 107.95721,76.64796 c 15.48755,-10.517392 39.84841,-19.157296 54.17611,-19.214282 12.75819,-0.05074 35.30032,8.262897 51.36828,18.944853 4.12788,2.744211 11.85568,9.121671 17.1729,14.172135 11.51507,10.937384 27.70664,29.931624 27.02635,31.704444 -0.26562,0.69219 -2.82677,4.54795 -5.69145,8.56837 -20.44476,28.69306 -36.77838,65.81753 -46.65531,106.04223 -7.76022,31.6042 -10.76641,55.29224 -9.73814,76.73427 1.43788,29.98369 7.0471,53.00535 18.84225,77.33333 10.0502,20.72894 16.64097,30.04646 33.26396,47.026 l 9.48914,9.69266 -3.6404,3.19631 c -5.10113,4.47886 -20.07292,14.30098 -29.57091,19.39977 -13.65112,7.32829 -36.70523,14.98374 -51.66459,17.15598 -3.55781,0.51662 -7.18874,1.17484 -8.06874,1.4627 -0.88,0.28787 -5.92,-0.13723 -11.2,-0.94466 z m 34.46666,0.94925 c 0.77,-0.30813 1.69,-0.27024 2.04445,0.0842 0.35444,0.35444 -0.27556,0.60655 -1.4,0.56023 -1.24261,-0.0512 -1.49536,-0.30394 -0.64445,-0.64444 z m 73.19956,-397.404659 -3.1329,-3.466666 3.46667,3.132897 c 3.23142,2.920299 3.95696,3.800436 3.1329,3.800436 -0.18357,0 -1.74357,-1.56 -3.46667,-3.466667 z M 172.55243,55.760283 c 1.91717,-0.237399 4.79717,-0.2325 6.4,0.01089 1.60282,0.243385 0.0342,0.437621 -3.48577,0.431634 -3.52,-0.006 -4.83141,-0.205121 -2.91423,-0.44252 z"
         id="path5" />
      <path
         style="fill:#fcbe06"
         d="m 328.63275,409.5816 c -12.4988,-2.64343 -15.95542,-4.22199 -21.4353,-9.78898 -28.88325,-29.34244 -33.07922,-77.21423 -9.77564,-111.53026 13.04605,-19.21117 35.43096,-33.68951 58.22407,-37.65876 16.10351,-2.8043 43.55279,0.86908 50.30408,6.73191 4.59871,3.99352 13.88658,16.8759 17.87861,24.79781 2.06944,4.10666 4.79145,11.06666 6.0489,15.46666 2.89146,10.11758 3.9487,28.89602 2.19414,38.97147 -5.82486,33.44882 -29.21624,60.02699 -61.9383,70.37664 -7.44135,2.35363 -11.55244,2.93581 -22.93333,3.24768 -7.62667,0.20899 -15.98192,-0.0674 -18.56723,-0.61417 z"
         id="path4" />
      <path
         style="fill:#da7d55"
         d="m 165.86666,488.5333 c 1.17333,-0.50419 3.59501,-0.95046 5.38151,-0.99169 9.33174,-0.21539 39.04118,-9.96068 52.75182,-17.30365 9.38988,-5.02891 24.43937,-14.88412 29.4586,-19.29106 2.29608,-2.01599 4.02113,-2.79201 4.94004,-2.22231 3.66381,2.27146 12.53469,9.41502 12.53469,10.09396 0,1.25869 -14.82283,10.1015 -24.66005,14.71138 -16.76281,7.85532 -34.25862,12.72111 -53.78317,14.95776 -11.70296,1.34063 -29.70891,1.37149 -26.62344,0.0456 z M 250.17284,111.41342 C 239.49395,98.434484 223.11492,82.761811 213.78952,76.59914 200.52154,67.831025 185.79799,61.521462 170.66666,58.119465 l -6.93334,-1.55883 16,0.399359 c 12.16253,0.303577 18.15589,0.969539 24.98878,2.776673 22.07631,5.83865 39.85825,16.217285 57.287,33.436227 l 10.95902,10.827096 -7.28509,8.70504 -7.28509,8.70503 z"
         id="path3" />
      <path
         style="fill:#eeac09"
         d="m 352.53331,425.08883 c -9.69732,-2.13373 -20.46092,-6.52337 -28.9133,-11.79151 -10.93369,-6.81467 -11.62921,-8.16409 -2.83527,-5.50092 5.93482,1.79731 10.14926,2.18555 23.74857,2.18771 15.17295,0.002 17.27935,-0.24036 25.6,-2.95054 18.39131,-5.99036 33.07653,-16.1199 44.2175,-30.50026 13.6701,-17.64484 19.53868,-36.49336 18.40523,-59.1133 -0.6825,-13.62028 -3.3778,-24.27376 -8.92747,-35.28669 -4.05943,-8.05567 -14.1967,-22.04291 -17.80973,-24.57357 -3.45886,-2.42268 -1.17756,-1.84448 4.94993,1.25457 18.79042,9.50347 34.06409,26.00907 42.04838,45.43988 8.75383,21.30361 8.88801,46.05789 0.3632,67.00579 -4.36336,10.72203 -9.16313,18.28642 -16.99433,26.78291 -17.43191,18.91282 -39.97588,28.72203 -65.58948,28.53894 -6.52478,-0.0466 -14.74323,-0.71849 -18.26323,-1.49301 z"
         id="path2" />
    </g>
  </g>
</svg>
