<?xml version="1.0" encoding="UTF-8" standalone="no"?>
<!-- Created with Inkscape (http://www.inkscape.org/) -->

<svg
   version="1.1"
   id="svg1"
   width="546.1333"
   height="546.1333"
   viewBox="0 0 546.1333 546.1333"
   sodipodi:docname="vinho.svg"
   inkscape:version="1.4 (e7c3feb1, 2024-10-09)"
   xmlns:inkscape="http://www.inkscape.org/namespaces/inkscape"
   xmlns:sodipodi="http://sodipodi.sourceforge.net/DTD/sodipodi-0.dtd"
   xmlns="http://www.w3.org/2000/svg"
   xmlns:svg="http://www.w3.org/2000/svg">
  <defs
     id="defs1" />
  <sodipodi:namedview
     id="namedview1"
     pagecolor="#ffffff"
     bordercolor="#000000"
     borderopacity="0.25"
     inkscape:showpageshadow="2"
     inkscape:pageopacity="0.0"
     inkscape:pagecheckerboard="0"
     inkscape:deskcolor="#d1d1d1"
     inkscape:zoom="0.48319538"
     inkscape:cx="237.99896"
     inkscape:cy="264.90319"
     inkscape:window-width="1104"
     inkscape:window-height="603"
     inkscape:window-x="0"
     inkscape:window-y="25"
     inkscape:window-maximized="0"
     inkscape:current-layer="g1" />
  <g
     inkscape:groupmode="layer"
     inkscape:label="Image"
     id="g1">
    <g
       id="g2"
       transform="translate(14.486893,-2.0695524)">
      <path
         style="fill:#d0daeb"
         d="m 421.26953,546.73346 c 0,-0.22149 0.84,-1.06149 1.86667,-1.86666 1.69179,-1.3268 1.72952,-1.28907 0.40272,0.40272 -1.39346,1.7768 -2.26939,2.34185 -2.26939,1.46394 z m -72.44444,-14.95075 c 0.24445,-0.23108 2.98557,-1.91108 6.09139,-3.73333 5.05788,-2.96758 6.54645,-3.31319 14.27015,-3.31319 7.67311,0 9.25454,0.3612 14.35306,3.27828 3.15141,1.80306 5.72984,3.48306 5.72984,3.73334 0,0.25028 -9.2,0.45505 -20.44444,0.45505 -11.24444,0 -20.24444,-0.18907 -20,-0.42015 z M 425.5362,386.73347 c 0,-0.22149 0.84,-1.06149 1.86666,-1.86666 1.6918,-1.3268 1.72953,-1.28907 0.40273,0.40272 -1.39346,1.7768 -2.26939,2.34185 -2.26939,1.46394 z M 285.88708,320.38065 c 0.0512,-1.24261 0.30394,-1.49536 0.64445,-0.64445 0.30813,0.77 0.27023,1.69 -0.0842,2.04445 -0.35445,0.35444 -0.60655,-0.27556 -0.56024,-1.4 z m 51.72679,-13.84807 c -1.09153,-4.34901 -6.16298,-5.79637 -20.31007,-5.79637 -8.39652,0 -12.30093,-0.38068 -12.30093,-1.19932 0,-3.77132 5.81305,-28.82097 9.06601,-39.06735 l 3.80969,-12 h 51.18855 51.18855 l 1.12877,2.93333 c 2.62563,6.82318 8.43375,28.4992 10.32092,38.51788 l 2.03725,10.81546 h -32.93747 c -36.14503,0 -39.6151,0.49122 -40.94661,5.79637 -0.67887,2.70485 -0.80936,2.73696 -11.12233,2.73696 -10.31297,0 -10.44345,-0.0321 -11.12233,-2.73696 z M 135.80189,47.402887 c 0.002,-6.453333 0.17809,-8.955807 0.39041,-5.561053 0.21232,3.394754 0.21035,8.674754 -0.004,11.733333 -0.21472,3.058579 -0.38844,0.281053 -0.38603,-6.17228 z m 79.99057,0 c 0.003,-5.866666 0.1819,-8.130576 0.39805,-5.03091 0.21615,3.099666 0.21388,7.899666 -0.005,10.666666 -0.21893,2.767 -0.39578,0.23091 -0.393,-5.635756 z"
         id="path13" />
      <path
         style="fill:#c7e6e4"
         d="m 169.26955,400.91743 c -1.7352,-1.01066 -1.86667,-4.56175 -1.86667,-50.4209 0,-36.9484 0.32134,-49.655 1.28,-50.61366 0.85092,-0.85092 5.49926,-1.28 13.86667,-1.28 h 12.58666 v 51.73333 51.73333 l -12,-0.0324 c -6.6,-0.0178 -12.84,-0.52169 -13.86666,-1.11967 z"
         id="path12" />
      <path
         style="fill:#b0d6d2"
         d="m 365.5644,523.9538 c 2.50884,-0.22533 6.34884,-0.22216 8.53333,0.007 2.18449,0.2292 0.1318,0.41356 -4.56153,0.40969 -4.69333,-0.004 -6.48064,-0.19141 -3.9718,-0.41673 z M 195.13621,350.3362 v -51.73333 h 20.8 20.8 v 51.73333 51.73333 h -20.8 -20.8 z m -28.30961,-0.53333 c 0,-26.10667 0.13885,-36.78667 0.30855,-23.73333 0.1697,13.05333 0.1697,34.41333 0,47.46666 -0.1697,13.05333 -0.30855,2.37333 -0.30855,-23.73333 z"
         id="path11" />
      <path
         style="fill:#fedb6b"
         d="M 156.73621,103.40288 V 69.269552 h 9.6 9.6 v 34.133328 34.13333 h -9.6 -9.6 z m 0,-81.599992 v -3.733333 h 9.6 9.6 v 3.733333 3.733334 h -9.6 -9.6 z"
         id="path10" />
      <path
         style="fill:#f5cc5c"
         d="m 166.06955,137.80814 9.86666,-0.35198 V 103.40288 69.349607 l -9.86666,-0.351982 c -5.42667,-0.193591 -1.10667,-0.451603 9.6,-0.573361 l 19.46666,-0.221378 v 35.199994 35.2 l -19.46666,-0.22138 c -10.70667,-0.12176 -15.02667,-0.37977 -9.6,-0.57336 z m 9.86666,-116.005252 v -3.733333 h 9.6 9.6 v 3.733333 3.733334 h -9.6 -9.6 z"
         id="path9" />
      <path
         style="fill:#9c9ea1"
         d="m 253.25405,386.06953 c 0,-77.73333 0.12691,-109.53332 0.28203,-70.66666 0.15511,38.86667 0.15511,102.46666 0,141.33333 -0.15512,38.86666 -0.28203,7.06666 -0.28203,-70.66667 z m 107.70587,73.6 c 0,-26.10667 0.13885,-36.78667 0.30855,-23.73333 0.1697,13.05333 0.1697,34.41333 0,47.46666 -0.1697,13.05333 -0.30855,2.37333 -0.30855,-23.73333 z m 90.5349,-138.66666 c 0,-4.4 0.18828,-6.2 0.41841,-4 0.23013,2.2 0.23013,5.8 0,8 -0.23013,2.2 -0.41841,0.4 -0.41841,-4 z M 311.1362,301.01311 c 3.66667,-0.20828 9.66667,-0.20828 13.33334,0 3.66666,0.20829 0.66666,0.37871 -6.66667,0.37871 -7.33333,0 -10.33333,-0.17042 -6.66667,-0.37871 z m 72.60051,-0.009 c 9.57027,-0.17696 24.93027,-0.17661 34.13333,7.8e-4 9.20305,0.17739 1.37282,0.32217 -17.40051,0.32175 -18.77333,-4.3e-4 -26.3031,-0.14557 -16.73282,-0.32253 z M 98.277496,245.80288 c 0.02174,-1.76 0.260798,-2.35087 0.531245,-1.31304 0.270446,1.03783 0.25266,2.47783 -0.03952,3.2 -0.292184,0.72217 -0.513459,-0.12697 -0.49172,-1.88696 z m 244.858704,1.86757 c 14.22667,-0.16803 37.50667,-0.16803 51.73333,0 14.22667,0.16802 2.58667,0.3055 -25.86666,0.3055 -28.45333,0 -40.09333,-0.13748 -25.86667,-0.3055 z m -38.13333,-12.40363 c 0,-0.2215 0.84,-1.0615 1.86667,-1.86667 1.69179,-1.3268 1.72952,-1.28907 0.40272,0.40273 -1.39346,1.77679 -2.26939,2.34184 -2.26939,1.46394 z"
         id="path8" />
      <path
         style="fill:#eda70a"
         d="m 152.46955,46.869554 v -5.333333 h 23.46666 23.46667 v 5.333333 5.333333 h -23.46667 -23.46666 z"
         id="path7" />
      <path
         style="fill:#616565"
         d="m 315.53348,545.26952 c -1.3268,-1.69179 -1.28907,-1.72952 0.40272,-0.40272 1.7768,1.39346 2.34185,2.26939 1.46395,2.26939 -0.2215,0 -1.0615,-0.84 -1.86667,-1.86667 z M 98.574515,450.60286 c 1.03e-4,-41.06666 0.132709,-57.71147 0.294678,-36.98847 0.161969,20.72301 0.161884,54.32301 -1.89e-4,74.66666 -0.162073,20.34366 -0.294593,3.38848 -0.294489,-37.67819 z m 278.132575,9.39629 c -0.13066,-25.92538 0.12244,-47.35993 0.56244,-47.63235 0.72733,-0.4503 0.71216,36.14574 -0.0324,78.23606 -0.16086,9.09333 -0.39938,-4.67834 -0.53003,-30.60371 z m -139.71481,-109.38108 -0.25607,-51.98481 -33.33333,-0.29761 -33.33333,-0.29762 33.3668,-0.25091 c 25.89722,-0.19475 33.4812,0.0476 33.87778,1.08242 0.28102,0.73333 0.38119,24.37333 0.22259,52.53333 l -0.28836,51.2 z M 98.558131,293.26954 c 0,-24.93333 0.139616,-35.13333 0.310257,-22.66667 0.170641,12.46667 0.170641,32.86667 0,45.33333 -0.170641,12.46667 -0.310257,2.26667 -0.310257,-22.66666 z m 188.395619,16.44444 c 0.0512,-1.2426 0.30394,-1.49536 0.64444,-0.64444 0.30813,0.77 0.27024,1.69 -0.0842,2.04444 -0.35444,0.35445 -0.60655,-0.27555 -0.56023,-1.4 z m 163.19999,-4.26666 c 0.0512,-1.24261 0.30394,-1.49536 0.64444,-0.64445 0.30813,0.77 0.27024,1.69 -0.0842,2.04445 -0.35444,0.35444 -0.60655,-0.27556 -0.56023,-1.4 z m -146.13332,-5.33334 c 0.0512,-1.2426 0.30393,-1.49536 0.64444,-0.64444 0.30813,0.77 0.27023,1.69 -0.0842,2.04444 -0.35445,0.35445 -0.60655,-0.27555 -0.56023,-1.4 z"
         id="path6" />
      <path
         style="fill:#942039"
         d="m 120.46955,531.44613 c -0.88,-0.32357 -2.44,-1.32007 -3.46667,-2.21445 -1.74561,-1.52067 -1.86666,-6.63369 -1.86666,-78.84262 v -77.2165 l -2.61819,-2.61818 c -1.44,-1.44 -3.36,-2.61818 -4.26666,-2.61818 -1.37697,0 -1.64849,-1.75686 -1.64849,-10.66666 0,-9.65688 0.18631,-10.66667 1.96802,-10.66667 1.0824,0 2.8824,-1.0096 4,-2.24356 1.92235,-2.12252 2.06533,-5.1008 2.65,-55.2 0.53652,-45.97249 0.86262,-53.78522 2.4727,-59.24078 3.19512,-10.82628 7.6874,-18.87473 18.22318,-32.64899 19.77332,-25.8512 20.81943,-28.20777 20.81943,-46.89968 v -11.76698 h 9.55027 9.55028 l 0.31639,28 0.3164,28 7.13037,14.4 c 10.06743,20.33145 10.64863,22.90858 11.24611,49.86666 l 0.50237,22.66667 h -13.76332 c -12.59073,0 -14.22529,0.2302 -19.18551,2.70198 -3.38683,1.68773 -6.56853,4.35575 -8.4761,7.10765 l -3.05392,4.40567 -0.32226,50.75901 c -0.17724,27.91746 -0.0221,52.83703 0.34469,55.37684 0.51693,3.57904 1.78915,5.77125 5.6556,9.74533 6.03088,6.19876 10.80247,7.50351 27.44113,7.50351 h 11.1475 l -0.0146,54.13333 c -0.008,29.77333 -0.304,55.21333 -0.65774,56.53333 l -0.64318,2.4 -35.87559,-0.0842 c -19.73157,-0.0463 -36.59559,-0.34895 -37.47559,-0.67252 z M 356.20287,394.14232 c -7.97076,-2.93971 -19.20496,-9.25683 -25.62491,-14.40918 -17.71164,-14.21453 -25.11485,-29.17927 -27.07563,-54.73027 l -0.55252,-7.2 h 15.24059 c 14.55165,0 15.34544,-0.1116 17.55987,-2.46875 1.2756,-1.35781 2.31927,-3.27781 2.31927,-4.26666 0,-1.56626 1.37442,-1.79792 10.66666,-1.79792 9.61608,0 10.66667,0.1918 10.66667,1.9474 0,1.07107 1.11093,2.99107 2.46875,4.26666 2.28899,2.1504 3.54265,2.31927 17.21793,2.31927 h 14.74919 l -0.60499,14.13333 c -0.85311,19.92956 -4.94805,36.82629 -13.57167,56 l -3.47817,7.73333 -8.12386,-0.0752 c -4.46811,-0.0413 -9.80385,-0.69476 -11.85718,-1.45205 z"
         id="path5" />
      <path
         style="fill:#831834"
         d="m 194.9054,475.70406 0.30252,-56.49954 -12.56919,-0.33813 c -6.91305,-0.18597 2.43082,-0.44134 20.76415,-0.56749 l 33.33333,-0.22937 v 54.85591 54.85591 l -2.81052,2.21076 c -2.59462,2.04093 -4.21287,2.21078 -21.06666,2.21112 l -18.25615,3.8e-4 z m 181.56413,-80.42032 c 0,-0.21219 1.5045,-3.69219 3.34333,-7.73334 8.38356,-18.42431 12.57187,-35.78004 13.42089,-55.6142 l 0.60499,-14.13333 h 20.64873 20.64873 v 6.2041 c 0,24.28589 -11.73602,45.92443 -32.33521,59.61875 -9.54414,6.34493 -26.33146,13.77736 -26.33146,11.65802 z M 326.20014,376.7362 c -1.32679,-1.69179 -1.28906,-1.72952 0.40273,-0.40273 1.02667,0.80517 1.86667,1.64517 1.86667,1.86667 0,0.8779 -0.87593,0.31286 -2.2694,-1.46394 z m -6.4,-6.4 c -1.32679,-1.69179 -1.28906,-1.72952 0.40273,-0.40272 1.02667,0.80516 1.86667,1.64516 1.86667,1.86666 0,0.8779 -0.87593,0.31286 -2.2694,-1.46394 z m -16.64008,-44 c 0,-2.64 0.20802,-3.72 0.46226,-2.4 0.25424,1.32 0.25424,3.48 0,4.8 -0.25424,1.32 -0.46226,0.24 -0.46226,-2.4 z M 194.84603,258.86954 c -0.59748,-26.95808 -1.17868,-29.53521 -11.24611,-49.86666 l -7.13037,-14.4 -0.3164,-28 -0.31639,-28 h 9.54261 9.5426 l 0.37379,13.62548 c 0.35191,12.82811 0.57457,14.02974 3.8048,20.53334 1.88706,3.79931 7.18951,11.70785 11.78321,17.57451 22.58374,28.84191 24.75939,34.67615 25.55684,68.53333 l 0.53387,22.66667 H 216.16144 195.3484 Z m -79.6256,-18.48889 c 0.0512,-1.2426 0.30393,-1.49536 0.64444,-0.64444 0.30813,0.77 0.27023,1.69 -0.0842,2.04444 -0.35444,0.35445 -0.60655,-0.27555 -0.56023,-1.4 z"
         id="path4" />
      <path
         style="fill:#591222"
         d="m 117.81043,531.14841 c -0.37369,-0.60465 0.0545,-0.78348 1.00372,-0.41921 1.84791,0.70911 2.18601,1.47366 0.65168,1.47366 -0.55204,0 -1.29697,-0.4745 -1.6554,-1.05445 z m 115.72578,-0.41494 c 0,-0.2215 0.84,-1.0615 1.86667,-1.86667 1.69179,-1.3268 1.72952,-1.28907 0.40272,0.40272 -1.39346,1.7768 -2.26939,2.34185 -2.26939,1.46395 z M 114.57507,450.06953 c 0,-41.94666 0.13232,-59.10666 0.29405,-38.13333 0.16172,20.97333 0.16172,55.29333 0,76.26666 -0.16173,20.97333 -0.29405,3.81333 -0.29405,-38.13333 z m 122.65616,22.4 c 0,-29.62667 0.13686,-41.74667 0.30414,-26.93333 0.16727,14.81333 0.16727,39.05333 0,53.86666 -0.16728,14.81333 -0.30414,2.69333 -0.30414,-26.93333 z m -82.76441,-62.66666 c -1.32679,-1.6918 -1.28907,-1.72953 0.40273,-0.40273 1.02666,0.80517 1.86666,1.64517 1.86666,1.86667 0,0.8779 -0.87593,0.31285 -2.26939,-1.46394 z m -4.0464,-9.42223 c 0.0512,-1.2426 0.30394,-1.49536 0.64445,-0.64444 0.30813,0.77 0.27023,1.69 -0.0842,2.04444 -0.35445,0.35445 -0.60655,-0.27555 -0.56024,-1.4 z m 214.04911,-4.42546 c 2.49334,-0.22457 6.57334,-0.22457 9.06667,0 2.49333,0.22457 0.45333,0.40831 -4.53333,0.40831 -4.98667,0 -7.02667,-0.18374 -4.53334,-0.40831 z m 62.13333,-11.35504 c 0,-0.2215 0.84,-1.0615 1.86667,-1.86667 1.69179,-1.32679 1.72952,-1.28906 0.40273,0.40273 -1.39346,1.7768 -2.2694,2.34184 -2.2694,1.46394 z m -14.93333,-7.39771 c 0,-0.18357 1.56,-1.74357 3.46667,-3.46667 l 3.46666,-3.13289 -3.13289,3.46666 c -2.9203,3.23142 -3.80044,3.95697 -3.80044,3.1329 z M 316.60015,367.1362 c -1.3268,-1.69179 -1.28907,-1.72952 0.40272,-0.40272 1.7768,1.39346 2.34184,2.26939 1.46394,2.26939 -0.2215,0 -1.0615,-0.84 -1.86666,-1.86667 z m 103.60271,0.39728 c 0,-0.2215 0.84,-1.0615 1.86667,-1.86667 1.69179,-1.3268 1.72952,-1.28907 0.40273,0.40272 -1.39346,1.7768 -2.2694,2.34185 -2.2694,1.46395 z m -309.33331,-22.4 c 0,-0.2215 0.84,-1.0615 1.86667,-1.86667 1.69179,-1.3268 1.72952,-1.28907 0.40272,0.40273 -1.39346,1.77679 -2.26939,2.34184 -2.26939,1.46394 z m 322.21752,-4.48617 c 0.0512,-1.2426 0.30394,-1.49536 0.64445,-0.64444 0.30813,0.77 0.27023,1.69 -0.0842,2.04444 -0.35445,0.35445 -0.60655,-0.27555 -0.56024,-1.4 z M 114.55994,293.26954 c 0,-26.10667 0.13884,-36.78667 0.30854,-23.73333 0.1697,13.05333 0.1697,34.41333 0,47.46666 -0.1697,13.05333 -0.30854,2.37333 -0.30854,-23.73333 z m 319.5938,40.97777 c 0.0512,-1.2426 0.30394,-1.49536 0.64445,-0.64444 0.30812,0.77 0.27023,1.69 -0.0842,2.04444 -0.35444,0.35445 -0.60654,-0.27555 -0.56023,-1.4 z m -131.19999,-2.13333 c 0.0512,-1.2426 0.30394,-1.49536 0.64444,-0.64444 0.30813,0.77 0.27024,1.69 -0.0842,2.04444 -0.35444,0.35445 -0.60655,-0.27555 -0.56023,-1.4 z m 132.26666,-12.8 c 0.0512,-1.2426 0.30393,-1.49536 0.64444,-0.64444 0.30813,0.77 0.27024,1.69 -0.0842,2.04444 -0.35444,0.35445 -0.60655,-0.27555 -0.56023,-1.4 z m -125.15087,-2.30312 c 4.25333,-0.20246 11.21333,-0.20246 15.46666,0 4.25334,0.20247 0.77334,0.36812 -7.73333,0.36812 -8.50667,0 -11.98667,-0.16565 -7.73333,-0.36812 z m 61.33333,0.001 c 3.96,-0.20523 10.44,-0.20523 14.4,0 3.96,0.20524 0.72,0.37316 -7.2,0.37316 -7.92,0 -11.16,-0.16792 -7.2,-0.37316 z m -220.98245,-16.8979 c 0.0512,-1.2426 0.30394,-1.49536 0.64445,-0.64444 0.30813,0.77 0.27023,1.69 -0.0842,2.04444 -0.35445,0.35445 -0.60655,-0.27555 -0.56024,-1.4 z m 52.68878,-18.32605 33.57299,-0.28162 0.33566,-16.51952 0.33565,-16.51953 -0.042,16.80114 -0.042,16.80114 h -33.86666 -33.86667 z m 32.76829,-42.38505 c 0.0217,-1.76 0.2608,-2.35087 0.53124,-1.31304 0.27045,1.03783 0.25266,2.47783 -0.0395,3.2 -0.29219,0.72217 -0.51346,-0.12696 -0.49172,-1.88696 z m -120.65706,-2.22223 c 0.0512,-1.2426 0.30393,-1.49536 0.64444,-0.64444 0.30813,0.77 0.27023,1.69 -0.0842,2.04444 -0.35444,0.35445 -0.60655,-0.27555 -0.56023,-1.4 z m 225.24911,-5.51035 c 15.69333,-0.16625 41.37333,-0.16625 57.06666,0 15.69333,0.16624 2.85333,0.30226 -28.53333,0.30226 -31.38667,0 -44.22667,-0.13602 -28.53333,-0.30226 z M 216.33348,197.53621 c -1.32679,-1.69179 -1.28906,-1.72952 0.40273,-0.40272 1.02667,0.80516 1.86667,1.64516 1.86667,1.86666 0,0.87791 -0.87593,0.31286 -2.2694,-1.46394 z m -7.46666,-9.6 c -1.3268,-1.69179 -1.28907,-1.72952 0.40272,-0.40272 1.7768,1.39346 2.34185,2.26939 1.46394,2.26939 -0.22149,0 -1.06149,-0.84 -1.86666,-1.86667 z m -13.6464,-26.48889 c 0.0512,-1.2426 0.30394,-1.49535 0.64445,-0.64444 0.30812,0.77 0.27023,1.69 -0.0842,2.04444 -0.35445,0.35445 -0.60655,-0.27555 -0.56024,-1.4 z m -39.38245,-1.51111 c 0,-1.46666 0.2421,-2.06666 0.53801,-1.33333 0.29591,0.73333 0.29591,1.93333 0,2.66667 -0.29591,0.73333 -0.53801,0.13333 -0.53801,-1.33334 z M 151.83166,51.781725 c -0.31401,-0.818305 -0.37964,-3.338305 -0.14583,-5.599999 0.40985,-3.964663 0.43153,-3.933085 0.60441,0.880307 0.15299,4.259597 0.53162,5.060337 2.57931,5.454738 l 2.4,0.46226 -2.43348,0.145261 c -1.33841,0.07989 -2.6904,-0.524261 -3.00441,-1.342567 z m 14.23789,-25.973576 c 5.42666,-0.19359 14.30666,-0.19359 19.73333,0 5.42666,0.19359 0.98667,0.351982 -9.86667,0.351982 -10.85333,0 -15.29333,-0.158392 -9.86666,-0.351982 z"
         id="path3" />
      <path
         style="fill:#010000"
         d="m 116.13759,546.74689 c -6.96193,-1.87736 -11.08531,-5.22424 -14.24292,-11.56074 l -2.758453,-5.53549 v -78.07239 c 0,-72.8972 0.124287,-78.22588 1.874973,-80.3879 2.36066,-2.91528 8.00794,-3.22743 10.90799,-0.60292 2.06008,1.86434 2.11664,3.74106 2.39679,79.51749 0.2758,74.60274 0.3656,77.69501 2.3189,79.853 2.01717,2.22855 2.44591,2.24492 58.81516,2.24492 54.31529,0 56.89262,-0.0886 59.30134,-2.03872 l 2.51817,-2.03872 v -54.76128 -54.76128 l -35.73333,-0.53333 c -35.04153,-0.52301 -35.81772,-0.5817 -40.09205,-3.03161 -5.66613,-3.24764 -9.74103,-9.62095 -10.58344,-16.5529 -0.36643,-3.01519 -0.51434,-26.84215 -0.3287,-52.94882 0.33413,-46.9887 0.36191,-47.5123 2.7586,-51.9988 1.33159,-2.49268 4.4154,-5.85268 6.85291,-7.46667 l 4.43184,-2.93452 36.34709,-0.53334 36.34708,-0.53333 -0.0801,-20.8 c -0.13165,-34.19218 -2.66525,-41.24277 -25.28982,-70.37736 -10.66125,-13.72894 -13.81888,-19.3166 -15.56409,-27.5418 -0.77912,-3.672 -1.19934,-21.33096 -1.19934,-50.4 V 68.202886 h -19.13091 -19.13091 l -0.35102,47.733334 c -0.42912,58.35304 1.26113,51.77143 -20.61367,80.26666 -5.62955,7.33333 -11.85053,16.69333 -13.8244,20.8 -7.2619,15.10843 -7.22644,14.77462 -7.7319,72.79092 l -0.45762,52.52425 -2.80028,2.2027 c -3.09734,2.43637 -6.827,2.11013 -10.15359,-0.88815 -1.820949,-1.64124 -1.906472,-4.75094 -1.545162,-56.18356 0.369817,-52.64353 0.461025,-54.705 2.754822,-62.26407 4.53648,-14.94972 8.85523,-22.2511 27.72969,-46.88048 4.62162,-6.03078 8.95465,-12.80646 9.62895,-15.05708 0.84263,-2.81244 1.226,-18.70338 1.226,-50.81762 0,-43.004984 -0.14863,-46.889561 -1.86666,-48.78482 -1.5185,-1.675141 -1.93251,-4.519921 -2.21965,-15.251856 -0.31002,-11.587468 -0.092,-13.683221 1.79196,-17.22476 1.28105,-2.408161 2.3364,-6.882652 2.62032,-11.109642 0.54262,-8.078596 2.71143,-12.5140542 7.55194,-15.4445785 2.99385,-1.8125229 5.69342,-2.011244 27.32209,-2.011244 21.62868,0 24.32824,0.1987211 27.32209,2.011244 4.81777,2.9167511 7.00502,7.3706065 7.58472,15.4445785 0.27948,3.89263 1.4601,9.112342 2.6236,11.599359 1.81797,3.885995 2.06535,6.308104 1.75918,17.224698 -0.28775,10.26004 -0.71522,13.098857 -2.22292,14.762139 -1.72028,1.897794 -1.86483,5.817043 -1.84324,49.975302 0.0219,44.82927 0.15391,48.19086 2.04898,52.18267 1.11405,2.34667 7.11777,10.74667 13.3416,18.66667 7.76569,9.88206 12.9501,17.74662 16.52425,25.06666 9.88945,20.25415 9.05509,4.96942 9.40058,172.21096 l 0.30507,147.67762 -2.69993,5.51847 c -3.11533,6.3675 -8.38937,10.49483 -15.47731,12.11217 -7.24219,1.65254 -112.20671,1.37916 -118.46529,-0.30854 z m 121.40877,-196.67735 -0.27682,-52 -32.96334,-0.28232 c -28.19215,-0.24145 -33.32567,-0.0449 -35.46666,1.35792 l -2.50333,1.64024 v 49.36208 c 0,36.9705 0.32133,49.6834 1.28,50.64207 0.94274,0.94274 10.36078,1.28 35.74348,1.28 h 34.46348 z M 179.26955,52.202887 h 20.13333 v -5.35374 -5.35374 l -23.73333,0.287073 -23.73334,0.287074 -0.33774,4.112172 c -0.5068,6.170529 0.31146,7.466416 4.22084,6.684542 1.8243,-0.36486 12.3769,-0.663381 23.45024,-0.663381 z m 15.86666,-29.866665 v -4.266667 h -19.2 -19.2 v 4.266667 4.266666 h 19.2 19.2 z M 319.25034,547.14517 c -5.29112,-2.13523 -7.29584,-9.20212 -3.82375,-13.47922 1.67052,-2.05784 36.12917,-22.86489 43.17628,-26.071 l 2.93333,-1.33452 v -46.79559 c 0,-36.52009 -0.29278,-46.88011 -1.33333,-47.18049 -36.48082,-10.53104 -61.82609,-34.40995 -70.28092,-66.21481 -2.94003,-11.05962 -3.18526,-35.33167 -0.51729,-51.2 3.47241,-20.65296 12.86128,-53.26234 17.27514,-60 l 1.57225,-2.4 h 60.69799 60.69799 l 2.1409,2.72172 c 4.79017,6.08972 14.9347,42.79752 17.76056,64.26624 4.05391,30.7986 0.28781,52.95938 -12.22917,71.95981 -11.44964,17.38025 -31.04953,31.74193 -52.85079,38.72604 l -7.46666,2.39198 -0.27771,46.95838 -0.27771,46.95838 2.34149,0.74316 c 4.08,1.29494 41.86493,23.91351 43.81392,26.2276 2.0551,2.44008 2.44746,7.43504 0.82252,10.47127 -0.57428,1.07306 -2.56591,2.4815 -4.42584,3.12987 -4.09053,1.42597 -96.23853,1.53791 -99.7492,0.12118 z m 65.75253,-19.17454 c -6.56118,-3.99896 -7.40158,-4.2278 -15.65689,-4.26344 -8.15077,-0.0352 -9.14878,0.21564 -15.2,3.82034 -3.56204,2.1219 -6.47644,4.0419 -6.47644,4.26666 0,0.22477 9.96,0.40722 22.13333,0.40545 l 22.13333,-0.003 z m -3.04901,-133.23622 c 17.27075,-5.94201 34.13786,-18.71979 42.82083,-32.43918 6.91813,-10.93087 9.62902,-20.33275 10.70527,-37.12792 l 0.45085,-7.03557 -35.63986,-0.74757 c -19.60193,-0.41117 -36.29677,-0.99966 -37.09965,-1.30775 -4.37736,-1.67976 -4.13121,-10.73998 0.35705,-13.14203 1.36466,-0.73034 14.28457,-1.13152 36.44063,-1.13152 h 34.32636 l -0.74295,-5.94636 c -0.94989,-7.60266 -5.08632,-24.72742 -9.19419,-38.06375 l -3.20652,-10.41012 -51.8524,0.27678 -51.85239,0.27679 -2.54839,7.46666 c -3.91419,11.46844 -10.98102,40.81136 -10.98211,45.6 -1e-4,0.44 6.37301,0.8 14.16247,0.8 15.42347,0 18.07105,0.80266 19.34128,5.86367 0.68208,2.71761 -0.7939,6.78231 -2.99695,8.25333 -0.64551,0.43102 -8.01365,0.79102 -16.37365,0.8 l -15.2,0.0163 v 7.27077 c 0,31.53093 18.07797,56.37598 50.66666,69.63258 9.21133,3.74703 19.55112,4.1454 28.41766,1.09486 z"
         id="path2" />
    </g>
  </g>
</svg>
